<?xml version="1.0" encoding="UTF-8"?>
<svg id="b" data-name="Слой 2" xmlns="http://www.w3.org/2000/svg" width="653.57" height="197.69" viewBox="0 0 653.57 197.69">
  <defs>
    <style>
      .d {
        fill: #02a798;
      }
    </style>
  </defs>
  <g id="c" data-name="Слой 1">
    <g>
      <g>
        <path class="d" d="M259.4,157.57v12.49h-2.32v-5.35h-6.46v5.35h-2.32v-12.49h2.32v5.16h6.46v-5.16h2.32Z"/>
        <path class="d" d="M271.55,167.17h-6.25l-1.23,2.89h-2.39l5.62-12.49h2.28l5.64,12.49h-2.43l-1.25-2.89Zm-.77-1.82l-2.36-5.46-2.34,5.46h4.69Z"/>
        <path class="d" d="M287.61,157.57l-5.43,10.08c-.48,.89-1.04,1.56-1.7,2.01-.66,.45-1.38,.67-2.15,.67-.62,0-1.23-.13-1.84-.39l.57-1.82c.49,.16,.89,.23,1.21,.23,.75,0,1.37-.39,1.86-1.16l.2-.3-4.98-9.32h2.48l3.69,7.34,3.8-7.34h2.28Z"/>
        <path class="d" d="M299.61,157.57v12.49h-2.3v-4.71c-1.18,.44-2.3,.66-3.35,.66-1.59,0-2.82-.38-3.69-1.15s-1.29-1.87-1.29-3.31v-3.98h2.3v3.73c0,.88,.26,1.55,.77,2.02,.51,.46,1.24,.7,2.19,.7,1.08,0,2.11-.22,3.07-.66v-5.78h2.3Z"/>
        <path class="d" d="M314.58,157.57v12.49h-2.32v-5.35h-6.46v5.35h-2.32v-12.49h2.32v5.16h6.46v-5.16h2.32Z"/>
        <path class="d" d="M320.79,169.41c-1.02-.55-1.83-1.32-2.41-2.3-.58-.98-.88-2.08-.88-3.29s.29-2.31,.88-3.29c.58-.98,1.39-1.75,2.41-2.3,1.02-.55,2.17-.83,3.44-.83s2.42,.28,3.44,.83c1.02,.55,1.83,1.32,2.41,2.29,.58,.98,.88,2.08,.88,3.3s-.29,2.33-.88,3.3c-.58,.98-1.39,1.74-2.41,2.29-1.02,.55-2.17,.83-3.44,.83s-2.42-.28-3.44-.83Zm5.69-1.77c.67-.38,1.19-.9,1.57-1.57,.38-.67,.57-1.42,.57-2.26s-.19-1.58-.57-2.26c-.38-.67-.9-1.2-1.57-1.57-.67-.37-1.42-.56-2.25-.56s-1.58,.19-2.25,.56c-.67,.37-1.19,.9-1.57,1.57-.38,.67-.57,1.43-.57,2.26s.19,1.58,.57,2.26c.38,.67,.9,1.2,1.57,1.57,.67,.37,1.42,.56,2.25,.56s1.58-.19,2.25-.56Z"/>
        <path class="d" d="M333.4,162.81h4.91v1.86h-4.91v-1.86Z"/>
        <path class="d" d="M350.36,159.53h-4.14v10.53h-2.3v-10.53h-4.12v-1.96h10.56v1.96Z"/>
        <path class="d" d="M362.1,168.11v1.95h-9.37v-12.49h9.12v1.95h-6.8v3.25h6.03v1.91h-6.03v3.44h7.05Z"/>
        <path class="d" d="M366.36,157.57l2.94,4.18,2.94-4.18h2.71l-4.19,6,4.53,6.5h-2.75l-3.25-4.55-3.23,4.55h-2.68l4.51-6.41-4.23-6.09h2.68Z"/>
        <path class="d" d="M388.33,157.57v12.49h-2.32v-5.35h-6.46v5.35h-2.32v-12.49h2.32v5.16h6.46v-5.16h2.32Z"/>
        <path class="d" d="M394.54,169.41c-1.02-.55-1.83-1.32-2.41-2.3-.58-.98-.88-2.08-.88-3.29s.29-2.31,.88-3.29c.58-.98,1.39-1.75,2.41-2.3,1.02-.55,2.17-.83,3.44-.83s2.42,.28,3.44,.83c1.02,.55,1.83,1.32,2.41,2.29,.58,.98,.88,2.08,.88,3.3s-.29,2.33-.88,3.3c-.58,.98-1.39,1.74-2.41,2.29-1.02,.55-2.17,.83-3.44,.83s-2.42-.28-3.44-.83Zm5.69-1.77c.67-.38,1.19-.9,1.57-1.57,.38-.67,.57-1.42,.57-2.26s-.19-1.58-.57-2.26c-.38-.67-.9-1.2-1.57-1.57-.67-.37-1.42-.56-2.25-.56s-1.58,.19-2.25,.56c-.67,.37-1.19,.9-1.57,1.57-.38,.67-.57,1.43-.57,2.26s.19,1.58,.57,2.26c.38,.67,.9,1.2,1.57,1.57,.67,.37,1.42,.56,2.25,.56s1.58-.19,2.25-.56Z"/>
        <path class="d" d="M417.97,157.57v12.49h-2.28v-10.53h-4.93l-.11,3.12c-.06,1.75-.2,3.17-.43,4.26-.23,1.09-.59,1.91-1.09,2.48-.5,.57-1.19,.85-2.07,.85-.31,0-.73-.06-1.27-.18l.16-2.02c.16,.05,.33,.07,.54,.07,.72,0,1.24-.43,1.54-1.29,.3-.86,.49-2.22,.56-4.08l.18-5.17h9.19Z"/>
        <path class="d" d="M424.19,169.41c-1.02-.55-1.83-1.32-2.41-2.3-.58-.98-.88-2.08-.88-3.29s.29-2.31,.88-3.29c.58-.98,1.39-1.75,2.41-2.3,1.02-.55,2.17-.83,3.44-.83s2.42,.28,3.44,.83c1.02,.55,1.83,1.32,2.41,2.29,.58,.98,.88,2.08,.88,3.3s-.29,2.33-.88,3.3c-.58,.98-1.39,1.74-2.41,2.29-1.02,.55-2.17,.83-3.44,.83s-2.42-.28-3.44-.83Zm5.69-1.77c.67-.38,1.19-.9,1.57-1.57,.38-.67,.57-1.42,.57-2.26s-.19-1.58-.57-2.26c-.38-.67-.9-1.2-1.57-1.57-.67-.37-1.42-.56-2.25-.56s-1.58,.19-2.25,.56-1.19,.9-1.57,1.57c-.38,.67-.57,1.43-.57,2.26s.19,1.58,.57,2.26c.38,.67,.9,1.2,1.57,1.57,.67,.37,1.42,.56,2.25,.56s1.58-.19,2.25-.56Z"/>
        <path class="d" d="M445.79,159.53h-6.19l.02,10.53h-2.28v-12.49h8.48l-.02,1.96Z"/>
        <path class="d" d="M448.14,157.57h2.28v8.87l6.71-8.87h2.16v12.49h-2.28v-8.85l-6.71,8.85h-2.16v-12.49Z"/>
        <path class="d" d="M472.55,157.57v12.49h-2.3v-4.71c-1.18,.44-2.3,.66-3.35,.66-1.59,0-2.82-.38-3.69-1.15s-1.29-1.87-1.29-3.31v-3.98h2.3v3.73c0,.88,.26,1.55,.77,2.02,.51,.46,1.24,.7,2.19,.7,1.08,0,2.11-.22,3.07-.66v-5.78h2.3Z"/>
        <path class="d" d="M485.79,168.11v1.95h-9.37v-12.49h9.12v1.95h-6.8v3.25h6.03v1.91h-6.03v3.44h7.05Z"/>
        <path class="d" d="M491.03,169.41c-1.02-.55-1.81-1.32-2.39-2.29-.58-.98-.86-2.08-.86-3.3s.29-2.33,.87-3.3c.58-.98,1.38-1.74,2.4-2.29,1.02-.55,2.16-.83,3.42-.83,1.02,0,1.96,.18,2.8,.54,.84,.36,1.56,.88,2.14,1.55l-1.5,1.41c-.9-.98-2.02-1.46-3.34-1.46-.86,0-1.62,.19-2.3,.56-.68,.37-1.21,.89-1.59,1.56-.38,.67-.57,1.42-.57,2.27s.19,1.6,.57,2.27c.38,.67,.91,1.19,1.59,1.56,.68,.37,1.45,.56,2.3,.56,1.32,0,2.43-.49,3.34-1.48l1.5,1.43c-.58,.68-1.3,1.2-2.15,1.55s-1.79,.54-2.81,.54c-1.26,0-2.4-.28-3.42-.83Z"/>
        <path class="d" d="M506.55,164.79h-2.32v5.26h-2.28v-12.49h2.28v5.23h2.39l3.59-5.23h2.46l-4.27,6.05,4.43,6.44h-2.62l-3.66-5.26Z"/>
        <path class="d" d="M522.86,167.17h-6.25l-1.23,2.89h-2.39l5.62-12.49h2.28l5.64,12.49h-2.43l-1.25-2.89Zm-.77-1.82l-2.36-5.46-2.34,5.46h4.69Z"/>
        <path class="d" d="M537.74,157.57v12.49h-2.28v-3.48h-3.34l-2.32,3.48h-2.45l2.68-3.85c-.87-.32-1.54-.83-2.01-1.53-.47-.7-.71-1.54-.71-2.52s.21-1.77,.64-2.46c.43-.69,1.03-1.22,1.82-1.58,.78-.36,1.71-.54,2.77-.54h5.19Zm-7.31,2.62c-.51,.44-.76,1.08-.76,1.93s.24,1.45,.73,1.9c.49,.45,1.2,.67,2.12,.67h2.93v-5.16h-2.84c-.95,0-1.68,.22-2.19,.66Z"/>
        <path class="d" d="M259.35,179.69v12.49h-2.28v-10.53h-6.48v10.53h-2.28v-12.49h11.05Z"/>
        <path class="d" d="M271.21,180.23c.8,.36,1.42,.87,1.85,1.53,.43,.67,.64,1.46,.64,2.37s-.21,1.69-.64,2.36c-.43,.67-1.04,1.19-1.85,1.54-.8,.36-1.75,.54-2.83,.54h-2.82v3.6h-2.32v-12.49h5.14c1.08,0,2.02,.18,2.83,.54Zm-.63,5.75c.52-.43,.78-1.04,.78-1.84s-.26-1.41-.78-1.84c-.52-.43-1.29-.64-2.3-.64h-2.71v4.96h2.71c1.01,0,1.78-.21,2.3-.64Z"/>
        <path class="d" d="M278.78,191.53c-1.02-.55-1.83-1.32-2.41-2.3-.58-.98-.88-2.08-.88-3.29s.29-2.31,.88-3.29c.58-.98,1.39-1.75,2.41-2.3,1.02-.55,2.17-.83,3.44-.83s2.42,.28,3.44,.83c1.02,.55,1.83,1.32,2.41,2.29,.58,.98,.88,2.08,.88,3.3s-.29,2.33-.88,3.3c-.58,.98-1.39,1.74-2.41,2.29-1.02,.55-2.17,.83-3.44,.83s-2.42-.28-3.44-.83Zm5.69-1.77c.67-.38,1.19-.9,1.57-1.57,.38-.67,.57-1.42,.57-2.26s-.19-1.58-.57-2.26c-.38-.67-.9-1.2-1.57-1.57-.67-.37-1.42-.56-2.25-.56s-1.58,.19-2.25,.56c-.67,.37-1.19,.9-1.57,1.57-.38,.67-.57,1.43-.57,2.26s.19,1.58,.57,2.26c.38,.67,.9,1.2,1.57,1.57,.67,.37,1.42,.56,2.25,.56s1.58-.19,2.25-.56Z"/>
        <path class="d" d="M301.26,190.24v1.95h-9.37v-12.49h9.12v1.95h-6.8v3.25h6.03v1.91h-6.03v3.44h7.05Z"/>
        <path class="d" d="M308.83,186.92h-2.32v5.26h-2.28v-12.49h2.28v5.23h2.39l3.59-5.23h2.46l-4.27,6.05,4.43,6.44h-2.62l-3.66-5.26Z"/>
        <path class="d" d="M326.01,181.66h-4.14v10.53h-2.3v-10.53h-4.12v-1.96h10.56v1.96Z"/>
        <path class="d" d="M339.49,179.69v12.49h-2.32v-5.35h-6.46v5.35h-2.32v-12.49h2.32v5.16h6.46v-5.16h2.32Z"/>
        <path class="d" d="M351.64,189.29h-6.25l-1.23,2.89h-2.39l5.62-12.49h2.28l5.64,12.49h-2.43l-1.25-2.89Zm-.77-1.82l-2.36-5.46-2.34,5.46h4.69Z"/>
        <path class="d" d="M366.52,179.69v12.49h-2.28v-3.48h-3.34l-2.32,3.48h-2.45l2.68-3.85c-.87-.32-1.54-.83-2.01-1.53-.47-.7-.71-1.54-.71-2.52s.21-1.77,.64-2.46c.43-.69,1.03-1.22,1.82-1.58,.78-.36,1.71-.54,2.77-.54h5.19Zm-7.31,2.62c-.51,.44-.76,1.08-.76,1.93s.24,1.45,.73,1.9c.49,.45,1.2,.67,2.12,.67h2.93v-5.16h-2.84c-.95,0-1.68,.22-2.19,.66Z"/>
        <path class="d" d="M386.77,179.69v12.49h-2.28v-10.53h-6.48v10.53h-2.28v-12.49h11.05Z"/>
        <path class="d" d="M398.63,180.23c.8,.36,1.42,.87,1.85,1.53,.43,.67,.64,1.46,.64,2.37s-.21,1.69-.64,2.36c-.43,.67-1.04,1.19-1.85,1.54-.8,.36-1.75,.54-2.83,.54h-2.82v3.6h-2.32v-12.49h5.14c1.08,0,2.02,.18,2.83,.54Zm-.63,5.75c.52-.43,.78-1.04,.78-1.84s-.26-1.41-.78-1.84c-.52-.43-1.29-.64-2.3-.64h-2.71v4.96h2.71c1.01,0,1.78-.21,2.3-.64Z"/>
        <path class="d" d="M406.21,191.53c-1.02-.55-1.83-1.32-2.41-2.3-.58-.98-.88-2.08-.88-3.29s.29-2.31,.88-3.29c.58-.98,1.39-1.75,2.41-2.3,1.02-.55,2.17-.83,3.44-.83s2.42,.28,3.44,.83c1.02,.55,1.83,1.32,2.41,2.29,.58,.98,.88,2.08,.88,3.3s-.29,2.33-.88,3.3c-.58,.98-1.39,1.74-2.41,2.29-1.02,.55-2.17,.83-3.44,.83s-2.42-.28-3.44-.83Zm5.69-1.77c.67-.38,1.19-.9,1.57-1.57,.38-.67,.57-1.42,.57-2.26s-.19-1.58-.57-2.26c-.38-.67-.9-1.2-1.57-1.57-.67-.37-1.42-.56-2.25-.56s-1.58,.19-2.25,.56c-.67,.37-1.19,.9-1.57,1.57-.38,.67-.57,1.43-.57,2.26s.19,1.58,.57,2.26c.38,.67,.9,1.2,1.57,1.57,.67,.37,1.42,.56,2.25,.56s1.58-.19,2.25-.56Z"/>
        <path class="d" d="M427.8,181.66h-6.19l.02,10.53h-2.28v-12.49h8.48l-.02,1.96Z"/>
        <path class="d" d="M438.1,180.23c.8,.36,1.42,.87,1.85,1.53,.43,.67,.64,1.46,.64,2.37s-.21,1.69-.64,2.36c-.43,.67-1.04,1.19-1.85,1.54-.8,.36-1.75,.54-2.83,.54h-2.82v3.6h-2.32v-12.49h5.14c1.08,0,2.02,.18,2.83,.54Zm-.63,5.75c.52-.43,.78-1.04,.78-1.84s-.26-1.41-.78-1.84c-.52-.43-1.29-.64-2.3-.64h-2.71v4.96h2.71c1.01,0,1.78-.21,2.3-.64Z"/>
        <path class="d" d="M450.82,189.29h-6.25l-1.23,2.89h-2.39l5.62-12.49h2.28l5.64,12.49h-2.43l-1.25-2.89Zm-.77-1.82l-2.36-5.46-2.34,5.46h4.69Z"/>
        <path class="d" d="M468.25,192.19l-.02-8.28-4.1,6.85h-1.03l-4.1-6.74v8.17h-2.19v-12.49h1.91l4.94,8.26,4.89-8.26h1.89l.04,12.49h-2.21Z"/>
        <path class="d" d="M485.81,192.19l-.02-8.28-4.1,6.85h-1.03l-4.1-6.74v8.17h-2.19v-12.49h1.91l4.94,8.26,4.89-8.26h1.89l.04,12.49h-2.21Z"/>
        <path class="d" d="M500.17,189.29h-6.25l-1.23,2.89h-2.39l5.62-12.49h2.28l5.64,12.49h-2.43l-1.25-2.89Zm-.77-1.82l-2.36-5.46-2.34,5.46h4.69Z"/>
      </g>
      <g>
        <path class="d" d="M248.3,.98h43.06V11.71h-29.39v7.92h14.74c5.93,0,10.49,1.26,13.67,3.78,3.18,2.52,4.77,6.15,4.77,10.87,0,4.95-1.78,8.82-5.33,11.6-3.55,2.78-8.53,4.17-14.93,4.17h-26.59V.98Zm25.68,39.11c2.34,0,4.11-.47,5.33-1.4,1.21-.93,1.82-2.27,1.82-4,0-3.46-2.38-5.19-7.15-5.19h-12.01v10.58h12.01Z"/>
        <path class="d" d="M314.41,47.74c-4.14-2.2-7.38-5.23-9.74-9.11-2.36-3.88-3.54-8.25-3.54-13.11s1.18-9.23,3.54-13.11c2.36-3.88,5.61-6.91,9.74-9.11,4.14-2.2,8.8-3.3,13.98-3.3s9.85,1.1,13.98,3.3c4.14,2.2,7.38,5.23,9.74,9.11,2.36,3.88,3.54,8.25,3.54,13.11s-1.18,9.23-3.54,13.11c-2.36,3.88-5.61,6.92-9.74,9.11-4.14,2.2-8.8,3.29-13.98,3.29s-9.85-1.1-13.98-3.29Zm20.71-9.95c2.01-1.17,3.6-2.81,4.77-4.94,1.17-2.13,1.75-4.57,1.75-7.32s-.58-5.2-1.75-7.33c-1.17-2.13-2.76-3.77-4.77-4.94-2.01-1.17-4.25-1.75-6.73-1.75s-4.72,.59-6.73,1.75c-2.01,1.17-3.6,2.82-4.77,4.94-1.17,2.13-1.75,4.57-1.75,7.33s.58,5.2,1.75,7.32c1.17,2.13,2.76,3.77,4.77,4.94,2.01,1.17,4.25,1.75,6.73,1.75s4.72-.58,6.73-1.75Z"/>
        <path class="d" d="M410.27,.98V50.05h-13.67V11.99h-14.64s-.53,20.7-1.44,25.09c-.91,4.39-2.46,7.79-4.66,10.2-2.2,2.41-5.3,3.61-9.32,3.61-1.87,0-6.28-.57-8.6-1.87l3.5-12.04c.61,.14,3.88,2.15,5.66-.25,1.04-1.4,1.68-3.47,2.1-6.06,.42-2.59,.14-29.69,.14-29.69h40.93Z"/>
        <path class="d" d="M462.63,20.64c3.27,2.69,4.91,6.67,4.91,11.95,0,5.66-1.82,9.98-5.47,12.97-3.64,2.99-8.72,4.49-15.21,4.49h-25.26V.98h13.67v15.63h13.41c6.03,0,10.68,1.34,13.95,4.03Zm-11.11,17.56c1.38-1.26,2.07-3.04,2.07-5.33,0-4.25-2.55-6.38-7.64-6.38h-10.68v13.6h10.68c2.34,0,4.19-.63,5.57-1.89Z"/>
        <path class="d" d="M541.74,.98V50.05h-66.52V.98h13.67V39.04h12.83V.98h13.67V39.04h12.69V.98h13.67Z"/>
        <path class="d" d="M553.9,.98h13.67V29.79L587.82,.98h13.04V50.05h-13.67V21.31l-20.19,28.74h-13.11V.98Z"/>
        <path class="d" d="M652.75,39.32v10.72h-40.15V.98h39.24V11.71h-25.5v8.27h22.55v10.37h-22.55v8.97h26.41Z"/>
        <path class="d" d="M292.73,96.42c1.52,1.96,2.28,4.39,2.28,7.29,0,4.35-1.69,7.77-5.08,10.27-3.39,2.5-8.19,3.75-14.4,3.75h-27.22v-49.07h25.89c5.89,0,10.45,1.11,13.7,3.33,3.25,2.22,4.87,5.36,4.87,9.43,0,2.38-.57,4.49-1.72,6.31-1.14,1.82-2.79,3.27-4.94,4.35,2.9,.93,5.11,2.38,6.62,4.35Zm-30.76-8.13h10.89c3.93,0,5.89-1.61,5.89-4.84s-1.96-4.84-5.89-4.84h-10.89v9.67Zm19.02,14.37c0-3.32-2.01-4.98-6.03-4.98h-12.99v10.09h12.99c4.02,0,6.03-1.71,6.03-5.12Z"/>
        <path class="d" d="M344.29,88.32c3.27,2.69,4.91,6.67,4.91,11.95,0,5.66-1.82,9.98-5.47,12.97-3.64,2.99-8.72,4.49-15.21,4.49h-25.26v-49.07h13.67v15.63h13.41c6.03,0,10.68,1.34,13.95,4.03Zm-11.11,17.56c1.38-1.26,2.07-3.04,2.07-5.33,0-4.25-2.55-6.38-7.64-6.38h-10.68v13.6h10.68c2.34,0,4.19-.63,5.57-1.89Zm21.41-37.22h13.67v49.07h-13.67v-49.07Z"/>
        <path class="d" d="M445.95,115.41c-4.14-2.2-7.38-5.23-9.74-9.11-2.36-3.88-3.54-8.25-3.54-13.11s1.18-9.23,3.54-13.11c2.36-3.88,5.61-6.91,9.74-9.11,4.14-2.2,8.8-3.3,13.98-3.3s9.85,1.1,13.98,3.3,7.38,5.23,9.74,9.11c2.36,3.88,3.54,8.25,3.54,13.11s-1.18,9.23-3.54,13.11c-2.36,3.88-5.61,6.92-9.74,9.11-4.14,2.2-8.8,3.29-13.98,3.29s-9.85-1.1-13.98-3.29Zm20.71-9.95c2.01-1.17,3.6-2.81,4.77-4.94,1.17-2.13,1.75-4.57,1.75-7.32s-.58-5.2-1.75-7.33c-1.17-2.13-2.76-3.77-4.77-4.94-2.01-1.17-4.25-1.75-6.73-1.75s-4.72,.59-6.73,1.75c-2.01,1.17-3.6,2.82-4.77,4.94-1.17,2.13-1.75,4.57-1.75,7.33s.58,5.2,1.75,7.32c1.17,2.13,2.76,3.77,4.77,4.94,2.01,1.17,4.25,1.75,6.73,1.75s4.72-.58,6.73-1.75Z"/>
        <rect class="d" x="248.3" y="137.13" width="405.27" height="3.93"/>
        <path class="d" d="M541.39,96.42c1.52,1.96,2.28,4.39,2.28,7.29,0,4.35-1.69,7.77-5.08,10.27-3.39,2.5-8.19,3.75-14.4,3.75h-27.22v-49.07h25.89c5.89,0,10.45,1.11,13.7,3.33,3.25,2.22,4.87,5.36,4.87,9.43,0,2.38-.57,4.49-1.72,6.31-1.14,1.82-2.79,3.27-4.94,4.35,2.9,.93,5.11,2.38,6.62,4.35Zm-30.76-8.13h10.89c3.93,0,5.89-1.61,5.89-4.84s-1.96-4.84-5.89-4.84h-10.89v9.67Zm19.02,14.37c0-3.32-2.01-4.98-6.03-4.98h-12.99v10.09h12.99c4.02,0,6.03-1.71,6.03-5.12Z"/>
        <path class="d" d="M592.94,88.32c3.27,2.69,4.91,6.67,4.91,11.95,0,5.66-1.82,9.98-5.47,12.97-3.64,2.99-8.72,4.49-15.21,4.49h-25.26v-49.07h13.67v15.63h13.41c6.03,0,10.68,1.34,13.95,4.03Zm-11.11,17.56c1.38-1.26,2.07-3.04,2.07-5.33,0-4.25-2.55-6.38-7.64-6.38h-10.68v13.6h10.68c2.34,0,4.19-.63,5.57-1.89Zm21.41-37.22h13.67v49.07h-13.67v-49.07Z"/>
        <path class="d" d="M401.21,118.78c-18.5,0-23.72-11.04-24.14-13.76l13.22-3.32c.29,2.05,1.34,3.6,3.15,4.67,1.81,1.07,4.4,1.6,7.77,1.6,3.12,0,5.52-.41,7.19-1.24,1.66-.83,2.5-2.48,2.5-4.14,0-1.48-.74-3.36-2.22-3.99-1.48-.63-3.89-.95-7.22-.95h-8.2v-9.32h8.02c1.97,0,3.59-.16,4.84-.49,1.25-.33,2.19-.83,2.81-1.5,.62-.68,.99-2.29,.99-3.21,0-1-.41-2.59-1.09-3.27s-1.66-1.19-2.93-1.54-2.84-.45-4.69-.52c-6.57-.27-9.03,2.02-10.49,5.14l-12.01-3.77c2.09-4.5,6.08-7.66,9.76-9.25,3.68-1.59,8.15-2.39,13.42-2.39,4.52,0,8.47,.59,11.84,1.77,3.37,1.18,5.99,2.8,7.86,4.87,1.87,2.07,2.81,4.48,2.81,7.22,0,2.22-.62,4.25-1.85,6.08-1.23,1.83-3.22,3.29-5.95,4.38-.96,.38-2.03,.69-3.2,.94-2.16,.45-2.19-.81,.06-.5,1.04,.14,2.02,.34,2.95,.58,2.94,.76,5.2,2,6.79,3.73,1.58,1.72,2.38,3.98,2.38,6.76,0,3.01-.95,5.66-2.84,7.97-1.89,2.31-4.65,4.13-8.27,5.46-3.62,1.33-8.04,1.99-13.26,1.99Z"/>
        <g>
          <path class="d" d="M94.27,120.94c4.32-5.19,5.84-11.34,4.55-18.45-1.98-10.9-10.02-15.07-24.13-12.5l-22.2,4.03-.02,41.12,22.29-4.05c8.68-1.58,15.18-4.96,19.51-10.15Z"/>
          <path class="d" d="M195.21,112.41c-1.4-7.7-4.92-16.8-9.52-21.68-4.61-4.88-11.61-9.09-18.81-11.1,7.94-5.58,13.69-12.39,17.24-20.41,3.55-8.02,4.47-16.76,2.75-26.23-2.33-12.84-8.84-21.89-19.51-27.16-9.74-4.8-22.58-6.01-38.47-3.7l-.07,20.74-75.51,13.72,.02,20.95,27.81-5.05c16.66-3.03,30.3-1.2,40.92,5.49,10.61,6.69,17.3,17.63,20.06,32.82,2.31,12.69,1.1,24.33-3.6,34.92-4.71,10.6-12.56,19.53-23.56,26.78-11,7.26-24.61,12.36-40.81,15.31L0,181.28l52.29,16.42,80.33-14.6c21.16-3.85,37.65-11.48,49.47-22.91,11.81-11.43,16.36-29.96,13.12-47.77Z"/>
        </g>
      </g>
    </g>
  </g>
</svg>