%TF.GenerationSoftware,KiCad,Pcbnew,10.0.4*%
%TF.CreationDate,2026-07-17T14:36:31+03:00*%
%TF.ProjectId,________ _____,22354142-3e32-4304-9f20-3f3b3042302e,rev?*%
%TF.SameCoordinates,Original*%
%TF.FileFunction,Copper,L1,Top*%
%TF.FilePolarity,Positive*%
%FSLAX46Y46*%
G04 Gerber Fmt 4.6, Leading zero omitted, Abs format (unit mm)*
G04 Created by KiCad (PCBNEW 10.0.4) date 2026-07-17 14:36:31*
%MOMM*%
%LPD*%
G01*
G04 APERTURE LIST*
G04 Aperture macros list*
%AMRoundRect*
0 Rectangle with rounded corners*
0 $1 Rounding radius*
0 $2 $3 $4 $5 $6 $7 $8 $9 X,Y pos of 4 corners*
0 Add a 4 corners polygon primitive as box body*
4,1,4,$2,$3,$4,$5,$6,$7,$8,$9,$2,$3,0*
0 Add four circle primitives for the rounded corners*
1,1,$1+$1,$2,$3*
1,1,$1+$1,$4,$5*
1,1,$1+$1,$6,$7*
1,1,$1+$1,$8,$9*
0 Add four rect primitives between the rounded corners*
20,1,$1+$1,$2,$3,$4,$5,0*
20,1,$1+$1,$4,$5,$6,$7,0*
20,1,$1+$1,$6,$7,$8,$9,0*
20,1,$1+$1,$8,$9,$2,$3,0*%
%AMOutline4P*
0 Free polygon, 4 corners , with rotation*
0 The origin of the aperture is its center*
0 number of corners: always 4*
0 $1 to $8 corner X, Y*
0 $9 Rotation angle, in degrees counterclockwise*
0 create outline with 4 corners*
4,1,4,$1,$2,$3,$4,$5,$6,$7,$8,$1,$2,$9*%
G04 Aperture macros list end*
%TA.AperFunction,NonConductor*%
%ADD10C,0.500000*%
%TD*%
%TA.AperFunction,NonConductor*%
%ADD11C,1.000000*%
%TD*%
%ADD12C,0.300000*%
%TA.AperFunction,NonConductor*%
%ADD13C,0.300000*%
%TD*%
%ADD14C,0.250000*%
%TA.AperFunction,EtchedComponent*%
%ADD15C,1.100000*%
%TD*%
%TA.AperFunction,EtchedComponent*%
%ADD16C,0.000000*%
%TD*%
%TA.AperFunction,SMDPad,CuDef*%
%ADD17RoundRect,0.062500X-0.062500X0.362500X-0.062500X-0.362500X0.062500X-0.362500X0.062500X0.362500X0*%
%TD*%
%TA.AperFunction,SMDPad,CuDef*%
%ADD18RoundRect,0.062500X-0.362500X0.062500X-0.362500X-0.062500X0.362500X-0.062500X0.362500X0.062500X0*%
%TD*%
%TA.AperFunction,SMDPad,CuDef*%
%ADD19O,0.800000X0.800000*%
%TD*%
%TA.AperFunction,SMDPad,CuDef*%
%ADD20R,1.600200X2.000000*%
%TD*%
%TA.AperFunction,SMDPad,CuDef*%
%ADD21R,1.270000X1.470700*%
%TD*%
%TA.AperFunction,ComponentPad*%
%ADD22O,1.300000X1.300000*%
%TD*%
%TA.AperFunction,SMDPad,CuDef*%
%ADD23C,1.000000*%
%TD*%
%TA.AperFunction,SMDPad,CuDef*%
%ADD24R,2.000000X1.600200*%
%TD*%
%TA.AperFunction,BGAPad,CuDef*%
%ADD25C,0.400000*%
%TD*%
%TA.AperFunction,SMDPad,CuDef*%
%ADD26R,1.500000X3.000000*%
%TD*%
%TA.AperFunction,SMDPad,CuDef*%
%ADD27R,10.100000X10.000000*%
%TD*%
%TA.AperFunction,ComponentPad*%
%ADD28O,1.800000X1.800000*%
%TD*%
%TA.AperFunction,SMDPad,CuDef*%
%ADD29O,0.700000X2.200000*%
%TD*%
%TA.AperFunction,SMDPad,CuDef*%
%ADD30C,1.500000*%
%TD*%
%TA.AperFunction,SMDPad,CuDef*%
%ADD31R,1.300000X0.700000*%
%TD*%
%TA.AperFunction,SMDPad,CuDef*%
%ADD32R,1.700000X0.900000*%
%TD*%
%TA.AperFunction,SMDPad,CuDef*%
%ADD33R,0.900000X0.500000*%
%TD*%
%TA.AperFunction,ComponentPad*%
%ADD34O,1.524000X1.524000*%
%TD*%
%TA.AperFunction,SMDPad,CuDef*%
%ADD35R,0.800100X0.800100*%
%TD*%
%TA.AperFunction,ComponentPad*%
%ADD36O,1.400000X1.400000*%
%TD*%
%TA.AperFunction,ComponentPad*%
%ADD37O,2.200000X2.200000*%
%TD*%
%TA.AperFunction,SMDPad,CuDef*%
%ADD38R,0.900000X1.200000*%
%TD*%
%TA.AperFunction,SMDPad,CuDef*%
%ADD39O,2.200000X0.700000*%
%TD*%
%TA.AperFunction,SMDPad,CuDef*%
%ADD40R,5.000000X2.500000*%
%TD*%
%TA.AperFunction,SMDPad,CuDef*%
%ADD41R,1.100000X4.600000*%
%TD*%
%TA.AperFunction,SMDPad,CuDef*%
%ADD42RoundRect,1.504000X-3.896000X3.196000X-3.896000X-3.196000X3.896000X-3.196000X3.896000X3.196000X0*%
%TD*%
%TA.AperFunction,SMDPad,CuDef*%
%ADD43RoundRect,0.075000X0.075000X-0.362500X0.075000X0.362500X-0.075000X0.362500X-0.075000X-0.362500X0*%
%TD*%
%TA.AperFunction,SMDPad,CuDef*%
%ADD44RoundRect,0.075000X0.362500X-0.075000X0.362500X0.075000X-0.362500X0.075000X-0.362500X-0.075000X0*%
%TD*%
%TA.AperFunction,HeatsinkPad*%
%ADD45C,0.600000*%
%TD*%
%TA.AperFunction,HeatsinkPad*%
%ADD46R,2.350000X2.350000*%
%TD*%
%TA.AperFunction,SMDPad,CuDef*%
%ADD47R,1.198880X1.198880*%
%TD*%
%TA.AperFunction,SMDPad,CuDef*%
%ADD48R,1.016000X2.032000*%
%TD*%
%TA.AperFunction,SMDPad,CuDef*%
%ADD49R,3.657600X2.032000*%
%TD*%
%TA.AperFunction,SMDPad,CuDef*%
%ADD50R,0.797560X0.797560*%
%TD*%
%TA.AperFunction,SMDPad,CuDef*%
%ADD51R,1.300000X1.500000*%
%TD*%
%TA.AperFunction,SMDPad,CuDef*%
%ADD52R,1.700000X2.000000*%
%TD*%
%TA.AperFunction,SMDPad,CuDef*%
%ADD53R,3.200400X1.999000*%
%TD*%
%TA.AperFunction,SMDPad,CuDef*%
%ADD54R,1.300000X0.250000*%
%TD*%
%TA.AperFunction,SMDPad,CuDef*%
%ADD55R,0.250000X1.300000*%
%TD*%
%TA.AperFunction,SMDPad,CuDef*%
%ADD56R,2.600000X1.800000*%
%TD*%
%TA.AperFunction,SMDPad,CuDef*%
%ADD57R,1.060000X0.650000*%
%TD*%
%TA.AperFunction,ComponentPad*%
%ADD58O,2.500000X2.500000*%
%TD*%
%TA.AperFunction,SMDPad,CuDef*%
%ADD59R,1.999000X3.200400*%
%TD*%
%TA.AperFunction,ComponentPad*%
%ADD60R,2.000000X2.000000*%
%TD*%
%TA.AperFunction,ComponentPad*%
%ADD61O,2.000000X2.000000*%
%TD*%
%TA.AperFunction,SMDPad,CuDef*%
%ADD62R,1.200000X0.280000*%
%TD*%
%TA.AperFunction,SMDPad,CuDef*%
%ADD63R,0.280000X1.200000*%
%TD*%
%TA.AperFunction,SMDPad,CuDef*%
%ADD64R,1.800860X1.597660*%
%TD*%
%TA.AperFunction,SMDPad,CuDef*%
%ADD65R,1.300000X2.000000*%
%TD*%
%TA.AperFunction,SMDPad,CuDef*%
%ADD66R,0.700000X1.250000*%
%TD*%
%TA.AperFunction,SMDPad,CuDef*%
%ADD67R,1.500000X0.700000*%
%TD*%
%TA.AperFunction,SMDPad,CuDef*%
%ADD68R,1.500000X1.000000*%
%TD*%
%TA.AperFunction,SMDPad,CuDef*%
%ADD69Outline4P,-1.000000X-0.375000X1.000000X-0.375000X0.500000X0.375000X-0.500000X0.375000X90.000000*%
%TD*%
%TA.AperFunction,SMDPad,CuDef*%
%ADD70R,0.800000X2.000000*%
%TD*%
%TA.AperFunction,SMDPad,CuDef*%
%ADD71Outline4P,-1.000000X-0.375000X1.000000X-0.375000X0.500000X0.375000X-0.500000X0.375000X270.000000*%
%TD*%
%TA.AperFunction,SMDPad,CuDef*%
%ADD72R,0.508000X1.143000*%
%TD*%
%TA.AperFunction,SMDPad,CuDef*%
%ADD73R,1.397000X0.431800*%
%TD*%
%TA.AperFunction,SMDPad,CuDef*%
%ADD74R,1.400000X2.200000*%
%TD*%
%TA.AperFunction,SMDPad,CuDef*%
%ADD75R,1.500000X0.300000*%
%TD*%
%TA.AperFunction,SMDPad,CuDef*%
%ADD76R,0.300000X1.500000*%
%TD*%
%TA.AperFunction,ComponentPad*%
%ADD77O,4.000000X3.000000*%
%TD*%
%TA.AperFunction,ComponentPad*%
%ADD78O,3.000000X3.000000*%
%TD*%
%TA.AperFunction,ViaPad*%
%ADD79C,0.900000*%
%TD*%
%TA.AperFunction,ViaPad*%
%ADD80C,1.400000*%
%TD*%
%TA.AperFunction,ViaPad*%
%ADD81C,1.500000*%
%TD*%
%TA.AperFunction,ViaPad*%
%ADD82C,1.300000*%
%TD*%
%TA.AperFunction,ViaPad*%
%ADD83C,0.700000*%
%TD*%
%TA.AperFunction,ViaPad*%
%ADD84C,0.600000*%
%TD*%
%TA.AperFunction,ViaPad*%
%ADD85C,1.100000*%
%TD*%
%TA.AperFunction,ViaPad*%
%ADD86C,0.800000*%
%TD*%
%TA.AperFunction,ViaPad*%
%ADD87C,1.200000*%
%TD*%
%TA.AperFunction,ViaPad*%
%ADD88C,1.000000*%
%TD*%
%TA.AperFunction,Conductor*%
%ADD89C,0.200000*%
%TD*%
%TA.AperFunction,Conductor*%
%ADD90C,1.300000*%
%TD*%
%TA.AperFunction,Conductor*%
%ADD91C,1.500000*%
%TD*%
%TA.AperFunction,Conductor*%
%ADD92C,1.100000*%
%TD*%
%TA.AperFunction,Conductor*%
%ADD93C,0.500000*%
%TD*%
%TA.AperFunction,Conductor*%
%ADD94C,0.900000*%
%TD*%
%TA.AperFunction,Conductor*%
%ADD95C,0.400000*%
%TD*%
%TA.AperFunction,Conductor*%
%ADD96C,0.700000*%
%TD*%
%TA.AperFunction,Conductor*%
%ADD97C,0.800000*%
%TD*%
%TA.AperFunction,Conductor*%
%ADD98C,0.100000*%
%TD*%
%TA.AperFunction,Conductor*%
%ADD99C,0.600000*%
%TD*%
%TA.AperFunction,Conductor*%
%ADD100C,1.000000*%
%TD*%
%TA.AperFunction,Conductor*%
%ADD101C,1.200000*%
%TD*%
%TA.AperFunction,Conductor*%
%ADD102C,0.300000*%
%TD*%
%TA.AperFunction,Conductor*%
%ADD103C,1.400000*%
%TD*%
%TA.AperFunction,Conductor*%
%ADD104C,5.200000*%
%TD*%
%TA.AperFunction,Conductor*%
%ADD105C,10.300000*%
%TD*%
%TA.AperFunction,Conductor*%
%ADD106C,1.800000*%
%TD*%
%TA.AperFunction,Conductor*%
%ADD107C,1.600000*%
%TD*%
%TA.AperFunction,Conductor*%
%ADD108C,2.000000*%
%TD*%
%TA.AperFunction,Profile*%
%ADD109C,0.050000*%
%TD*%
%TA.AperFunction,Profile*%
%ADD110C,0.100000*%
%TD*%
G04 APERTURE END LIST*
D10*
X37599000Y-127001000D02*
G75*
G02*
X31599000Y-127001000I-3000000J0D01*
G01*
X31599000Y-127001000D02*
G75*
G02*
X37599000Y-127001000I3000000J0D01*
G01*
X38599000Y-28001000D02*
G75*
G02*
X32599000Y-28001000I-3000000J0D01*
G01*
X32599000Y-28001000D02*
G75*
G02*
X38599000Y-28001000I3000000J0D01*
G01*
X38599000Y-218501000D02*
G75*
G02*
X32599000Y-218501000I-3000000J0D01*
G01*
X32599000Y-218501000D02*
G75*
G02*
X38599000Y-218501000I3000000J0D01*
G01*
D11*
X50618498Y-200626200D02*
X78118498Y-200626200D01*
X78118498Y-207126200D01*
X50618498Y-207126200D01*
X50618498Y-200626200D01*
%TA.AperFunction,NonConductor*%
G36*
X50618498Y-200626200D02*
G01*
X78118498Y-200626200D01*
X78118498Y-207126200D01*
X50618498Y-207126200D01*
X50618498Y-200626200D01*
G37*
%TD.AperFunction*%
D10*
X107599000Y-27501000D02*
G75*
G02*
X101599000Y-27501000I-3000000J0D01*
G01*
X101599000Y-27501000D02*
G75*
G02*
X107599000Y-27501000I3000000J0D01*
G01*
X111599000Y-218001000D02*
G75*
G02*
X105599000Y-218001000I-3000000J0D01*
G01*
X105599000Y-218001000D02*
G75*
G02*
X111599000Y-218001000I3000000J0D01*
G01*
X178099000Y-126501000D02*
G75*
G02*
X172099000Y-126501000I-3000000J0D01*
G01*
X172099000Y-126501000D02*
G75*
G02*
X178099000Y-126501000I3000000J0D01*
G01*
X178599000Y-28001000D02*
G75*
G02*
X172599000Y-28001000I-3000000J0D01*
G01*
X172599000Y-28001000D02*
G75*
G02*
X178599000Y-28001000I3000000J0D01*
G01*
X179099000Y-218001000D02*
G75*
G02*
X173099000Y-218001000I-3000000J0D01*
G01*
X173099000Y-218001000D02*
G75*
G02*
X179099000Y-218001000I3000000J0D01*
G01*
D12*
D13*
X49487925Y-181427028D02*
X49630782Y-181427028D01*
X49630782Y-181427028D02*
X49773639Y-181498457D01*
X49773639Y-181498457D02*
X49845068Y-181569885D01*
X49845068Y-181569885D02*
X49916496Y-181712742D01*
X49916496Y-181712742D02*
X49987925Y-181998457D01*
X49987925Y-181998457D02*
X49987925Y-182355600D01*
X49987925Y-182355600D02*
X49916496Y-182641314D01*
X49916496Y-182641314D02*
X49845068Y-182784171D01*
X49845068Y-182784171D02*
X49773639Y-182855600D01*
X49773639Y-182855600D02*
X49630782Y-182927028D01*
X49630782Y-182927028D02*
X49487925Y-182927028D01*
X49487925Y-182927028D02*
X49345068Y-182855600D01*
X49345068Y-182855600D02*
X49273639Y-182784171D01*
X49273639Y-182784171D02*
X49202210Y-182641314D01*
X49202210Y-182641314D02*
X49130782Y-182355600D01*
X49130782Y-182355600D02*
X49130782Y-181998457D01*
X49130782Y-181998457D02*
X49202210Y-181712742D01*
X49202210Y-181712742D02*
X49273639Y-181569885D01*
X49273639Y-181569885D02*
X49345068Y-181498457D01*
X49345068Y-181498457D02*
X49487925Y-181427028D01*
X50630781Y-182784171D02*
X50702210Y-182855600D01*
X50702210Y-182855600D02*
X50630781Y-182927028D01*
X50630781Y-182927028D02*
X50559353Y-182855600D01*
X50559353Y-182855600D02*
X50630781Y-182784171D01*
X50630781Y-182784171D02*
X50630781Y-182927028D01*
X52130782Y-182927028D02*
X51273639Y-182927028D01*
X51702210Y-182927028D02*
X51702210Y-181427028D01*
X51702210Y-181427028D02*
X51559353Y-181641314D01*
X51559353Y-181641314D02*
X51416496Y-181784171D01*
X51416496Y-181784171D02*
X51273639Y-181855600D01*
D12*
D13*
X50673008Y-198141314D02*
X50887294Y-198212742D01*
X50887294Y-198212742D02*
X50958723Y-198284171D01*
X50958723Y-198284171D02*
X51030151Y-198427028D01*
X51030151Y-198427028D02*
X51030151Y-198641314D01*
X51030151Y-198641314D02*
X50958723Y-198784171D01*
X50958723Y-198784171D02*
X50887294Y-198855600D01*
X50887294Y-198855600D02*
X50744437Y-198927028D01*
X50744437Y-198927028D02*
X50173008Y-198927028D01*
X50173008Y-198927028D02*
X50173008Y-197427028D01*
X50173008Y-197427028D02*
X50673008Y-197427028D01*
X50673008Y-197427028D02*
X50815866Y-197498457D01*
X50815866Y-197498457D02*
X50887294Y-197569885D01*
X50887294Y-197569885D02*
X50958723Y-197712742D01*
X50958723Y-197712742D02*
X50958723Y-197855600D01*
X50958723Y-197855600D02*
X50887294Y-197998457D01*
X50887294Y-197998457D02*
X50815866Y-198069885D01*
X50815866Y-198069885D02*
X50673008Y-198141314D01*
X50673008Y-198141314D02*
X50173008Y-198141314D01*
X51673008Y-197927028D02*
X51673008Y-199427028D01*
X51673008Y-197998457D02*
X51815866Y-197927028D01*
X51815866Y-197927028D02*
X52101580Y-197927028D01*
X52101580Y-197927028D02*
X52244437Y-197998457D01*
X52244437Y-197998457D02*
X52315866Y-198069885D01*
X52315866Y-198069885D02*
X52387294Y-198212742D01*
X52387294Y-198212742D02*
X52387294Y-198641314D01*
X52387294Y-198641314D02*
X52315866Y-198784171D01*
X52315866Y-198784171D02*
X52244437Y-198855600D01*
X52244437Y-198855600D02*
X52101580Y-198927028D01*
X52101580Y-198927028D02*
X51815866Y-198927028D01*
X51815866Y-198927028D02*
X51673008Y-198855600D01*
X53601580Y-198855600D02*
X53458723Y-198927028D01*
X53458723Y-198927028D02*
X53173009Y-198927028D01*
X53173009Y-198927028D02*
X53030151Y-198855600D01*
X53030151Y-198855600D02*
X52958723Y-198712742D01*
X52958723Y-198712742D02*
X52958723Y-198141314D01*
X52958723Y-198141314D02*
X53030151Y-197998457D01*
X53030151Y-197998457D02*
X53173009Y-197927028D01*
X53173009Y-197927028D02*
X53458723Y-197927028D01*
X53458723Y-197927028D02*
X53601580Y-197998457D01*
X53601580Y-197998457D02*
X53673009Y-198141314D01*
X53673009Y-198141314D02*
X53673009Y-198284171D01*
X53673009Y-198284171D02*
X52958723Y-198427028D01*
X54315865Y-198927028D02*
X54315865Y-197927028D01*
X54315865Y-197927028D02*
X54744437Y-198712742D01*
X54744437Y-198712742D02*
X55173008Y-197927028D01*
X55173008Y-197927028D02*
X55173008Y-198927028D01*
X56173009Y-198498457D02*
X55815866Y-198927028D01*
X56458723Y-198927028D02*
X56458723Y-197927028D01*
X56458723Y-197927028D02*
X56030152Y-197927028D01*
X56030152Y-197927028D02*
X55887294Y-197998457D01*
X55887294Y-197998457D02*
X55815866Y-198141314D01*
X55815866Y-198141314D02*
X55815866Y-198284171D01*
X55815866Y-198284171D02*
X55887294Y-198427028D01*
X55887294Y-198427028D02*
X56030152Y-198498457D01*
X56030152Y-198498457D02*
X56458723Y-198498457D01*
X58101580Y-197927028D02*
X58815865Y-197927028D01*
X58458723Y-197927028D02*
X58458723Y-198927028D01*
X59315865Y-197927028D02*
X59315865Y-199427028D01*
X59315865Y-197998457D02*
X59458723Y-197927028D01*
X59458723Y-197927028D02*
X59744437Y-197927028D01*
X59744437Y-197927028D02*
X59887294Y-197998457D01*
X59887294Y-197998457D02*
X59958723Y-198069885D01*
X59958723Y-198069885D02*
X60030151Y-198212742D01*
X60030151Y-198212742D02*
X60030151Y-198641314D01*
X60030151Y-198641314D02*
X59958723Y-198784171D01*
X59958723Y-198784171D02*
X59887294Y-198855600D01*
X59887294Y-198855600D02*
X59744437Y-198927028D01*
X59744437Y-198927028D02*
X59458723Y-198927028D01*
X59458723Y-198927028D02*
X59315865Y-198855600D01*
X61315866Y-198927028D02*
X61315866Y-198141314D01*
X61315866Y-198141314D02*
X61244437Y-197998457D01*
X61244437Y-197998457D02*
X61101580Y-197927028D01*
X61101580Y-197927028D02*
X60815866Y-197927028D01*
X60815866Y-197927028D02*
X60673008Y-197998457D01*
X61315866Y-198855600D02*
X61173008Y-198927028D01*
X61173008Y-198927028D02*
X60815866Y-198927028D01*
X60815866Y-198927028D02*
X60673008Y-198855600D01*
X60673008Y-198855600D02*
X60601580Y-198712742D01*
X60601580Y-198712742D02*
X60601580Y-198569885D01*
X60601580Y-198569885D02*
X60673008Y-198427028D01*
X60673008Y-198427028D02*
X60815866Y-198355600D01*
X60815866Y-198355600D02*
X61173008Y-198355600D01*
X61173008Y-198355600D02*
X61315866Y-198284171D01*
X62387294Y-198427028D02*
X62601580Y-198498457D01*
X62601580Y-198498457D02*
X62673009Y-198641314D01*
X62673009Y-198641314D02*
X62673009Y-198712742D01*
X62673009Y-198712742D02*
X62601580Y-198855600D01*
X62601580Y-198855600D02*
X62458723Y-198927028D01*
X62458723Y-198927028D02*
X62030151Y-198927028D01*
X62030151Y-198927028D02*
X62030151Y-197927028D01*
X62030151Y-197927028D02*
X62387294Y-197927028D01*
X62387294Y-197927028D02*
X62530151Y-197998457D01*
X62530151Y-197998457D02*
X62601580Y-198141314D01*
X62601580Y-198141314D02*
X62601580Y-198212742D01*
X62601580Y-198212742D02*
X62530151Y-198355600D01*
X62530151Y-198355600D02*
X62387294Y-198427028D01*
X62387294Y-198427028D02*
X62030151Y-198427028D01*
X63887294Y-198927028D02*
X63887294Y-197927028D01*
X63887294Y-197927028D02*
X63673008Y-197927028D01*
X63673008Y-197927028D02*
X63530151Y-197998457D01*
X63530151Y-197998457D02*
X63458723Y-198141314D01*
X63458723Y-198141314D02*
X63387294Y-198712742D01*
X63387294Y-198712742D02*
X63315865Y-198855600D01*
X63315865Y-198855600D02*
X63173008Y-198927028D01*
X65173008Y-198855600D02*
X65030151Y-198927028D01*
X65030151Y-198927028D02*
X64744437Y-198927028D01*
X64744437Y-198927028D02*
X64601579Y-198855600D01*
X64601579Y-198855600D02*
X64530151Y-198712742D01*
X64530151Y-198712742D02*
X64530151Y-198141314D01*
X64530151Y-198141314D02*
X64601579Y-197998457D01*
X64601579Y-197998457D02*
X64744437Y-197927028D01*
X64744437Y-197927028D02*
X65030151Y-197927028D01*
X65030151Y-197927028D02*
X65173008Y-197998457D01*
X65173008Y-197998457D02*
X65244437Y-198141314D01*
X65244437Y-198141314D02*
X65244437Y-198284171D01*
X65244437Y-198284171D02*
X64530151Y-198427028D01*
X65887293Y-198427028D02*
X66530151Y-198427028D01*
X65887293Y-197927028D02*
X65887293Y-198927028D01*
X66530151Y-197927028D02*
X66530151Y-198927028D01*
X67244436Y-197927028D02*
X67244436Y-198927028D01*
X67244436Y-198927028D02*
X67958722Y-197927028D01*
X67958722Y-197927028D02*
X67958722Y-198927028D01*
X68958722Y-198498457D02*
X68601579Y-198927028D01*
X69244436Y-198927028D02*
X69244436Y-197927028D01*
X69244436Y-197927028D02*
X68815865Y-197927028D01*
X68815865Y-197927028D02*
X68673007Y-197998457D01*
X68673007Y-197998457D02*
X68601579Y-198141314D01*
X68601579Y-198141314D02*
X68601579Y-198284171D01*
X68601579Y-198284171D02*
X68673007Y-198427028D01*
X68673007Y-198427028D02*
X68815865Y-198498457D01*
X68815865Y-198498457D02*
X69244436Y-198498457D01*
X69958721Y-198784171D02*
X70030150Y-198855600D01*
X70030150Y-198855600D02*
X69958721Y-198927028D01*
X69958721Y-198927028D02*
X69887293Y-198855600D01*
X69887293Y-198855600D02*
X69958721Y-198784171D01*
X69958721Y-198784171D02*
X69958721Y-198927028D01*
X69958721Y-197998457D02*
X70030150Y-198069885D01*
X70030150Y-198069885D02*
X69958721Y-198141314D01*
X69958721Y-198141314D02*
X69887293Y-198069885D01*
X69887293Y-198069885D02*
X69958721Y-197998457D01*
X69958721Y-197998457D02*
X69958721Y-198141314D01*
D12*
D13*
X55487925Y-178927028D02*
X55630782Y-178927028D01*
X55630782Y-178927028D02*
X55773639Y-178998457D01*
X55773639Y-178998457D02*
X55845068Y-179069885D01*
X55845068Y-179069885D02*
X55916496Y-179212742D01*
X55916496Y-179212742D02*
X55987925Y-179498457D01*
X55987925Y-179498457D02*
X55987925Y-179855600D01*
X55987925Y-179855600D02*
X55916496Y-180141314D01*
X55916496Y-180141314D02*
X55845068Y-180284171D01*
X55845068Y-180284171D02*
X55773639Y-180355600D01*
X55773639Y-180355600D02*
X55630782Y-180427028D01*
X55630782Y-180427028D02*
X55487925Y-180427028D01*
X55487925Y-180427028D02*
X55345068Y-180355600D01*
X55345068Y-180355600D02*
X55273639Y-180284171D01*
X55273639Y-180284171D02*
X55202210Y-180141314D01*
X55202210Y-180141314D02*
X55130782Y-179855600D01*
X55130782Y-179855600D02*
X55130782Y-179498457D01*
X55130782Y-179498457D02*
X55202210Y-179212742D01*
X55202210Y-179212742D02*
X55273639Y-179069885D01*
X55273639Y-179069885D02*
X55345068Y-178998457D01*
X55345068Y-178998457D02*
X55487925Y-178927028D01*
X56630781Y-180284171D02*
X56702210Y-180355600D01*
X56702210Y-180355600D02*
X56630781Y-180427028D01*
X56630781Y-180427028D02*
X56559353Y-180355600D01*
X56559353Y-180355600D02*
X56630781Y-180284171D01*
X56630781Y-180284171D02*
X56630781Y-180427028D01*
X58059353Y-178927028D02*
X57345067Y-178927028D01*
X57345067Y-178927028D02*
X57273639Y-179641314D01*
X57273639Y-179641314D02*
X57345067Y-179569885D01*
X57345067Y-179569885D02*
X57487925Y-179498457D01*
X57487925Y-179498457D02*
X57845067Y-179498457D01*
X57845067Y-179498457D02*
X57987925Y-179569885D01*
X57987925Y-179569885D02*
X58059353Y-179641314D01*
X58059353Y-179641314D02*
X58130782Y-179784171D01*
X58130782Y-179784171D02*
X58130782Y-180141314D01*
X58130782Y-180141314D02*
X58059353Y-180284171D01*
X58059353Y-180284171D02*
X57987925Y-180355600D01*
X57987925Y-180355600D02*
X57845067Y-180427028D01*
X57845067Y-180427028D02*
X57487925Y-180427028D01*
X57487925Y-180427028D02*
X57345067Y-180355600D01*
X57345067Y-180355600D02*
X57273639Y-180284171D01*
D12*
D13*
X65487925Y-177427028D02*
X64630782Y-177427028D01*
X65059353Y-177427028D02*
X65059353Y-175927028D01*
X65059353Y-175927028D02*
X64916496Y-176141314D01*
X64916496Y-176141314D02*
X64773639Y-176284171D01*
X64773639Y-176284171D02*
X64630782Y-176355600D01*
X66130781Y-177284171D02*
X66202210Y-177355600D01*
X66202210Y-177355600D02*
X66130781Y-177427028D01*
X66130781Y-177427028D02*
X66059353Y-177355600D01*
X66059353Y-177355600D02*
X66130781Y-177284171D01*
X66130781Y-177284171D02*
X66130781Y-177427028D01*
X67130782Y-175927028D02*
X67273639Y-175927028D01*
X67273639Y-175927028D02*
X67416496Y-175998457D01*
X67416496Y-175998457D02*
X67487925Y-176069885D01*
X67487925Y-176069885D02*
X67559353Y-176212742D01*
X67559353Y-176212742D02*
X67630782Y-176498457D01*
X67630782Y-176498457D02*
X67630782Y-176855600D01*
X67630782Y-176855600D02*
X67559353Y-177141314D01*
X67559353Y-177141314D02*
X67487925Y-177284171D01*
X67487925Y-177284171D02*
X67416496Y-177355600D01*
X67416496Y-177355600D02*
X67273639Y-177427028D01*
X67273639Y-177427028D02*
X67130782Y-177427028D01*
X67130782Y-177427028D02*
X66987925Y-177355600D01*
X66987925Y-177355600D02*
X66916496Y-177284171D01*
X66916496Y-177284171D02*
X66845067Y-177141314D01*
X66845067Y-177141314D02*
X66773639Y-176855600D01*
X66773639Y-176855600D02*
X66773639Y-176498457D01*
X66773639Y-176498457D02*
X66845067Y-176212742D01*
X66845067Y-176212742D02*
X66916496Y-176069885D01*
X66916496Y-176069885D02*
X66987925Y-175998457D01*
X66987925Y-175998457D02*
X67130782Y-175927028D01*
D12*
D13*
X77487925Y-174927028D02*
X76630782Y-174927028D01*
X77059353Y-174927028D02*
X77059353Y-173427028D01*
X77059353Y-173427028D02*
X76916496Y-173641314D01*
X76916496Y-173641314D02*
X76773639Y-173784171D01*
X76773639Y-173784171D02*
X76630782Y-173855600D01*
X78130781Y-174784171D02*
X78202210Y-174855600D01*
X78202210Y-174855600D02*
X78130781Y-174927028D01*
X78130781Y-174927028D02*
X78059353Y-174855600D01*
X78059353Y-174855600D02*
X78130781Y-174784171D01*
X78130781Y-174784171D02*
X78130781Y-174927028D01*
X79559353Y-173427028D02*
X78845067Y-173427028D01*
X78845067Y-173427028D02*
X78773639Y-174141314D01*
X78773639Y-174141314D02*
X78845067Y-174069885D01*
X78845067Y-174069885D02*
X78987925Y-173998457D01*
X78987925Y-173998457D02*
X79345067Y-173998457D01*
X79345067Y-173998457D02*
X79487925Y-174069885D01*
X79487925Y-174069885D02*
X79559353Y-174141314D01*
X79559353Y-174141314D02*
X79630782Y-174284171D01*
X79630782Y-174284171D02*
X79630782Y-174641314D01*
X79630782Y-174641314D02*
X79559353Y-174784171D01*
X79559353Y-174784171D02*
X79487925Y-174855600D01*
X79487925Y-174855600D02*
X79345067Y-174927028D01*
X79345067Y-174927028D02*
X78987925Y-174927028D01*
X78987925Y-174927028D02*
X78845067Y-174855600D01*
X78845067Y-174855600D02*
X78773639Y-174784171D01*
D14*
G36*
X103630442Y-189922200D02*
G01*
X103630442Y-188722650D01*
X104777364Y-188722650D01*
X104777364Y-189922200D01*
X104470845Y-189922200D01*
X104470845Y-188934335D01*
X103936961Y-188934335D01*
X103936961Y-189922200D01*
X103630442Y-189922200D01*
G37*
G36*
X105747527Y-188730229D02*
G01*
X105859530Y-188750828D01*
X105946684Y-188782037D01*
X106013797Y-188822667D01*
X106069030Y-188875888D01*
X106108961Y-188938105D01*
X106133904Y-189011094D01*
X106142709Y-189097294D01*
X106136774Y-189165761D01*
X106119197Y-189230779D01*
X106089940Y-189293079D01*
X106047917Y-189349091D01*
X105990135Y-189397909D01*
X105914281Y-189440064D01*
X105829622Y-189469095D01*
X105720299Y-189488350D01*
X105580404Y-189495458D01*
X105448482Y-189495458D01*
X105448482Y-189922200D01*
X105141963Y-189922200D01*
X105141963Y-189287144D01*
X105448482Y-189287144D01*
X105549947Y-189287144D01*
X105635258Y-189281769D01*
X105702747Y-189267041D01*
X105755975Y-189244352D01*
X105797186Y-189211181D01*
X105822783Y-189166296D01*
X105832117Y-189105720D01*
X105824939Y-189050869D01*
X105805233Y-189008891D01*
X105774044Y-188976724D01*
X105730075Y-188952708D01*
X105669920Y-188936878D01*
X105588549Y-188930964D01*
X105448482Y-188930964D01*
X105448482Y-189287144D01*
X105141963Y-189287144D01*
X105141963Y-188722650D01*
X105604752Y-188722650D01*
X105747527Y-188730229D01*
G37*
G36*
X107161515Y-188709542D02*
G01*
X107264318Y-188724708D01*
X107353312Y-188748626D01*
X107430406Y-188780682D01*
X107501692Y-188822802D01*
X107562749Y-188872280D01*
X107614346Y-188929637D01*
X107656798Y-188995738D01*
X107696862Y-189090012D01*
X107722056Y-189197624D01*
X107730904Y-189320776D01*
X107722057Y-189443927D01*
X107696865Y-189551566D01*
X107656798Y-189645888D01*
X107614382Y-189711965D01*
X107562800Y-189769463D01*
X107501730Y-189819223D01*
X107430406Y-189861749D01*
X107353295Y-189894078D01*
X107264004Y-189918226D01*
X107160555Y-189933557D01*
X107040661Y-189938979D01*
X106921983Y-189933587D01*
X106819034Y-189918303D01*
X106729655Y-189894160D01*
X106651979Y-189861749D01*
X106580231Y-189819169D01*
X106518866Y-189769254D01*
X106467102Y-189711487D01*
X106424614Y-189645008D01*
X106384518Y-189550164D01*
X106359339Y-189442238D01*
X106350628Y-189320776D01*
X106673229Y-189320776D01*
X106679564Y-189416367D01*
X106697203Y-189496076D01*
X106724520Y-189562355D01*
X106760527Y-189617311D01*
X106809338Y-189663659D01*
X106870352Y-189697014D01*
X106946133Y-189718049D01*
X107040661Y-189725608D01*
X107137438Y-189717959D01*
X107214093Y-189696794D01*
X107274956Y-189663437D01*
X107322832Y-189617311D01*
X107357944Y-189562461D01*
X107384636Y-189496219D01*
X107401892Y-189416474D01*
X107408094Y-189320776D01*
X107401856Y-189224094D01*
X107384544Y-189143972D01*
X107357848Y-189077828D01*
X107322832Y-189023435D01*
X107275015Y-188977578D01*
X107214459Y-188944445D01*
X107138428Y-188923449D01*
X107042698Y-188915870D01*
X106946987Y-188923421D01*
X106870545Y-188944385D01*
X106809280Y-188977529D01*
X106760527Y-189023435D01*
X106724618Y-189077935D01*
X106697295Y-189144118D01*
X106679601Y-189224203D01*
X106673229Y-189320776D01*
X106350628Y-189320776D01*
X106350507Y-189319091D01*
X106359371Y-189195935D01*
X106384577Y-189088610D01*
X106424614Y-188994858D01*
X106467041Y-188929260D01*
X106518766Y-188872196D01*
X106580142Y-188822833D01*
X106651979Y-188780682D01*
X106729569Y-188748646D01*
X106819215Y-188724725D01*
X106922848Y-188709548D01*
X107042698Y-188704185D01*
X107161515Y-188709542D01*
G37*
G36*
X108864722Y-189922200D02*
G01*
X108030428Y-189922200D01*
X108030428Y-188722650D01*
X108864722Y-188722650D01*
X108864722Y-188930964D01*
X108336947Y-188930964D01*
X108336947Y-189194747D01*
X108828156Y-189194747D01*
X108828156Y-189403061D01*
X108336947Y-189403061D01*
X108336947Y-189712200D01*
X108864722Y-189712200D01*
X108864722Y-189922200D01*
G37*
G36*
X110348000Y-189922200D02*
G01*
X109998806Y-189922200D01*
X109473067Y-189314035D01*
X109473067Y-189922200D01*
X109166548Y-189922200D01*
X109166548Y-188722650D01*
X109473067Y-188722650D01*
X109473067Y-189303923D01*
X109992696Y-188722650D01*
X110319579Y-188722650D01*
X109791715Y-189298941D01*
X110348000Y-189922200D01*
G37*
G36*
X111088974Y-189922200D02*
G01*
X110782456Y-189922200D01*
X110782456Y-188934335D01*
X110388639Y-188934335D01*
X110388639Y-188722650D01*
X111482792Y-188722650D01*
X111482792Y-188934335D01*
X111088974Y-188934335D01*
X111088974Y-189922200D01*
G37*
G36*
X112892583Y-189922200D02*
G01*
X112586064Y-189922200D01*
X112586064Y-189404747D01*
X112011629Y-189404747D01*
X112011629Y-189922200D01*
X111705111Y-189922200D01*
X111705111Y-188722650D01*
X112011629Y-188722650D01*
X112011629Y-189193061D01*
X112586064Y-189193061D01*
X112586064Y-188722650D01*
X112892583Y-188722650D01*
X112892583Y-189922200D01*
G37*
G36*
X114475643Y-189922200D02*
G01*
X114144776Y-189922200D01*
X114039239Y-189636582D01*
X113511463Y-189636582D01*
X113405838Y-189922200D01*
X113074971Y-189922200D01*
X113286895Y-189423211D01*
X113588580Y-189423211D01*
X113966106Y-189423211D01*
X113860569Y-189144335D01*
X113834185Y-189072161D01*
X113801691Y-188983061D01*
X113775307Y-188904146D01*
X113747949Y-188987311D01*
X113715455Y-189081393D01*
X113692081Y-189144335D01*
X113588580Y-189423211D01*
X113286895Y-189423211D01*
X113586544Y-188717667D01*
X113962122Y-188717667D01*
X114475643Y-189922200D01*
G37*
G36*
X115641866Y-189922200D02*
G01*
X115335258Y-189922200D01*
X115335258Y-189461899D01*
X115144459Y-189461899D01*
X114805447Y-189922200D01*
X114464398Y-189922200D01*
X114876543Y-189394708D01*
X114818950Y-189370334D01*
X114758787Y-189335064D01*
X114705953Y-189289919D01*
X114661307Y-189229258D01*
X114640707Y-189183898D01*
X114627511Y-189129832D01*
X114624146Y-189083885D01*
X114933384Y-189083885D01*
X114940880Y-189134140D01*
X114962182Y-189175161D01*
X114997309Y-189209108D01*
X115043278Y-189233288D01*
X115106162Y-189249284D01*
X115191207Y-189255270D01*
X115335258Y-189255270D01*
X115335258Y-188930964D01*
X115183062Y-188930964D01*
X115105382Y-188935491D01*
X115045355Y-188947738D01*
X114999345Y-188966282D01*
X114963684Y-188993888D01*
X114941506Y-189031888D01*
X114933384Y-189083885D01*
X114624146Y-189083885D01*
X114622793Y-189065420D01*
X114632476Y-188984446D01*
X114659938Y-188916676D01*
X114704340Y-188859396D01*
X114766933Y-188810870D01*
X114840568Y-188774474D01*
X114930236Y-188746900D01*
X115039083Y-188729072D01*
X115170843Y-188722650D01*
X115641866Y-188722650D01*
X115641866Y-189922200D01*
G37*
G36*
X116532912Y-189922200D02*
G01*
X116532912Y-188722650D01*
X117679834Y-188722650D01*
X117679834Y-189922200D01*
X117373315Y-189922200D01*
X117373315Y-188934335D01*
X116839431Y-188934335D01*
X116839431Y-189922200D01*
X116532912Y-189922200D01*
G37*
G36*
X118649997Y-188730229D02*
G01*
X118762000Y-188750828D01*
X118849154Y-188782037D01*
X118916268Y-188822667D01*
X118971500Y-188875888D01*
X119011431Y-188938105D01*
X119036374Y-189011094D01*
X119045179Y-189097294D01*
X119039244Y-189165761D01*
X119021667Y-189230779D01*
X118992410Y-189293079D01*
X118950388Y-189349091D01*
X118892605Y-189397909D01*
X118816751Y-189440064D01*
X118732093Y-189469095D01*
X118622769Y-189488350D01*
X118482874Y-189495458D01*
X118350952Y-189495458D01*
X118350952Y-189922200D01*
X118044434Y-189922200D01*
X118044434Y-189287144D01*
X118350952Y-189287144D01*
X118452417Y-189287144D01*
X118537729Y-189281769D01*
X118605217Y-189267041D01*
X118658445Y-189244352D01*
X118699656Y-189211181D01*
X118725254Y-189166296D01*
X118734588Y-189105720D01*
X118727409Y-189050869D01*
X118707703Y-189008891D01*
X118676515Y-188976724D01*
X118632545Y-188952708D01*
X118572390Y-188936878D01*
X118491019Y-188930964D01*
X118350952Y-188930964D01*
X118350952Y-189287144D01*
X118044434Y-189287144D01*
X118044434Y-188722650D01*
X118507222Y-188722650D01*
X118649997Y-188730229D01*
G37*
G36*
X120063986Y-188709542D02*
G01*
X120166788Y-188724708D01*
X120255782Y-188748626D01*
X120332876Y-188780682D01*
X120404163Y-188822802D01*
X120465219Y-188872280D01*
X120516816Y-188929637D01*
X120559268Y-188995738D01*
X120599333Y-189090012D01*
X120624526Y-189197624D01*
X120633374Y-189320776D01*
X120624527Y-189443927D01*
X120599335Y-189551566D01*
X120559268Y-189645888D01*
X120516852Y-189711965D01*
X120465270Y-189769463D01*
X120404200Y-189819223D01*
X120332876Y-189861749D01*
X120255766Y-189894078D01*
X120166474Y-189918226D01*
X120063025Y-189933557D01*
X119943132Y-189938979D01*
X119824453Y-189933587D01*
X119721504Y-189918303D01*
X119632125Y-189894160D01*
X119554450Y-189861749D01*
X119482701Y-189819169D01*
X119421337Y-189769254D01*
X119369573Y-189711487D01*
X119327084Y-189645008D01*
X119286989Y-189550164D01*
X119261810Y-189442238D01*
X119253099Y-189320776D01*
X119575699Y-189320776D01*
X119582035Y-189416367D01*
X119599673Y-189496076D01*
X119626991Y-189562355D01*
X119662997Y-189617311D01*
X119711808Y-189663659D01*
X119772823Y-189697014D01*
X119848603Y-189718049D01*
X119943132Y-189725608D01*
X120039909Y-189717959D01*
X120116563Y-189696794D01*
X120177426Y-189663437D01*
X120225302Y-189617311D01*
X120260415Y-189562461D01*
X120287106Y-189496219D01*
X120304362Y-189416474D01*
X120310565Y-189320776D01*
X120304326Y-189224094D01*
X120287015Y-189143972D01*
X120260319Y-189077828D01*
X120225302Y-189023435D01*
X120177486Y-188977578D01*
X120116929Y-188944445D01*
X120040899Y-188923449D01*
X119945168Y-188915870D01*
X119849457Y-188923421D01*
X119773016Y-188944385D01*
X119711750Y-188977529D01*
X119662997Y-189023435D01*
X119627088Y-189077935D01*
X119599766Y-189144118D01*
X119582071Y-189224203D01*
X119575699Y-189320776D01*
X119253099Y-189320776D01*
X119252978Y-189319091D01*
X119261841Y-189195935D01*
X119287048Y-189088610D01*
X119327084Y-188994858D01*
X119369511Y-188929260D01*
X119421236Y-188872196D01*
X119482612Y-188822833D01*
X119554450Y-188780682D01*
X119632040Y-188748646D01*
X119721685Y-188724725D01*
X119825318Y-188709548D01*
X119945168Y-188704185D01*
X120063986Y-188709542D01*
G37*
G36*
X121848382Y-188722650D02*
G01*
X121848382Y-188932650D01*
X121239417Y-188932650D01*
X121239417Y-189922200D01*
X120932898Y-189922200D01*
X120932898Y-188722650D01*
X121848382Y-188722650D01*
G37*
G36*
X122675999Y-188730229D02*
G01*
X122788002Y-188750828D01*
X122875155Y-188782037D01*
X122942269Y-188822667D01*
X122997502Y-188875888D01*
X123037433Y-188938105D01*
X123062376Y-189011094D01*
X123071180Y-189097294D01*
X123065246Y-189165761D01*
X123047668Y-189230779D01*
X123018412Y-189293079D01*
X122976389Y-189349091D01*
X122918607Y-189397909D01*
X122842752Y-189440064D01*
X122758094Y-189469095D01*
X122648770Y-189488350D01*
X122508875Y-189495458D01*
X122376954Y-189495458D01*
X122376954Y-189922200D01*
X122070435Y-189922200D01*
X122070435Y-189287144D01*
X122376954Y-189287144D01*
X122478418Y-189287144D01*
X122563730Y-189281769D01*
X122631218Y-189267041D01*
X122684446Y-189244352D01*
X122725657Y-189211181D01*
X122751255Y-189166296D01*
X122760589Y-189105720D01*
X122753411Y-189050869D01*
X122733705Y-189008891D01*
X122702516Y-188976724D01*
X122658546Y-188952708D01*
X122598392Y-188936878D01*
X122517021Y-188930964D01*
X122376954Y-188930964D01*
X122376954Y-189287144D01*
X122070435Y-189287144D01*
X122070435Y-188722650D01*
X122533223Y-188722650D01*
X122675999Y-188730229D01*
G37*
G36*
X124461316Y-189922200D02*
G01*
X124130449Y-189922200D01*
X124024912Y-189636582D01*
X123497137Y-189636582D01*
X123391511Y-189922200D01*
X123060644Y-189922200D01*
X123272568Y-189423211D01*
X123574253Y-189423211D01*
X123951780Y-189423211D01*
X123846242Y-189144335D01*
X123819858Y-189072161D01*
X123787365Y-188983061D01*
X123760980Y-188904146D01*
X123733622Y-188987311D01*
X123701128Y-189081393D01*
X123677754Y-189144335D01*
X123574253Y-189423211D01*
X123272568Y-189423211D01*
X123572217Y-188717667D01*
X123947795Y-188717667D01*
X124461316Y-189922200D01*
G37*
G36*
X125256033Y-189922200D02*
G01*
X124906839Y-188981376D01*
X124898694Y-188981376D01*
X124904803Y-189082200D01*
X124912949Y-189225888D01*
X124917021Y-189364447D01*
X124917021Y-189922200D01*
X124642996Y-189922200D01*
X124642996Y-188722650D01*
X125061161Y-188722650D01*
X125404246Y-189639952D01*
X125410267Y-189639952D01*
X125773627Y-188722650D01*
X126191880Y-188722650D01*
X126191880Y-189922200D01*
X125905637Y-189922200D01*
X125905637Y-189354335D01*
X125908647Y-189223323D01*
X125914756Y-189083079D01*
X125919803Y-188983061D01*
X125911746Y-188983061D01*
X125538204Y-189922200D01*
X125256033Y-189922200D01*
G37*
G36*
X127169872Y-189922200D02*
G01*
X126820678Y-188981376D01*
X126812532Y-188981376D01*
X126818641Y-189082200D01*
X126826787Y-189225888D01*
X126830859Y-189364447D01*
X126830859Y-189922200D01*
X126556834Y-189922200D01*
X126556834Y-188722650D01*
X126974999Y-188722650D01*
X127318084Y-189639952D01*
X127324105Y-189639952D01*
X127687465Y-188722650D01*
X128105719Y-188722650D01*
X128105719Y-189922200D01*
X127819475Y-189922200D01*
X127819475Y-189354335D01*
X127822485Y-189223323D01*
X127828594Y-189083079D01*
X127833641Y-188983061D01*
X127825584Y-188983061D01*
X127452042Y-189922200D01*
X127169872Y-189922200D01*
G37*
G36*
X129688601Y-189922200D02*
G01*
X129357735Y-189922200D01*
X129252197Y-189636582D01*
X128724422Y-189636582D01*
X128618796Y-189922200D01*
X128287930Y-189922200D01*
X128499854Y-189423211D01*
X128801539Y-189423211D01*
X129179065Y-189423211D01*
X129073528Y-189144335D01*
X129047143Y-189072161D01*
X129014650Y-188983061D01*
X128988266Y-188904146D01*
X128960907Y-188987311D01*
X128928414Y-189081393D01*
X128905040Y-189144335D01*
X128801539Y-189423211D01*
X128499854Y-189423211D01*
X128799503Y-188717667D01*
X129175081Y-188717667D01*
X129688601Y-189922200D01*
G37*
G36*
X104847914Y-188152200D02*
G01*
X104541395Y-188152200D01*
X104541395Y-187634747D01*
X103966961Y-187634747D01*
X103966961Y-188152200D01*
X103660442Y-188152200D01*
X103660442Y-186952650D01*
X103966961Y-186952650D01*
X103966961Y-187423061D01*
X104541395Y-187423061D01*
X104541395Y-186952650D01*
X104847914Y-186952650D01*
X104847914Y-188152200D01*
G37*
G36*
X106430974Y-188152200D02*
G01*
X106100107Y-188152200D01*
X105994570Y-187866582D01*
X105466795Y-187866582D01*
X105361169Y-188152200D01*
X105030302Y-188152200D01*
X105242226Y-187653211D01*
X105543912Y-187653211D01*
X105921438Y-187653211D01*
X105815900Y-187374335D01*
X105789516Y-187302161D01*
X105757023Y-187213061D01*
X105730638Y-187134146D01*
X105703280Y-187217311D01*
X105670787Y-187311393D01*
X105647413Y-187374335D01*
X105543912Y-187653211D01*
X105242226Y-187653211D01*
X105541875Y-186947667D01*
X105917454Y-186947667D01*
X106430974Y-188152200D01*
G37*
G36*
X107327156Y-187801076D02*
G01*
X107262615Y-187910376D01*
X107198245Y-187998473D01*
X107148370Y-188049851D01*
X107090760Y-188091890D01*
X107024710Y-188125308D01*
X106952365Y-188148347D01*
X106861667Y-188163461D01*
X106748649Y-188168979D01*
X106632929Y-188162238D01*
X106517210Y-188143773D01*
X106517210Y-187925420D01*
X106567654Y-187939515D01*
X106624784Y-187948941D01*
X106734394Y-187955608D01*
X106800230Y-187950264D01*
X106847349Y-187936076D01*
X106880570Y-187914502D01*
X106920079Y-187869687D01*
X106951578Y-187814485D01*
X106450187Y-186952650D01*
X106775033Y-186952650D01*
X107044985Y-187471788D01*
X107083588Y-187543229D01*
X107120154Y-187621338D01*
X107130247Y-187621338D01*
X107165751Y-187542350D01*
X107207364Y-187456694D01*
X107459078Y-186952650D01*
X107775778Y-186952650D01*
X107327156Y-187801076D01*
G37*
G36*
X109070824Y-188152200D02*
G01*
X108764305Y-188152200D01*
X108764305Y-187688529D01*
X108638328Y-187721656D01*
X108529768Y-187743996D01*
X108422844Y-187757858D01*
X108315683Y-187762461D01*
X108213795Y-187756680D01*
X108128663Y-187740496D01*
X108057463Y-187715116D01*
X107997920Y-187680982D01*
X107948856Y-187637137D01*
X107913385Y-187584974D01*
X107891153Y-187522809D01*
X107883263Y-187448267D01*
X107883263Y-186952650D01*
X108189782Y-186952650D01*
X108189782Y-187376020D01*
X108196016Y-187432972D01*
X108212799Y-187475540D01*
X108238478Y-187507105D01*
X108274756Y-187529810D01*
X108327604Y-187544989D01*
X108402982Y-187550776D01*
X108488016Y-187547023D01*
X108573506Y-187535682D01*
X108660751Y-187517473D01*
X108764305Y-187490253D01*
X108764305Y-186952650D01*
X109070824Y-186952650D01*
X109070824Y-188152200D01*
G37*
G36*
X110623427Y-188152200D02*
G01*
X110316908Y-188152200D01*
X110316908Y-187634747D01*
X109742474Y-187634747D01*
X109742474Y-188152200D01*
X109435955Y-188152200D01*
X109435955Y-186952650D01*
X109742474Y-186952650D01*
X109742474Y-187423061D01*
X110316908Y-187423061D01*
X110316908Y-186952650D01*
X110623427Y-186952650D01*
X110623427Y-188152200D01*
G37*
G36*
X111734579Y-186939542D02*
G01*
X111837382Y-186954708D01*
X111926375Y-186978626D01*
X112003469Y-187010682D01*
X112074756Y-187052802D01*
X112135813Y-187102280D01*
X112187409Y-187159637D01*
X112229861Y-187225738D01*
X112269926Y-187320012D01*
X112295119Y-187427624D01*
X112303967Y-187550776D01*
X112295120Y-187673927D01*
X112269928Y-187781566D01*
X112229861Y-187875888D01*
X112187445Y-187941965D01*
X112135863Y-187999463D01*
X112074793Y-188049223D01*
X112003469Y-188091749D01*
X111926359Y-188124078D01*
X111837067Y-188148226D01*
X111733618Y-188163557D01*
X111613725Y-188168979D01*
X111495047Y-188163587D01*
X111392097Y-188148303D01*
X111302718Y-188124160D01*
X111225043Y-188091749D01*
X111153294Y-188049169D01*
X111091930Y-187999254D01*
X111040166Y-187941487D01*
X110997677Y-187875008D01*
X110957582Y-187780164D01*
X110932403Y-187672238D01*
X110923692Y-187550776D01*
X111246292Y-187550776D01*
X111252628Y-187646367D01*
X111270266Y-187726076D01*
X111297584Y-187792355D01*
X111333591Y-187847311D01*
X111382402Y-187893659D01*
X111443416Y-187927014D01*
X111519196Y-187948049D01*
X111613725Y-187955608D01*
X111710502Y-187947959D01*
X111787156Y-187926794D01*
X111848019Y-187893437D01*
X111895896Y-187847311D01*
X111931008Y-187792461D01*
X111957699Y-187726219D01*
X111974955Y-187646474D01*
X111981158Y-187550776D01*
X111974919Y-187454094D01*
X111957608Y-187373972D01*
X111930912Y-187307828D01*
X111895896Y-187253435D01*
X111848079Y-187207578D01*
X111787523Y-187174445D01*
X111711492Y-187153449D01*
X111615761Y-187145870D01*
X111520051Y-187153421D01*
X111443609Y-187174385D01*
X111382343Y-187207529D01*
X111333591Y-187253435D01*
X111297682Y-187307935D01*
X111270359Y-187374118D01*
X111252664Y-187454203D01*
X111246292Y-187550776D01*
X110923692Y-187550776D01*
X110923571Y-187549091D01*
X110932434Y-187425935D01*
X110957641Y-187318610D01*
X110997677Y-187224858D01*
X111040104Y-187159260D01*
X111091829Y-187102196D01*
X111153206Y-187052833D01*
X111225043Y-187010682D01*
X111302633Y-186978646D01*
X111392278Y-186954725D01*
X111495911Y-186939548D01*
X111615761Y-186934185D01*
X111734579Y-186939542D01*
G37*
G36*
X112481663Y-187804447D02*
G01*
X112481663Y-187599502D01*
X113013511Y-187599502D01*
X113013511Y-187804447D01*
X112481663Y-187804447D01*
G37*
G36*
X113734034Y-188152200D02*
G01*
X113427515Y-188152200D01*
X113427515Y-187164335D01*
X113033698Y-187164335D01*
X113033698Y-186952650D01*
X114127851Y-186952650D01*
X114127851Y-187164335D01*
X113734034Y-187164335D01*
X113734034Y-188152200D01*
G37*
G36*
X115184464Y-188152200D02*
G01*
X114350170Y-188152200D01*
X114350170Y-186952650D01*
X115184464Y-186952650D01*
X115184464Y-187160964D01*
X114656689Y-187160964D01*
X114656689Y-187424747D01*
X115147898Y-187424747D01*
X115147898Y-187633061D01*
X114656689Y-187633061D01*
X114656689Y-187942200D01*
X115184464Y-187942200D01*
X115184464Y-188152200D01*
G37*
G36*
X116657559Y-188152200D02*
G01*
X116306329Y-188152200D01*
X115969353Y-187698567D01*
X115632378Y-188152200D01*
X115303547Y-188152200D01*
X115784663Y-187533923D01*
X115334004Y-186952650D01*
X115673017Y-186952650D01*
X115985644Y-187384447D01*
X116292163Y-186952650D01*
X116623030Y-186952650D01*
X116168298Y-187547405D01*
X116657559Y-188152200D01*
G37*
G36*
X118026623Y-188152200D02*
G01*
X117720104Y-188152200D01*
X117720104Y-187634747D01*
X117145670Y-187634747D01*
X117145670Y-188152200D01*
X116839151Y-188152200D01*
X116839151Y-186952650D01*
X117145670Y-186952650D01*
X117145670Y-187423061D01*
X117720104Y-187423061D01*
X117720104Y-186952650D01*
X118026623Y-186952650D01*
X118026623Y-188152200D01*
G37*
G36*
X119137775Y-186939542D02*
G01*
X119240578Y-186954708D01*
X119329571Y-186978626D01*
X119406665Y-187010682D01*
X119477952Y-187052802D01*
X119539009Y-187102280D01*
X119590605Y-187159637D01*
X119633057Y-187225738D01*
X119673122Y-187320012D01*
X119698315Y-187427624D01*
X119707163Y-187550776D01*
X119698317Y-187673927D01*
X119673125Y-187781566D01*
X119633057Y-187875888D01*
X119590641Y-187941965D01*
X119539059Y-187999463D01*
X119477989Y-188049223D01*
X119406665Y-188091749D01*
X119329555Y-188124078D01*
X119240263Y-188148226D01*
X119136814Y-188163557D01*
X119016921Y-188168979D01*
X118898243Y-188163587D01*
X118795293Y-188148303D01*
X118705914Y-188124160D01*
X118628239Y-188091749D01*
X118556491Y-188049169D01*
X118495126Y-187999254D01*
X118443362Y-187941487D01*
X118400873Y-187875008D01*
X118360778Y-187780164D01*
X118335599Y-187672238D01*
X118326888Y-187550776D01*
X118649488Y-187550776D01*
X118655824Y-187646367D01*
X118673462Y-187726076D01*
X118700780Y-187792355D01*
X118736787Y-187847311D01*
X118785598Y-187893659D01*
X118846612Y-187927014D01*
X118922392Y-187948049D01*
X119016921Y-187955608D01*
X119113698Y-187947959D01*
X119190352Y-187926794D01*
X119251215Y-187893437D01*
X119299092Y-187847311D01*
X119334204Y-187792461D01*
X119360895Y-187726219D01*
X119378151Y-187646474D01*
X119384354Y-187550776D01*
X119378115Y-187454094D01*
X119360804Y-187373972D01*
X119334108Y-187307828D01*
X119299092Y-187253435D01*
X119251275Y-187207578D01*
X119190719Y-187174445D01*
X119114688Y-187153449D01*
X119018957Y-187145870D01*
X118923247Y-187153421D01*
X118846805Y-187174385D01*
X118785539Y-187207529D01*
X118736787Y-187253435D01*
X118700878Y-187307935D01*
X118673555Y-187374118D01*
X118655860Y-187454203D01*
X118649488Y-187550776D01*
X118326888Y-187550776D01*
X118326767Y-187549091D01*
X118335630Y-187425935D01*
X118360837Y-187318610D01*
X118400873Y-187224858D01*
X118443300Y-187159260D01*
X118495025Y-187102196D01*
X118556402Y-187052833D01*
X118628239Y-187010682D01*
X118705829Y-186978646D01*
X118795474Y-186954725D01*
X118899107Y-186939548D01*
X119018957Y-186934185D01*
X119137775Y-186939542D01*
G37*
G36*
X121113944Y-188152200D02*
G01*
X120807426Y-188152200D01*
X120807426Y-187164335D01*
X120452122Y-187164335D01*
X120426801Y-187332350D01*
X120398380Y-187516338D01*
X120366860Y-187692705D01*
X120334367Y-187839691D01*
X120302476Y-187939325D01*
X120264333Y-188017817D01*
X120230919Y-188064038D01*
X120191126Y-188101194D01*
X120144630Y-188130364D01*
X120091855Y-188150939D01*
X120026795Y-188164191D01*
X119946659Y-188168979D01*
X119869515Y-188164232D01*
X119800483Y-188150514D01*
X119800483Y-187942200D01*
X119852277Y-187953996D01*
X119908145Y-187958979D01*
X119943731Y-187953497D01*
X119973294Y-187937173D01*
X119998454Y-187907761D01*
X120026488Y-187844802D01*
X120062378Y-187715420D01*
X120096908Y-187547405D01*
X120146578Y-187279447D01*
X120198372Y-186952650D01*
X121113944Y-186952650D01*
X121113944Y-188152200D01*
G37*
G36*
X122224565Y-186939542D02*
G01*
X122327368Y-186954708D01*
X122416361Y-186978626D01*
X122493455Y-187010682D01*
X122564742Y-187052802D01*
X122625799Y-187102280D01*
X122677395Y-187159637D01*
X122719847Y-187225738D01*
X122759912Y-187320012D01*
X122785105Y-187427624D01*
X122793953Y-187550776D01*
X122785107Y-187673927D01*
X122759914Y-187781566D01*
X122719847Y-187875888D01*
X122677431Y-187941965D01*
X122625849Y-187999463D01*
X122564779Y-188049223D01*
X122493455Y-188091749D01*
X122416345Y-188124078D01*
X122327053Y-188148226D01*
X122223604Y-188163557D01*
X122103711Y-188168979D01*
X121985033Y-188163587D01*
X121882083Y-188148303D01*
X121792704Y-188124160D01*
X121715029Y-188091749D01*
X121643280Y-188049169D01*
X121581916Y-187999254D01*
X121530152Y-187941487D01*
X121487663Y-187875008D01*
X121447568Y-187780164D01*
X121422389Y-187672238D01*
X121413678Y-187550776D01*
X121736278Y-187550776D01*
X121742614Y-187646367D01*
X121760252Y-187726076D01*
X121787570Y-187792355D01*
X121823577Y-187847311D01*
X121872388Y-187893659D01*
X121933402Y-187927014D01*
X122009182Y-187948049D01*
X122103711Y-187955608D01*
X122200488Y-187947959D01*
X122277142Y-187926794D01*
X122338005Y-187893437D01*
X122385882Y-187847311D01*
X122420994Y-187792461D01*
X122447685Y-187726219D01*
X122464941Y-187646474D01*
X122471144Y-187550776D01*
X122464905Y-187454094D01*
X122447594Y-187373972D01*
X122420898Y-187307828D01*
X122385882Y-187253435D01*
X122338065Y-187207578D01*
X122277509Y-187174445D01*
X122201478Y-187153449D01*
X122105747Y-187145870D01*
X122010037Y-187153421D01*
X121933595Y-187174385D01*
X121872329Y-187207529D01*
X121823577Y-187253435D01*
X121787668Y-187307935D01*
X121760345Y-187374118D01*
X121742650Y-187454203D01*
X121736278Y-187550776D01*
X121413678Y-187550776D01*
X121413557Y-187549091D01*
X121422420Y-187425935D01*
X121447627Y-187318610D01*
X121487663Y-187224858D01*
X121530090Y-187159260D01*
X121581815Y-187102196D01*
X121643192Y-187052833D01*
X121715029Y-187010682D01*
X121792619Y-186978646D01*
X121882264Y-186954725D01*
X121985897Y-186939548D01*
X122105747Y-186934185D01*
X122224565Y-186939542D01*
G37*
G36*
X124008961Y-186952650D02*
G01*
X124008961Y-187162650D01*
X123399996Y-187162650D01*
X123399996Y-188152200D01*
X123093478Y-188152200D01*
X123093478Y-186952650D01*
X124008961Y-186952650D01*
G37*
G36*
X124231014Y-186952650D02*
G01*
X124507076Y-186952650D01*
X124507076Y-187532311D01*
X124505039Y-187626393D01*
X124500967Y-187728023D01*
X124496894Y-187813679D01*
X124492821Y-187863211D01*
X124498930Y-187863211D01*
X125168809Y-186952650D01*
X125536242Y-186952650D01*
X125536242Y-188152200D01*
X125262217Y-188152200D01*
X125262217Y-187575982D01*
X125264253Y-187476038D01*
X125269300Y-187371038D01*
X125275409Y-187282817D01*
X125280456Y-187233211D01*
X125272399Y-187233211D01*
X124600395Y-188152200D01*
X124231014Y-188152200D01*
X124231014Y-186952650D01*
G37*
G36*
X127013587Y-188152200D02*
G01*
X126707069Y-188152200D01*
X126707069Y-187688529D01*
X126581091Y-187721656D01*
X126472532Y-187743996D01*
X126365607Y-187757858D01*
X126258447Y-187762461D01*
X126156558Y-187756680D01*
X126071426Y-187740496D01*
X126000226Y-187715116D01*
X125940684Y-187680982D01*
X125891619Y-187637137D01*
X125856148Y-187584974D01*
X125833916Y-187522809D01*
X125826027Y-187448267D01*
X125826027Y-186952650D01*
X126132546Y-186952650D01*
X126132546Y-187376020D01*
X126138779Y-187432972D01*
X126155562Y-187475540D01*
X126181241Y-187507105D01*
X126217520Y-187529810D01*
X126270367Y-187544989D01*
X126345745Y-187550776D01*
X126430779Y-187547023D01*
X126516269Y-187535682D01*
X126603515Y-187517473D01*
X126707069Y-187490253D01*
X126707069Y-186952650D01*
X127013587Y-186952650D01*
X127013587Y-188152200D01*
G37*
G36*
X128213012Y-188152200D02*
G01*
X127378718Y-188152200D01*
X127378718Y-186952650D01*
X128213012Y-186952650D01*
X128213012Y-187160964D01*
X127685237Y-187160964D01*
X127685237Y-187424747D01*
X128176446Y-187424747D01*
X128176446Y-187633061D01*
X127685237Y-187633061D01*
X127685237Y-187942200D01*
X128213012Y-187942200D01*
X128213012Y-188152200D01*
G37*
G36*
X129129912Y-187147555D02*
G01*
X129044285Y-187154832D01*
X128972487Y-187175519D01*
X128911612Y-187209127D01*
X128859871Y-187256805D01*
X128821236Y-187312446D01*
X128792064Y-187379357D01*
X128773286Y-187459654D01*
X128766552Y-187555832D01*
X128772917Y-187653482D01*
X128790505Y-187733629D01*
X128817507Y-187799091D01*
X128852788Y-187852294D01*
X128900848Y-187897102D01*
X128961098Y-187929462D01*
X129036131Y-187949927D01*
X129129912Y-187957294D01*
X129218836Y-187953113D01*
X129307519Y-187940514D01*
X129397179Y-187920961D01*
X129499381Y-187893473D01*
X129499381Y-188106844D01*
X129403534Y-188134804D01*
X129310530Y-188153885D01*
X129214297Y-188165009D01*
X129101491Y-188168979D01*
X128989129Y-188163662D01*
X128891594Y-188148577D01*
X128806809Y-188124701D01*
X128732996Y-188092555D01*
X128665436Y-188050637D01*
X128607587Y-188001290D01*
X128558785Y-187943915D01*
X128518823Y-187877573D01*
X128481551Y-187783488D01*
X128458089Y-187676360D01*
X128449851Y-187554146D01*
X128459165Y-187434580D01*
X128485932Y-187328243D01*
X128529004Y-187233211D01*
X128590443Y-187146213D01*
X128666890Y-187073946D01*
X128759380Y-187014858D01*
X128836426Y-186981302D01*
X128922847Y-186956651D01*
X129020103Y-186941248D01*
X129129912Y-186935870D01*
X129237210Y-186941494D01*
X129346033Y-186958585D01*
X129452622Y-186985306D01*
X129554186Y-187019914D01*
X129454670Y-187226544D01*
X129291228Y-187171076D01*
X129208892Y-187153301D01*
X129129912Y-187147555D01*
G37*
G36*
X130988237Y-188152200D02*
G01*
X130639043Y-188152200D01*
X130113304Y-187544035D01*
X130113304Y-188152200D01*
X129806785Y-188152200D01*
X129806785Y-186952650D01*
X130113304Y-186952650D01*
X130113304Y-187533923D01*
X130632934Y-186952650D01*
X130959816Y-186952650D01*
X130431952Y-187528941D01*
X130988237Y-188152200D01*
G37*
G36*
X132388909Y-188152200D02*
G01*
X132058042Y-188152200D01*
X131952505Y-187866582D01*
X131424729Y-187866582D01*
X131319103Y-188152200D01*
X130988237Y-188152200D01*
X131200161Y-187653211D01*
X131501846Y-187653211D01*
X131879372Y-187653211D01*
X131773835Y-187374335D01*
X131747450Y-187302161D01*
X131714957Y-187213061D01*
X131688573Y-187134146D01*
X131661214Y-187217311D01*
X131628721Y-187311393D01*
X131605347Y-187374335D01*
X131501846Y-187653211D01*
X131200161Y-187653211D01*
X131499810Y-186947667D01*
X131875388Y-186947667D01*
X132388909Y-188152200D01*
G37*
G36*
X133555131Y-188152200D02*
G01*
X133248524Y-188152200D01*
X133248524Y-187691899D01*
X133057725Y-187691899D01*
X132718713Y-188152200D01*
X132377664Y-188152200D01*
X132789809Y-187624708D01*
X132732216Y-187600334D01*
X132672053Y-187565064D01*
X132619219Y-187519919D01*
X132574573Y-187459258D01*
X132553973Y-187413898D01*
X132540777Y-187359832D01*
X132537412Y-187313885D01*
X132846650Y-187313885D01*
X132854146Y-187364140D01*
X132875447Y-187405161D01*
X132910575Y-187439108D01*
X132956544Y-187463288D01*
X133019428Y-187479284D01*
X133104473Y-187485270D01*
X133248524Y-187485270D01*
X133248524Y-187160964D01*
X133096327Y-187160964D01*
X133018647Y-187165491D01*
X132958621Y-187177738D01*
X132912611Y-187196282D01*
X132876950Y-187223888D01*
X132854772Y-187261888D01*
X132846650Y-187313885D01*
X132537412Y-187313885D01*
X132536059Y-187295420D01*
X132545742Y-187214446D01*
X132573204Y-187146676D01*
X132617606Y-187089396D01*
X132680199Y-187040870D01*
X132753834Y-187004474D01*
X132843502Y-186976900D01*
X132952349Y-186959072D01*
X133084109Y-186952650D01*
X133555131Y-186952650D01*
X133555131Y-188152200D01*
G37*
%TO.C,REF\u002A\u002A*%
D15*
X35149000Y-127001000D02*
G75*
G02*
X34049000Y-127001000I-550000J0D01*
G01*
X34049000Y-127001000D02*
G75*
G02*
X35149000Y-127001000I550000J0D01*
G01*
D16*
%TA.AperFunction,EtchedComponent*%
%TO.C,G\u002A\u002A\u002A*%
G36*
X122053773Y-194504082D02*
G01*
X122053773Y-195256056D01*
X121134694Y-195256056D01*
X120215615Y-195256056D01*
X120215615Y-194504082D01*
X120215615Y-193752108D01*
X121134694Y-193752108D01*
X122053773Y-193752108D01*
X122053773Y-194504082D01*
G37*
%TD.AperFunction*%
%TA.AperFunction,EtchedComponent*%
G36*
X122053773Y-200060332D02*
G01*
X122053773Y-204446845D01*
X121134694Y-204446845D01*
X120215615Y-204446845D01*
X120215615Y-200060332D01*
X120215615Y-195673819D01*
X121134694Y-195673819D01*
X122053773Y-195673819D01*
X122053773Y-200060332D01*
G37*
%TD.AperFunction*%
%TA.AperFunction,EtchedComponent*%
G36*
X125395878Y-203444214D02*
G01*
X125395878Y-204446845D01*
X124309694Y-204446845D01*
X123223510Y-204446845D01*
X123223510Y-203444214D01*
X123223510Y-202441582D01*
X124309694Y-202441582D01*
X125395878Y-202441582D01*
X125395878Y-203444214D01*
G37*
%TD.AperFunction*%
%TA.AperFunction,EtchedComponent*%
G36*
X117477382Y-195026404D02*
G01*
X117500154Y-196551122D01*
X118231240Y-196575263D01*
X118962326Y-196599404D01*
X118962326Y-197348124D01*
X118962326Y-198096845D01*
X118210352Y-198096845D01*
X117458378Y-198096845D01*
X117458378Y-201271845D01*
X117458378Y-204446845D01*
X116581076Y-204446845D01*
X115703773Y-204446845D01*
X115703773Y-201271845D01*
X115703773Y-198096845D01*
X114910023Y-198096845D01*
X114116273Y-198096845D01*
X114116273Y-197348007D01*
X114116273Y-196599169D01*
X114889135Y-196575145D01*
X115661997Y-196551122D01*
X115688359Y-195673819D01*
X115714721Y-194796516D01*
X116584665Y-194149102D01*
X117454609Y-193501687D01*
X117477382Y-195026404D01*
G37*
%TD.AperFunction*%
%TA.AperFunction,EtchedComponent*%
G36*
X129888676Y-195052994D02*
G01*
X129911407Y-196592898D01*
X130661538Y-196592898D01*
X131411668Y-196592898D01*
X131411668Y-197344872D01*
X131411668Y-198096845D01*
X130659694Y-198096845D01*
X129907720Y-198096845D01*
X129907720Y-201271845D01*
X129907720Y-204446845D01*
X128988641Y-204446845D01*
X128069562Y-204446845D01*
X128069562Y-201271845D01*
X128069562Y-198096845D01*
X127317589Y-198096845D01*
X126565615Y-198096845D01*
X126565615Y-197344872D01*
X126565615Y-196592898D01*
X127317589Y-196592898D01*
X128069562Y-196592898D01*
X128069562Y-195724801D01*
X128069562Y-194856705D01*
X128967753Y-194184897D01*
X129865944Y-193513090D01*
X129888676Y-195052994D01*
G37*
%TD.AperFunction*%
%TA.AperFunction,EtchedComponent*%
G36*
X155641931Y-195637636D02*
G01*
X155641931Y-197523164D01*
X155997029Y-197235211D01*
X156617981Y-196822597D01*
X157314592Y-196536152D01*
X158104043Y-196370462D01*
X158900483Y-196320158D01*
X159664442Y-196375504D01*
X160325588Y-196557209D01*
X160897935Y-196872148D01*
X161395493Y-197327197D01*
X161670051Y-197679082D01*
X161910803Y-198055046D01*
X162106521Y-198435916D01*
X162261446Y-198843748D01*
X162379822Y-199300598D01*
X162465888Y-199828522D01*
X162523886Y-200449577D01*
X162558059Y-201185819D01*
X162572648Y-202059302D01*
X162573884Y-202378918D01*
X162576799Y-204446845D01*
X161657720Y-204446845D01*
X160738641Y-204446845D01*
X160738641Y-202371395D01*
X160737096Y-201699420D01*
X160731376Y-201167968D01*
X160719854Y-200750475D01*
X160700903Y-200420377D01*
X160672894Y-200151110D01*
X160634202Y-199916112D01*
X160583198Y-199688818D01*
X160571453Y-199642246D01*
X160374627Y-199015994D01*
X160132621Y-198537983D01*
X159826469Y-198191419D01*
X159437210Y-197959506D01*
X158945880Y-197825450D01*
X158465714Y-197777334D01*
X157769150Y-197789132D01*
X157196854Y-197901717D01*
X156735257Y-198121399D01*
X156370792Y-198454493D01*
X156105190Y-198875512D01*
X155965879Y-199201774D01*
X155855789Y-199562520D01*
X155772094Y-199980277D01*
X155711969Y-200477570D01*
X155672590Y-201076925D01*
X155651131Y-201800868D01*
X155644846Y-202546023D01*
X155641931Y-204446845D01*
X154722852Y-204446845D01*
X153803773Y-204446845D01*
X153803773Y-199099477D01*
X153803773Y-193752108D01*
X154722852Y-193752108D01*
X155641931Y-193752108D01*
X155641931Y-195637636D01*
G37*
%TD.AperFunction*%
%TA.AperFunction,EtchedComponent*%
G36*
X148144479Y-196283123D02*
G01*
X148205747Y-196285314D01*
X148978309Y-196338075D01*
X149621743Y-196441411D01*
X150169719Y-196608200D01*
X150655907Y-196851323D01*
X151113976Y-197183658D01*
X151509483Y-197549017D01*
X151780989Y-197849693D01*
X152054267Y-198201042D01*
X152306937Y-198568310D01*
X152516614Y-198916739D01*
X152660918Y-199211574D01*
X152717466Y-199418059D01*
X152717589Y-199425017D01*
X152635091Y-199472434D01*
X152387316Y-199502901D01*
X151973840Y-199516462D01*
X151815294Y-199517240D01*
X150913000Y-199517240D01*
X150810703Y-199234343D01*
X150605307Y-198857317D01*
X150279657Y-198480805D01*
X149875409Y-198146656D01*
X149517302Y-197934980D01*
X148827733Y-197682270D01*
X148103849Y-197565341D01*
X147375789Y-197580631D01*
X146673689Y-197724579D01*
X146027688Y-197993622D01*
X145467923Y-198384199D01*
X145430584Y-198417992D01*
X145014895Y-198906112D01*
X144736678Y-199459092D01*
X144591522Y-200053511D01*
X144575020Y-200665947D01*
X144682760Y-201272976D01*
X144910334Y-201851176D01*
X145253332Y-202377126D01*
X145707345Y-202827403D01*
X146267962Y-203178584D01*
X146332468Y-203208592D01*
X146608097Y-203309606D01*
X146929700Y-203375876D01*
X147346061Y-203415925D01*
X147589165Y-203428146D01*
X148286189Y-203421608D01*
X148874519Y-203333686D01*
X149396332Y-203154844D01*
X149819670Y-202923842D01*
X150122477Y-202690158D01*
X150416458Y-202394194D01*
X150662450Y-202081889D01*
X150821291Y-201799181D01*
X150848833Y-201716592D01*
X150877784Y-201631403D01*
X150933991Y-201575674D01*
X151048284Y-201543162D01*
X151251493Y-201527628D01*
X151574448Y-201522828D01*
X151807567Y-201522503D01*
X152229997Y-201524814D01*
X152506803Y-201541972D01*
X152659469Y-201589318D01*
X152709477Y-201682189D01*
X152678309Y-201835925D01*
X152587446Y-202065865D01*
X152583117Y-202076280D01*
X152251511Y-202667807D01*
X151772641Y-203220301D01*
X151164543Y-203719214D01*
X150445255Y-204150000D01*
X149632814Y-204498110D01*
X149540785Y-204529968D01*
X149091024Y-204640894D01*
X148535126Y-204716448D01*
X147930814Y-204754047D01*
X147335807Y-204751107D01*
X146807828Y-204705045D01*
X146576470Y-204662627D01*
X145628496Y-204371421D01*
X144797872Y-203963920D01*
X144086753Y-203441316D01*
X143731843Y-203088087D01*
X143252703Y-202441852D01*
X142925400Y-201752319D01*
X142746073Y-201036884D01*
X142710866Y-200312938D01*
X142815920Y-199597877D01*
X143057377Y-198909095D01*
X143431377Y-198263984D01*
X143934064Y-197679939D01*
X144561577Y-197174354D01*
X145114299Y-196855891D01*
X145679337Y-196605005D01*
X146218951Y-196430761D01*
X146779064Y-196324683D01*
X147405599Y-196278295D01*
X148144479Y-196283123D01*
G37*
%TD.AperFunction*%
%TA.AperFunction,EtchedComponent*%
G36*
X98999859Y-196217017D02*
G01*
X99491623Y-196291687D01*
X100296719Y-196532157D01*
X101035130Y-196889517D01*
X101683315Y-197347451D01*
X102217733Y-197889638D01*
X102580137Y-198432686D01*
X102769642Y-198865079D01*
X102929851Y-199372220D01*
X103041620Y-199882217D01*
X103085806Y-200323177D01*
X103085875Y-200331878D01*
X103087326Y-200603424D01*
X98981890Y-200603424D01*
X94876454Y-200603424D01*
X94927507Y-200975896D01*
X95082191Y-201539228D01*
X95373182Y-202083428D01*
X95770981Y-202568549D01*
X96246091Y-202954642D01*
X96489587Y-203091443D01*
X97109697Y-203311580D01*
X97807749Y-203424494D01*
X98529932Y-203425749D01*
X99205462Y-203315347D01*
X99751753Y-203120946D01*
X100251150Y-202843337D01*
X100675725Y-202505828D01*
X100997550Y-202131728D01*
X101188696Y-201744345D01*
X101214659Y-201638477D01*
X101267765Y-201355398D01*
X102186844Y-201355398D01*
X103105923Y-201355398D01*
X103050461Y-201668720D01*
X102898810Y-202165895D01*
X102631656Y-202681196D01*
X102281883Y-203155904D01*
X102123420Y-203324002D01*
X101693113Y-203676416D01*
X101155262Y-204013229D01*
X100568661Y-204302848D01*
X99992106Y-204513677D01*
X99828773Y-204557105D01*
X99273951Y-204657337D01*
X98647331Y-204719026D01*
X98020366Y-204738124D01*
X97464508Y-204710583D01*
X97354617Y-204697279D01*
X96457975Y-204506582D01*
X95635380Y-204199155D01*
X94901586Y-203786381D01*
X94271348Y-203279643D01*
X93759420Y-202690326D01*
X93380557Y-202029813D01*
X93189877Y-201484061D01*
X93060330Y-200674401D01*
X93089286Y-199889577D01*
X93225617Y-199321960D01*
X95149826Y-199321960D01*
X95176555Y-199352240D01*
X95266369Y-199376771D01*
X95433703Y-199396094D01*
X95692996Y-199410755D01*
X96058684Y-199421297D01*
X96545204Y-199428264D01*
X97166994Y-199432200D01*
X97938491Y-199433648D01*
X98115944Y-199433687D01*
X98932640Y-199432467D01*
X99595439Y-199428496D01*
X100117531Y-199421311D01*
X100512107Y-199410446D01*
X100792361Y-199395437D01*
X100971482Y-199375819D01*
X101062664Y-199351127D01*
X101081278Y-199329247D01*
X101025420Y-199136196D01*
X100880502Y-198870704D01*
X100677307Y-198576782D01*
X100446615Y-198298445D01*
X100219209Y-198079706D01*
X100192914Y-198059025D01*
X99773828Y-197796817D01*
X99306028Y-197625287D01*
X98751803Y-197534084D01*
X98199497Y-197511977D01*
X97537425Y-197545588D01*
X96986065Y-197653897D01*
X96501549Y-197848115D01*
X96209363Y-198020633D01*
X95984000Y-198202104D01*
X95737220Y-198450465D01*
X95500010Y-198727659D01*
X95303356Y-198995629D01*
X95178244Y-199216316D01*
X95149826Y-199321960D01*
X93225617Y-199321960D01*
X93268503Y-199143405D01*
X93589742Y-198449703D01*
X94044762Y-197822289D01*
X94625324Y-197274981D01*
X95323187Y-196821596D01*
X96130111Y-196475953D01*
X96187682Y-196457047D01*
X96814730Y-196305277D01*
X97535178Y-196212543D01*
X98284922Y-196182053D01*
X98999859Y-196217017D01*
G37*
%TD.AperFunction*%
%TA.AperFunction,EtchedComponent*%
G36*
X137435639Y-196223426D02*
G01*
X137816684Y-196233135D01*
X138107902Y-196254744D01*
X138347916Y-196292690D01*
X138575353Y-196351414D01*
X138828838Y-196435354D01*
X138847852Y-196442041D01*
X139489838Y-196698042D01*
X140011307Y-196978603D01*
X140458813Y-197311504D01*
X140725596Y-197562513D01*
X141178265Y-198132350D01*
X141530067Y-198801286D01*
X141761943Y-199522709D01*
X141854832Y-200250008D01*
X141855747Y-200326335D01*
X141855747Y-200603424D01*
X137750989Y-200603424D01*
X133646231Y-200603424D01*
X133700520Y-200958523D01*
X133877912Y-201583088D01*
X134200758Y-202156088D01*
X134649322Y-202651181D01*
X135203868Y-203042021D01*
X135298920Y-203092019D01*
X135925801Y-203320794D01*
X136620268Y-203426052D01*
X137341985Y-203411532D01*
X138050611Y-203280975D01*
X138705811Y-203038123D01*
X139213380Y-202729000D01*
X139498335Y-202466718D01*
X139747509Y-202157165D01*
X139930027Y-201846143D01*
X140015012Y-201579455D01*
X140017589Y-201536051D01*
X140025533Y-201457499D01*
X140068602Y-201405801D01*
X140175655Y-201375351D01*
X140375547Y-201360544D01*
X140697137Y-201355774D01*
X140947600Y-201355398D01*
X141877611Y-201355398D01*
X141829677Y-201650783D01*
X141653168Y-202239154D01*
X141330058Y-202803909D01*
X140880770Y-203326652D01*
X140325726Y-203788986D01*
X139685348Y-204172515D01*
X138980060Y-204458842D01*
X138597194Y-204562590D01*
X137995796Y-204664777D01*
X137328966Y-204723312D01*
X136670216Y-204734427D01*
X136093057Y-204694353D01*
X136074647Y-204691896D01*
X135244442Y-204510616D01*
X134441718Y-204205748D01*
X133704973Y-203796305D01*
X133072701Y-203301303D01*
X132890489Y-203119160D01*
X132414319Y-202494495D01*
X132081314Y-201806888D01*
X131890755Y-201078374D01*
X131841921Y-200330989D01*
X131934093Y-199586768D01*
X131998166Y-199388582D01*
X133918247Y-199388582D01*
X133998674Y-199398988D01*
X134227461Y-199408546D01*
X134585861Y-199416972D01*
X135055128Y-199423983D01*
X135616518Y-199429295D01*
X136251283Y-199432622D01*
X136893423Y-199433687D01*
X139868599Y-199433687D01*
X139814249Y-199203918D01*
X139679234Y-198880457D01*
X139437240Y-198525736D01*
X139126550Y-198191101D01*
X138944617Y-198037531D01*
X138551115Y-197790841D01*
X138111812Y-197628077D01*
X137592714Y-197541274D01*
X136959829Y-197522464D01*
X136769725Y-197527831D01*
X136193131Y-197569531D01*
X135735406Y-197656761D01*
X135350726Y-197806738D01*
X134993270Y-198036678D01*
X134665049Y-198318649D01*
X134422343Y-198572983D01*
X134199154Y-198853979D01*
X134024750Y-199119706D01*
X133928399Y-199328233D01*
X133918247Y-199388582D01*
X131998166Y-199388582D01*
X132166551Y-198867745D01*
X132538575Y-198195958D01*
X133049445Y-197593440D01*
X133071722Y-197572076D01*
X133504460Y-197195993D01*
X133940767Y-196901619D01*
X134437403Y-196655400D01*
X134962654Y-196454274D01*
X135233025Y-196364055D01*
X135467234Y-196300608D01*
X135704587Y-196259267D01*
X135984385Y-196235365D01*
X136345933Y-196224238D01*
X136828533Y-196221218D01*
X136926141Y-196221176D01*
X137435639Y-196223426D01*
G37*
%TD.AperFunction*%
%TA.AperFunction,EtchedComponent*%
G36*
X109273936Y-196286068D02*
G01*
X109828259Y-196338564D01*
X110350384Y-196431962D01*
X110884583Y-196571122D01*
X111097025Y-196636085D01*
X111771235Y-196903630D01*
X112297693Y-197238094D01*
X112685621Y-197649099D01*
X112944240Y-198146265D01*
X113077933Y-198702602D01*
X113132615Y-199099477D01*
X112221378Y-199099477D01*
X111310142Y-199099477D01*
X111211092Y-198729139D01*
X111067931Y-198408244D01*
X110818082Y-198145575D01*
X110448355Y-197934388D01*
X109945558Y-197767942D01*
X109296499Y-197639490D01*
X108998316Y-197597913D01*
X108472112Y-197558649D01*
X107911389Y-197563482D01*
X107349011Y-197607437D01*
X106817843Y-197685540D01*
X106350751Y-197792816D01*
X105980597Y-197924292D01*
X105740246Y-198074994D01*
X105721979Y-198093811D01*
X105577622Y-198364717D01*
X105537216Y-198700197D01*
X105604495Y-199031109D01*
X105664904Y-199150736D01*
X105861588Y-199376472D01*
X106148802Y-199559812D01*
X106539098Y-199703452D01*
X107045029Y-199810089D01*
X107679146Y-199882419D01*
X108454002Y-199923138D01*
X109315348Y-199935003D01*
X110140768Y-199950047D01*
X110821960Y-199998686D01*
X111379382Y-200086178D01*
X111833492Y-200217782D01*
X112204747Y-200398757D01*
X112513604Y-200634363D01*
X112672004Y-200797880D01*
X112923827Y-201203826D01*
X113062630Y-201690802D01*
X113092174Y-202220312D01*
X113016220Y-202753860D01*
X112838528Y-203252948D01*
X112562857Y-203679080D01*
X112372202Y-203867278D01*
X111899027Y-204183811D01*
X111328718Y-204446234D01*
X110774168Y-204613052D01*
X110435176Y-204665340D01*
X109970922Y-204705526D01*
X109422846Y-204733082D01*
X108832391Y-204747480D01*
X108240998Y-204748192D01*
X107690108Y-204734689D01*
X107221163Y-204706442D01*
X106875604Y-204662924D01*
X106874801Y-204662771D01*
X106287592Y-204528888D01*
X105716504Y-204358742D01*
X105201899Y-204166912D01*
X104784144Y-203967978D01*
X104566814Y-203829160D01*
X104243517Y-203498459D01*
X103974398Y-203066401D01*
X103793878Y-202597562D01*
X103738150Y-202274477D01*
X103713970Y-201898490D01*
X104602351Y-201874875D01*
X105490731Y-201851259D01*
X105545494Y-202143170D01*
X105694365Y-202492045D01*
X105995773Y-202796847D01*
X106439484Y-203051325D01*
X107015265Y-203249227D01*
X107533444Y-203357713D01*
X108152218Y-203424030D01*
X108811462Y-203436022D01*
X109465126Y-203397160D01*
X110067159Y-203310918D01*
X110571511Y-203180770D01*
X110738330Y-203115984D01*
X111061622Y-202900407D01*
X111271827Y-202610318D01*
X111357114Y-202281858D01*
X111305650Y-201951168D01*
X111187340Y-201744526D01*
X111041051Y-201602018D01*
X110837253Y-201486826D01*
X110557002Y-201395099D01*
X110181353Y-201322984D01*
X109691360Y-201266627D01*
X109068078Y-201222177D01*
X108476470Y-201193263D01*
X107677322Y-201151424D01*
X107014658Y-201096380D01*
X106458037Y-201022667D01*
X105977019Y-200924820D01*
X105541162Y-200797373D01*
X105120026Y-200634863D01*
X104953079Y-200560745D01*
X104564337Y-200359093D01*
X104290075Y-200153780D01*
X104101320Y-199937429D01*
X103850405Y-199465590D01*
X103725375Y-198943835D01*
X103723019Y-198408574D01*
X103840128Y-197896215D01*
X104073491Y-197443167D01*
X104347701Y-197142849D01*
X104789894Y-196856067D01*
X105367848Y-196627956D01*
X106087336Y-196457116D01*
X106954130Y-196342149D01*
X107891602Y-196284352D01*
X108643142Y-196269617D01*
X109273936Y-196286068D01*
G37*
%TD.AperFunction*%
%TA.AperFunction,EtchedComponent*%
G36*
X87485730Y-196414326D02*
G01*
X88284149Y-196555437D01*
X89017180Y-196781171D01*
X89642196Y-197083902D01*
X89661792Y-197095922D01*
X89884534Y-197231180D01*
X90041277Y-197321594D01*
X90089584Y-197344872D01*
X90124780Y-197272459D01*
X90185366Y-197088631D01*
X90220220Y-196968885D01*
X90325490Y-196592898D01*
X91155647Y-196592898D01*
X91985805Y-196592898D01*
X91957670Y-200833194D01*
X91951211Y-201784010D01*
X91945058Y-202582813D01*
X91938515Y-203244688D01*
X91930885Y-203784725D01*
X91921468Y-204218010D01*
X91909569Y-204559633D01*
X91894488Y-204824680D01*
X91875529Y-205028239D01*
X91851993Y-205185398D01*
X91823184Y-205311246D01*
X91788402Y-205420869D01*
X91746951Y-205529356D01*
X91739664Y-205547588D01*
X91569299Y-205882819D01*
X91343606Y-206216105D01*
X91211976Y-206369784D01*
X90833045Y-206677996D01*
X90331885Y-206964220D01*
X89753373Y-207207062D01*
X89142384Y-207385129D01*
X89033118Y-207408510D01*
X88638913Y-207464251D01*
X88121893Y-207502854D01*
X87525515Y-207523831D01*
X86893236Y-207526692D01*
X86268516Y-207510948D01*
X85694811Y-207476110D01*
X85421234Y-207449153D01*
X84666408Y-207304478D01*
X84038886Y-207061845D01*
X83542341Y-206724171D01*
X83180449Y-206294369D01*
X82956884Y-205775355D01*
X82893113Y-205443762D01*
X82844312Y-205031714D01*
X83816806Y-205031714D01*
X84234132Y-205033899D01*
X84512149Y-205043338D01*
X84678627Y-205064350D01*
X84761334Y-205101259D01*
X84788041Y-205158387D01*
X84789299Y-205183064D01*
X84862809Y-205388218D01*
X85058402Y-205605407D01*
X85338674Y-205796788D01*
X85448665Y-205850153D01*
X85709907Y-205922192D01*
X86096429Y-205976286D01*
X86567282Y-206011601D01*
X87081520Y-206027304D01*
X87598194Y-206022564D01*
X88076357Y-205996546D01*
X88475061Y-205948418D01*
X88635093Y-205914968D01*
X89173701Y-205745328D01*
X89565074Y-205538364D01*
X89828426Y-205271556D01*
X89982969Y-204922381D01*
X90047918Y-204468320D01*
X90053115Y-204252820D01*
X90053115Y-203582190D01*
X89865122Y-203758603D01*
X89471331Y-204038160D01*
X88949506Y-204276040D01*
X88334826Y-204466425D01*
X87662470Y-204603497D01*
X86967616Y-204681437D01*
X86285444Y-204694427D01*
X85651131Y-204636649D01*
X85189761Y-204531882D01*
X84502321Y-204235250D01*
X83894686Y-203804812D01*
X83378910Y-203259513D01*
X82967048Y-202618304D01*
X82671154Y-201900130D01*
X82503283Y-201123940D01*
X82481886Y-200496304D01*
X84465590Y-200496304D01*
X84505491Y-201136497D01*
X84668007Y-201744446D01*
X84946971Y-202291328D01*
X85336215Y-202748321D01*
X85569942Y-202933880D01*
X86139635Y-203228763D01*
X86778420Y-203392851D01*
X87449007Y-203424216D01*
X88114108Y-203320932D01*
X88707610Y-203095982D01*
X89215767Y-202763194D01*
X89598770Y-202341932D01*
X89861159Y-201822543D01*
X90007476Y-201195373D01*
X90042264Y-200450767D01*
X90035557Y-200273280D01*
X89957287Y-199649574D01*
X89780989Y-199132396D01*
X89488921Y-198681723D01*
X89192845Y-198372124D01*
X88869440Y-198091018D01*
X88590912Y-197903914D01*
X88306813Y-197792267D01*
X87966696Y-197737531D01*
X87520113Y-197721162D01*
X87421207Y-197720858D01*
X87008310Y-197726647D01*
X86709324Y-197749921D01*
X86471274Y-197799544D01*
X86241188Y-197884379D01*
X86122329Y-197938188D01*
X85578053Y-198252618D01*
X85160001Y-198638367D01*
X84831125Y-199131168D01*
X84778306Y-199234473D01*
X84554472Y-199852689D01*
X84465590Y-200496304D01*
X82481886Y-200496304D01*
X82475490Y-200308682D01*
X82477865Y-200269214D01*
X82604951Y-199412351D01*
X82864422Y-198640316D01*
X83247003Y-197963667D01*
X83743419Y-197392957D01*
X84344394Y-196938743D01*
X85040654Y-196611580D01*
X85822923Y-196422024D01*
X85863228Y-196416468D01*
X86664548Y-196365461D01*
X87485730Y-196414326D01*
G37*
%TD.AperFunction*%
%TA.AperFunction,EtchedComponent*%
G36*
X113764256Y-181705670D02*
G01*
X113764256Y-183808319D01*
X113133461Y-183808319D01*
X112502666Y-183808319D01*
X112502666Y-181705670D01*
X112502666Y-179603021D01*
X113133461Y-179603021D01*
X113764256Y-179603021D01*
X113764256Y-181705670D01*
G37*
%TD.AperFunction*%
%TA.AperFunction,EtchedComponent*%
G36*
X134622534Y-181705670D02*
G01*
X134622534Y-183808319D01*
X134033792Y-183808319D01*
X133445050Y-183808319D01*
X133445050Y-181705670D01*
X133445050Y-179603021D01*
X134033792Y-179603021D01*
X134622534Y-179603021D01*
X134622534Y-181705670D01*
G37*
%TD.AperFunction*%
%TA.AperFunction,EtchedComponent*%
G36*
X137734454Y-185532491D02*
G01*
X137734454Y-185742756D01*
X120660945Y-185742756D01*
X103587435Y-185742756D01*
X103587435Y-185532491D01*
X103587435Y-185322226D01*
X120660945Y-185322226D01*
X137734454Y-185322226D01*
X137734454Y-185532491D01*
G37*
%TD.AperFunction*%
%TA.AperFunction,EtchedComponent*%
G36*
X130519995Y-175024775D02*
G01*
X130543395Y-176165735D01*
X131335684Y-175024775D01*
X132127974Y-173883815D01*
X132702406Y-173883815D01*
X133276839Y-173883815D01*
X133276839Y-175986464D01*
X133276839Y-178089113D01*
X132690470Y-178089113D01*
X132104102Y-178089113D01*
X132080702Y-176957888D01*
X132057302Y-175826662D01*
X131267558Y-176957888D01*
X130477813Y-178089113D01*
X129858783Y-178089113D01*
X129239752Y-178089113D01*
X129239752Y-175986464D01*
X129239752Y-173883815D01*
X129868174Y-173883815D01*
X130496595Y-173883815D01*
X130519995Y-175024775D01*
G37*
%TD.AperFunction*%
%TA.AperFunction,EtchedComponent*%
G36*
X123856971Y-175481829D02*
G01*
X123856971Y-177079842D01*
X124361607Y-177079842D01*
X124866243Y-177079842D01*
X124866243Y-175481829D01*
X124866243Y-173883815D01*
X125497037Y-173883815D01*
X126127832Y-173883815D01*
X126127832Y-175481829D01*
X126127832Y-177079842D01*
X126590415Y-177079842D01*
X127052998Y-177079842D01*
X127052998Y-175481829D01*
X127052998Y-173883815D01*
X127683792Y-173883815D01*
X128314587Y-173883815D01*
X128314587Y-175986464D01*
X128314587Y-178089113D01*
X125497037Y-178089113D01*
X122679488Y-178089113D01*
X122679488Y-175986464D01*
X122679488Y-173883815D01*
X123268229Y-173883815D01*
X123856971Y-173883815D01*
X123856971Y-175481829D01*
G37*
%TD.AperFunction*%
%TA.AperFunction,EtchedComponent*%
G36*
X137566243Y-174388451D02*
G01*
X137566243Y-174893087D01*
X136514918Y-174893087D01*
X135463594Y-174893087D01*
X135463594Y-175187458D01*
X135463594Y-175481829D01*
X136388759Y-175481829D01*
X137313925Y-175481829D01*
X137313925Y-175986464D01*
X137313925Y-176491100D01*
X136388759Y-176491100D01*
X135463594Y-176491100D01*
X135463594Y-176827524D01*
X135463594Y-177163948D01*
X136556971Y-177163948D01*
X137650349Y-177163948D01*
X137650349Y-177626531D01*
X137650349Y-178089113D01*
X135926176Y-178089113D01*
X134202004Y-178089113D01*
X134202004Y-175986464D01*
X134202004Y-173883815D01*
X135884123Y-173883815D01*
X137566243Y-173883815D01*
X137566243Y-174388451D01*
G37*
%TD.AperFunction*%
%TA.AperFunction,EtchedComponent*%
G36*
X90019236Y-181397614D02*
G01*
X90372619Y-181485009D01*
X90598338Y-181625377D01*
X90795958Y-181848301D01*
X90952906Y-182084147D01*
X91044736Y-182375220D01*
X91084840Y-182757830D01*
X91073563Y-183163566D01*
X91011248Y-183524016D01*
X90944782Y-183699267D01*
X90652782Y-184103780D01*
X90250198Y-184457191D01*
X89794651Y-184709786D01*
X89756238Y-184724677D01*
X89517343Y-184798266D01*
X89167496Y-184886728D01*
X88750607Y-184981060D01*
X88310588Y-185072253D01*
X87891348Y-185151303D01*
X87536797Y-185209204D01*
X87290847Y-185236949D01*
X87252833Y-185238120D01*
X87202590Y-185227531D01*
X87164955Y-185181723D01*
X87138122Y-185079639D01*
X87120288Y-184900218D01*
X87109649Y-184622402D01*
X87104399Y-184225133D01*
X87102736Y-183687350D01*
X87102666Y-183485413D01*
X87102666Y-181732705D01*
X88180689Y-181540200D01*
X88933872Y-181425583D01*
X89543187Y-181377930D01*
X90019236Y-181397614D01*
G37*
%TD.AperFunction*%
%TA.AperFunction,EtchedComponent*%
G36*
X117296706Y-175986464D02*
G01*
X117296706Y-178089113D01*
X116665911Y-178089113D01*
X116035117Y-178089113D01*
X116035117Y-176491100D01*
X116035117Y-174893087D01*
X115458461Y-174893087D01*
X114881805Y-174893087D01*
X114836962Y-175965438D01*
X114785846Y-176663176D01*
X114692113Y-177209987D01*
X114547612Y-177619586D01*
X114344194Y-177905687D01*
X114073708Y-178082007D01*
X113728003Y-178162261D01*
X113526511Y-178170662D01*
X113237118Y-178155287D01*
X113002411Y-178118488D01*
X112908899Y-178086142D01*
X112836352Y-178029242D01*
X112811688Y-177942580D01*
X112835379Y-177783583D01*
X112907901Y-177509673D01*
X112915636Y-177482198D01*
X113001538Y-177198879D01*
X113075420Y-177041748D01*
X113165105Y-176973568D01*
X113298415Y-176957101D01*
X113308080Y-176956949D01*
X113458126Y-176926743D01*
X113572048Y-176828320D01*
X113654399Y-176643197D01*
X113709731Y-176352893D01*
X113742598Y-175938924D01*
X113757552Y-175382808D01*
X113759509Y-175124378D01*
X113764256Y-173883815D01*
X115530481Y-173883815D01*
X117296706Y-173883815D01*
X117296706Y-175986464D01*
G37*
%TD.AperFunction*%
%TA.AperFunction,EtchedComponent*%
G36*
X119399355Y-174547359D02*
G01*
X119399355Y-175210903D01*
X120303494Y-175242083D01*
X120733336Y-175262204D01*
X121036819Y-175292723D01*
X121255774Y-175341321D01*
X121432033Y-175415681D01*
X121517354Y-175465003D01*
X121799590Y-175732081D01*
X121987476Y-176099200D01*
X122074390Y-176522878D01*
X122053708Y-176959631D01*
X121918807Y-177365976D01*
X121829333Y-177513145D01*
X121668521Y-177705911D01*
X121480676Y-177851234D01*
X121240738Y-177955418D01*
X120923648Y-178024763D01*
X120504345Y-178065574D01*
X119957769Y-178084152D01*
X119546541Y-178087266D01*
X118137766Y-178089113D01*
X118137766Y-177163948D01*
X119399355Y-177163948D01*
X119983328Y-177163948D01*
X120302740Y-177157042D01*
X120500033Y-177128340D01*
X120621013Y-177065866D01*
X120698228Y-176977022D01*
X120829131Y-176697303D01*
X120804759Y-176466793D01*
X120633038Y-176293945D01*
X120321894Y-176187215D01*
X119927330Y-176154676D01*
X119399355Y-176154676D01*
X119399355Y-176659312D01*
X119399355Y-177163948D01*
X118137766Y-177163948D01*
X118137766Y-176659312D01*
X118137766Y-175986464D01*
X118137766Y-173883815D01*
X118768560Y-173883815D01*
X119399355Y-173883815D01*
X119399355Y-174547359D01*
G37*
%TD.AperFunction*%
%TA.AperFunction,EtchedComponent*%
G36*
X109390746Y-180275868D02*
G01*
X109390746Y-180948716D01*
X110247304Y-180948716D01*
X110858162Y-180977283D01*
X111327537Y-181070089D01*
X111673396Y-181237791D01*
X111913708Y-181491048D01*
X112066439Y-181840517D01*
X112116034Y-182057203D01*
X112124014Y-182534126D01*
X111986782Y-182974523D01*
X111723821Y-183346649D01*
X111354610Y-183618758D01*
X111096191Y-183719156D01*
X110899782Y-183750468D01*
X110574340Y-183776955D01*
X110159023Y-183796446D01*
X109692989Y-183806770D01*
X109495878Y-183807850D01*
X108213262Y-183808319D01*
X108213262Y-182890522D01*
X109390746Y-182890522D01*
X109991833Y-182865811D01*
X110313665Y-182846560D01*
X110515720Y-182810708D01*
X110646431Y-182742044D01*
X110754232Y-182624353D01*
X110768086Y-182605954D01*
X110879896Y-182432989D01*
X110890046Y-182302006D01*
X110815900Y-182143372D01*
X110738911Y-182027513D01*
X110640077Y-181957238D01*
X110476975Y-181918773D01*
X110207186Y-181898347D01*
X110039647Y-181891370D01*
X109390746Y-181866806D01*
X109390746Y-182378664D01*
X109390746Y-182890522D01*
X108213262Y-182890522D01*
X108213262Y-182378664D01*
X108213262Y-181705670D01*
X108213262Y-179603021D01*
X108802004Y-179603021D01*
X109390746Y-179603021D01*
X109390746Y-180275868D01*
G37*
%TD.AperFunction*%
%TA.AperFunction,EtchedComponent*%
G36*
X130333130Y-180275868D02*
G01*
X130333130Y-180948716D01*
X131195216Y-180948847D01*
X131727641Y-180965747D01*
X132127391Y-181024106D01*
X132427360Y-181135690D01*
X132660444Y-181312265D01*
X132840882Y-181537458D01*
X132950473Y-181727608D01*
X133005063Y-181920528D01*
X133016857Y-182178913D01*
X133008173Y-182396855D01*
X132947343Y-182849742D01*
X132806627Y-183186556D01*
X132562541Y-183449696D01*
X132342881Y-183598054D01*
X132220431Y-183659980D01*
X132075426Y-183705932D01*
X131880104Y-183738970D01*
X131606702Y-183762155D01*
X131227459Y-183778546D01*
X130714612Y-183791204D01*
X130564421Y-183794103D01*
X129071541Y-183821941D01*
X129071541Y-182883153D01*
X130333130Y-182883153D01*
X130861105Y-182883153D01*
X131266371Y-182855453D01*
X131538273Y-182775185D01*
X131576005Y-182752225D01*
X131717271Y-182572658D01*
X131769129Y-182337071D01*
X131729580Y-182110767D01*
X131600249Y-181960947D01*
X131433454Y-181915478D01*
X131161470Y-181883973D01*
X130885348Y-181873882D01*
X130333130Y-181873882D01*
X130333130Y-182378517D01*
X130333130Y-182883153D01*
X129071541Y-182883153D01*
X129071541Y-182378517D01*
X129071541Y-181712481D01*
X129071541Y-179603021D01*
X129702335Y-179603021D01*
X130333130Y-179603021D01*
X130333130Y-180275868D01*
G37*
%TD.AperFunction*%
%TA.AperFunction,EtchedComponent*%
G36*
X107288097Y-174388451D02*
G01*
X107288097Y-174893087D01*
X106026507Y-174893087D01*
X104764918Y-174893087D01*
X104764918Y-175178599D01*
X104764918Y-175464111D01*
X105753163Y-175494078D01*
X106198123Y-175511720D01*
X106513514Y-175537330D01*
X106737971Y-175577473D01*
X106910130Y-175638716D01*
X107046910Y-175713945D01*
X107349409Y-175989643D01*
X107522385Y-176364232D01*
X107569729Y-176846251D01*
X107569330Y-176859953D01*
X107503873Y-177260668D01*
X107321917Y-177571613D01*
X107001435Y-177825352D01*
X106865849Y-177899875D01*
X106718308Y-177969225D01*
X106568958Y-178019277D01*
X106387802Y-178053141D01*
X106144846Y-178073929D01*
X105810092Y-178084753D01*
X105353544Y-178088723D01*
X105041468Y-178089113D01*
X103587435Y-178089113D01*
X103587435Y-177163948D01*
X104764918Y-177163948D01*
X105420945Y-177163948D01*
X105790286Y-177150622D01*
X106055309Y-177113585D01*
X106177898Y-177063021D01*
X106270155Y-176873664D01*
X106250918Y-176660061D01*
X106128775Y-176501315D01*
X106116143Y-176494059D01*
X105952303Y-176450126D01*
X105679584Y-176418834D01*
X105359189Y-176406994D01*
X104764918Y-176406994D01*
X104764918Y-176785471D01*
X104764918Y-177163948D01*
X103587435Y-177163948D01*
X103587435Y-176785471D01*
X103587435Y-175986464D01*
X103587435Y-173883815D01*
X105437766Y-173883815D01*
X107288097Y-173883815D01*
X107288097Y-174388451D01*
G37*
%TD.AperFunction*%
%TA.AperFunction,EtchedComponent*%
G36*
X110973451Y-173920611D02*
G01*
X111542216Y-174121354D01*
X112012082Y-174450744D01*
X112372923Y-174902402D01*
X112544329Y-175258837D01*
X112649905Y-175731625D01*
X112647669Y-176259115D01*
X112542834Y-176771422D01*
X112407795Y-177089763D01*
X112139248Y-177450068D01*
X111774623Y-177773814D01*
X111374234Y-178012263D01*
X111175873Y-178085278D01*
X110696002Y-178166241D01*
X110169946Y-178170683D01*
X109665727Y-178102621D01*
X109264587Y-177972433D01*
X108749543Y-177654666D01*
X108378562Y-177253649D01*
X108146714Y-176761429D01*
X108049070Y-176170057D01*
X108045050Y-176005680D01*
X108049768Y-175964203D01*
X109307880Y-175964203D01*
X109353059Y-176381389D01*
X109500164Y-176695037D01*
X109771039Y-176949533D01*
X109803912Y-176972185D01*
X110145646Y-177133451D01*
X110483759Y-177138198D01*
X110815361Y-177010264D01*
X111130915Y-176763274D01*
X111322137Y-176450885D01*
X111397534Y-176103688D01*
X111365612Y-175752273D01*
X111234880Y-175427230D01*
X111013843Y-175159151D01*
X110711009Y-174978624D01*
X110334885Y-174916241D01*
X110234694Y-174922243D01*
X109947787Y-174983120D01*
X109721011Y-175124730D01*
X109582873Y-175262042D01*
X109403837Y-175489042D01*
X109324055Y-175705487D01*
X109307880Y-175964203D01*
X108049768Y-175964203D01*
X108115816Y-175383591D01*
X108322316Y-174855967D01*
X108655853Y-174431043D01*
X109107731Y-174117056D01*
X109669254Y-173922242D01*
X110315911Y-173854894D01*
X110973451Y-173920611D01*
G37*
%TD.AperFunction*%
%TA.AperFunction,EtchedComponent*%
G36*
X121828082Y-179554035D02*
G01*
X122384429Y-179702599D01*
X122868172Y-179967613D01*
X123260937Y-180337392D01*
X123544349Y-180800251D01*
X123700035Y-181344504D01*
X123724442Y-181658294D01*
X123692319Y-182097089D01*
X123599046Y-182504029D01*
X123576812Y-182566212D01*
X123348574Y-182963045D01*
X123001297Y-183330657D01*
X122583445Y-183624391D01*
X122281363Y-183759949D01*
X121859472Y-183853129D01*
X121373446Y-183884008D01*
X120899588Y-183852074D01*
X120553087Y-183771548D01*
X119993726Y-183492971D01*
X119559797Y-183109171D01*
X119258882Y-182634951D01*
X119098563Y-182085117D01*
X119093338Y-181822321D01*
X120354034Y-181822321D01*
X120447672Y-182153931D01*
X120628253Y-182444665D01*
X120879542Y-182670215D01*
X121185303Y-182806272D01*
X121529302Y-182828528D01*
X121895304Y-182712677D01*
X121983863Y-182662090D01*
X122233808Y-182414220D01*
X122389325Y-182069694D01*
X122439876Y-181677656D01*
X122374922Y-181287252D01*
X122311056Y-181136354D01*
X122076355Y-180850012D01*
X121751825Y-180671040D01*
X121384155Y-180608784D01*
X121020034Y-180672590D01*
X120757118Y-180825310D01*
X120492522Y-181133702D01*
X120363572Y-181474142D01*
X120354034Y-181822321D01*
X119093338Y-181822321D01*
X119086422Y-181474472D01*
X119161137Y-181053722D01*
X119336603Y-180651749D01*
X119635886Y-180264137D01*
X120016855Y-179932743D01*
X120437378Y-179699422D01*
X120571077Y-179652993D01*
X121217507Y-179533605D01*
X121828082Y-179554035D01*
G37*
%TD.AperFunction*%
%TA.AperFunction,EtchedComponent*%
G36*
X126238991Y-179608960D02*
G01*
X126693864Y-179625302D01*
X127078582Y-179649838D01*
X127352943Y-179680358D01*
X127428152Y-179695064D01*
X127821643Y-179865278D01*
X128106171Y-180132110D01*
X128268699Y-180464969D01*
X128296190Y-180833262D01*
X128175608Y-181206395D01*
X128114629Y-181305974D01*
X127899388Y-181621179D01*
X128094024Y-181748710D01*
X128337527Y-181999027D01*
X128462935Y-182325594D01*
X128474779Y-182689512D01*
X128377586Y-183051881D01*
X128175885Y-183373804D01*
X127876750Y-183614997D01*
X127751804Y-183670321D01*
X127590235Y-183712049D01*
X127366001Y-183742692D01*
X127053055Y-183764764D01*
X126625353Y-183780777D01*
X126056851Y-183793243D01*
X126022700Y-183793845D01*
X124445713Y-183821425D01*
X124445713Y-182883153D01*
X125707302Y-182883153D01*
X126301573Y-182883153D01*
X126623821Y-182871176D01*
X126896061Y-182839787D01*
X127058527Y-182796088D01*
X127189501Y-182645432D01*
X127221209Y-182504676D01*
X127177536Y-182329412D01*
X127032839Y-182213576D01*
X126766604Y-182148726D01*
X126358317Y-182126419D01*
X126301573Y-182126200D01*
X125707302Y-182126200D01*
X125707302Y-182504676D01*
X125707302Y-182883153D01*
X124445713Y-182883153D01*
X124445713Y-182504676D01*
X124445713Y-181712223D01*
X124445713Y-181285140D01*
X125707302Y-181285140D01*
X126193224Y-181285140D01*
X126563186Y-181256996D01*
X126825676Y-181178476D01*
X126866071Y-181154212D01*
X127038107Y-180977521D01*
X127056004Y-180812458D01*
X126933815Y-180673258D01*
X126685595Y-180574153D01*
X126325396Y-180529378D01*
X126247983Y-180528186D01*
X125707302Y-180528186D01*
X125707302Y-180906663D01*
X125707302Y-181285140D01*
X124445713Y-181285140D01*
X124445713Y-180906663D01*
X124445713Y-179603021D01*
X125754164Y-179603021D01*
X126238991Y-179608960D01*
G37*
%TD.AperFunction*%
%TA.AperFunction,EtchedComponent*%
G36*
X105080315Y-179617325D02*
G01*
X105644661Y-179630530D01*
X106067433Y-179647826D01*
X106375268Y-179671876D01*
X106594796Y-179705344D01*
X106752653Y-179750891D01*
X106845117Y-179793771D01*
X107127498Y-180031976D01*
X107308112Y-180355303D01*
X107377143Y-180717536D01*
X107324777Y-181072460D01*
X107173262Y-181338831D01*
X106974321Y-181570113D01*
X107257368Y-181837061D01*
X107424760Y-182013809D01*
X107509121Y-182180087D01*
X107538079Y-182407078D01*
X107540415Y-182566344D01*
X107487916Y-182990190D01*
X107317393Y-183310972D01*
X107009311Y-183558549D01*
X106832125Y-183648826D01*
X106679512Y-183707570D01*
X106500742Y-183749896D01*
X106266499Y-183778380D01*
X105947467Y-183795600D01*
X105514330Y-183804132D01*
X105038262Y-183806472D01*
X103587435Y-183808319D01*
X103587435Y-182883153D01*
X104764918Y-182883153D01*
X105420945Y-182883153D01*
X105790286Y-182869827D01*
X106055309Y-182832790D01*
X106177898Y-182782226D01*
X106270155Y-182592870D01*
X106250918Y-182379266D01*
X106128775Y-182220520D01*
X106116143Y-182213265D01*
X105952303Y-182169332D01*
X105679584Y-182138039D01*
X105359189Y-182126200D01*
X104764918Y-182126200D01*
X104764918Y-182504676D01*
X104764918Y-182883153D01*
X103587435Y-182883153D01*
X103587435Y-182504676D01*
X103587435Y-181698859D01*
X103587435Y-181285140D01*
X104764918Y-181285140D01*
X105206474Y-181283992D01*
X105499972Y-181273691D01*
X105750509Y-181248779D01*
X105838189Y-181231889D01*
X106011139Y-181109946D01*
X106081883Y-180967633D01*
X106079907Y-180763313D01*
X105946925Y-180625792D01*
X105672773Y-180549388D01*
X105295532Y-180528186D01*
X104764918Y-180528186D01*
X104764918Y-180906663D01*
X104764918Y-181285140D01*
X103587435Y-181285140D01*
X103587435Y-180906663D01*
X103587435Y-179589398D01*
X105080315Y-179617325D01*
G37*
%TD.AperFunction*%
%TA.AperFunction,EtchedComponent*%
G36*
X117363145Y-179619350D02*
G01*
X117845847Y-179793007D01*
X118195150Y-180059606D01*
X118313694Y-180216182D01*
X118445232Y-180571277D01*
X118419144Y-180940602D01*
X118239871Y-181293342D01*
X118142036Y-181406893D01*
X117880712Y-181676511D01*
X118088896Y-181771367D01*
X118370340Y-181982624D01*
X118520529Y-182294951D01*
X118536736Y-182679773D01*
X118435521Y-183050886D01*
X118211310Y-183355141D01*
X117843520Y-183618602D01*
X117759289Y-183664329D01*
X117453967Y-183769776D01*
X117039573Y-183841474D01*
X116572347Y-183876760D01*
X116108532Y-183872968D01*
X115704369Y-183827438D01*
X115493291Y-183771640D01*
X115221018Y-183650913D01*
X114978954Y-183512355D01*
X114946603Y-183489542D01*
X114785305Y-183340616D01*
X114607971Y-183135479D01*
X114454053Y-182925360D01*
X114363002Y-182761486D01*
X114352998Y-182718764D01*
X114427383Y-182668208D01*
X114617769Y-182604436D01*
X114874998Y-182538200D01*
X115149912Y-182480249D01*
X115393353Y-182441334D01*
X115556165Y-182432206D01*
X115595382Y-182447062D01*
X115710927Y-182657584D01*
X115909331Y-182786718D01*
X116226026Y-182854135D01*
X116348470Y-182865200D01*
X116771161Y-182864512D01*
X117049390Y-182788427D01*
X117190576Y-182633851D01*
X117212600Y-182504676D01*
X117165767Y-182324990D01*
X117012294Y-182207619D01*
X116732719Y-182144173D01*
X116335017Y-182126200D01*
X115782799Y-182126200D01*
X115782799Y-181705670D01*
X115782799Y-181285140D01*
X116224355Y-181283900D01*
X116650987Y-181245676D01*
X116935977Y-181135587D01*
X117073776Y-180956332D01*
X117086441Y-180864610D01*
X117013589Y-180674583D01*
X116824322Y-180540844D01*
X116562580Y-180468858D01*
X116272297Y-180464091D01*
X115997412Y-180532009D01*
X115781861Y-180678077D01*
X115762989Y-180699977D01*
X115610382Y-180888438D01*
X115065796Y-180741025D01*
X114791352Y-180656514D01*
X114595681Y-180576749D01*
X114521209Y-180519089D01*
X114573504Y-180419590D01*
X114707846Y-180243839D01*
X114825974Y-180107227D01*
X115177636Y-179813464D01*
X115616004Y-179625220D01*
X116160586Y-179536687D01*
X116742333Y-179536599D01*
X117363145Y-179619350D01*
G37*
%TD.AperFunction*%
%TA.AperFunction,EtchedComponent*%
G36*
X95912872Y-174027985D02*
G01*
X96623700Y-174244262D01*
X97230995Y-174565975D01*
X97721562Y-174987854D01*
X98059208Y-175461308D01*
X98366829Y-176191987D01*
X98520722Y-176951201D01*
X98524557Y-177715743D01*
X98382009Y-178462404D01*
X98096748Y-179167977D01*
X97672447Y-179809255D01*
X97310511Y-180192949D01*
X97116515Y-180377467D01*
X96989506Y-180509386D01*
X96957697Y-180556838D01*
X97521698Y-180849521D01*
X97953023Y-181117844D01*
X98280218Y-181385432D01*
X98531829Y-181675912D01*
X98736403Y-182012911D01*
X98750706Y-182040838D01*
X99058243Y-182826146D01*
X99227168Y-183672793D01*
X99255583Y-184544116D01*
X99141592Y-185403457D01*
X98957074Y-186029936D01*
X98623947Y-186685940D01*
X98138265Y-187295125D01*
X97511442Y-187848221D01*
X96754888Y-188335957D01*
X95880018Y-188749064D01*
X95387103Y-188929646D01*
X95188640Y-188984144D01*
X94852753Y-189062947D01*
X94399729Y-189162146D01*
X93849851Y-189277832D01*
X93223404Y-189406095D01*
X92540673Y-189543025D01*
X91821942Y-189684712D01*
X91087495Y-189827248D01*
X90357617Y-189966722D01*
X89652593Y-190099225D01*
X88992708Y-190220846D01*
X88398245Y-190327678D01*
X87889489Y-190415808D01*
X87486725Y-190481329D01*
X87210237Y-190520331D01*
X87086338Y-190529540D01*
X86979702Y-190503114D01*
X86734866Y-190432291D01*
X86373894Y-190323779D01*
X85918846Y-190184282D01*
X85391788Y-190020506D01*
X84814779Y-189839158D01*
X84812282Y-189838368D01*
X84245248Y-189656651D01*
X83738205Y-189489285D01*
X83311106Y-189343256D01*
X82983904Y-189225550D01*
X82776553Y-189143151D01*
X82709006Y-189103044D01*
X82709633Y-189102293D01*
X82803513Y-189076306D01*
X83044731Y-189024588D01*
X83414974Y-188950657D01*
X83895930Y-188858028D01*
X84469289Y-188750219D01*
X85116736Y-188630747D01*
X85819961Y-188503129D01*
X85967236Y-188476660D01*
X86961923Y-188296663D01*
X87807941Y-188139591D01*
X88522631Y-188001253D01*
X89123337Y-187877459D01*
X89627400Y-187764018D01*
X90052163Y-187656739D01*
X90414970Y-187551432D01*
X90733161Y-187443907D01*
X91024080Y-187329972D01*
X91305069Y-187205438D01*
X91386046Y-187167279D01*
X92315632Y-186654044D01*
X93091395Y-186073229D01*
X93713883Y-185424064D01*
X94183648Y-184705782D01*
X94501240Y-183917613D01*
X94667210Y-183058788D01*
X94694129Y-182546729D01*
X94631644Y-181625450D01*
X94437558Y-180797742D01*
X94120006Y-180071252D01*
X93687119Y-179453627D01*
X93147033Y-178952515D01*
X92507880Y-178575563D01*
X91777794Y-178330418D01*
X90964908Y-178224727D01*
X90134014Y-178259195D01*
X89801476Y-178304501D01*
X89360546Y-178373234D01*
X88867844Y-178456183D01*
X88379994Y-178544136D01*
X88364256Y-178547088D01*
X87950331Y-178624621D01*
X87600814Y-178689679D01*
X87346301Y-178736599D01*
X87217388Y-178759715D01*
X87207799Y-178761161D01*
X87199350Y-178683051D01*
X87192522Y-178470641D01*
X87188086Y-178157844D01*
X87186772Y-177836796D01*
X87188557Y-177464524D01*
X87193395Y-177163101D01*
X87200515Y-176966666D01*
X87207799Y-176907741D01*
X87292369Y-176892271D01*
X87524185Y-176849883D01*
X87885023Y-176783911D01*
X88356659Y-176697684D01*
X88920869Y-176594536D01*
X89559430Y-176477798D01*
X90254117Y-176350802D01*
X90340746Y-176334965D01*
X93452666Y-175766078D01*
X93476430Y-174877634D01*
X93500195Y-173989190D01*
X94233384Y-173932822D01*
X95111703Y-173922415D01*
X95912872Y-174027985D01*
G37*
%TD.AperFunction*%
%TO.C,REF\u002A\u002A*%
D15*
X36149000Y-218501000D02*
G75*
G02*
X35049000Y-218501000I-550000J0D01*
G01*
X35049000Y-218501000D02*
G75*
G02*
X36149000Y-218501000I550000J0D01*
G01*
D16*
%TA.AperFunction,EtchedComponent*%
%TO.C,G\u002A\u002A\u002A*%
G36*
X152252295Y-173018747D02*
G01*
X152260934Y-173023196D01*
X152381598Y-173148568D01*
X152402294Y-173308453D01*
X152336144Y-173459511D01*
X152196271Y-173558399D01*
X152093916Y-173574849D01*
X151936380Y-173537673D01*
X151867376Y-173492470D01*
X151794915Y-173344429D01*
X151825389Y-173189395D01*
X151930585Y-173061011D01*
X152082291Y-172992915D01*
X152252295Y-173018747D01*
G37*
%TD.AperFunction*%
%TA.AperFunction,EtchedComponent*%
G36*
X156895314Y-173242009D02*
G01*
X156971426Y-173280869D01*
X157009807Y-173369036D01*
X157012741Y-173526310D01*
X156982513Y-173772490D01*
X156921408Y-174127376D01*
X156897457Y-174257673D01*
X156835198Y-174598159D01*
X156783199Y-174890285D01*
X156746091Y-175107442D01*
X156728504Y-175223022D01*
X156727700Y-175233017D01*
X156668004Y-175273787D01*
X156524185Y-175291061D01*
X156521754Y-175291065D01*
X156377098Y-175275111D01*
X156315822Y-175236676D01*
X156315808Y-175236035D01*
X156327320Y-175151913D01*
X156358937Y-174958589D01*
X156406275Y-174681956D01*
X156464955Y-174347910D01*
X156487138Y-174223468D01*
X156548499Y-173879492D01*
X156600175Y-173587843D01*
X156637831Y-173373126D01*
X156657136Y-173259951D01*
X156658760Y-173248768D01*
X156716063Y-173234678D01*
X156779187Y-173232657D01*
X156895314Y-173242009D01*
G37*
%TD.AperFunction*%
%TA.AperFunction,EtchedComponent*%
G36*
X159810138Y-183090956D02*
G01*
X159960791Y-183129484D01*
X160082669Y-183218856D01*
X160165764Y-183306878D01*
X160324516Y-183575315D01*
X160371797Y-183872719D01*
X160313993Y-184164545D01*
X160157493Y-184416244D01*
X159929674Y-184583700D01*
X159680057Y-184675906D01*
X159467144Y-184677076D01*
X159224652Y-184586969D01*
X159212650Y-184581093D01*
X158974196Y-184394299D01*
X158828564Y-184136003D01*
X158792036Y-183905041D01*
X159343331Y-183905041D01*
X159416972Y-184029962D01*
X159576619Y-184078092D01*
X159728662Y-184037812D01*
X159795645Y-183965788D01*
X159796139Y-183806812D01*
X159703760Y-183676974D01*
X159576619Y-183631876D01*
X159438695Y-183685064D01*
X159384392Y-183742680D01*
X159343331Y-183905041D01*
X158792036Y-183905041D01*
X158781942Y-183841214D01*
X158840517Y-183544942D01*
X158987474Y-183306878D01*
X159118312Y-183176496D01*
X159245013Y-183109481D01*
X159421666Y-183085251D01*
X159576619Y-183082687D01*
X159810138Y-183090956D01*
G37*
%TD.AperFunction*%
%TA.AperFunction,EtchedComponent*%
G36*
X151078089Y-182130404D02*
G01*
X151223325Y-182196891D01*
X151565888Y-182436489D01*
X151807384Y-182748303D01*
X151943756Y-183107508D01*
X151970949Y-183489279D01*
X151884905Y-183868793D01*
X151681569Y-184221223D01*
X151573784Y-184341801D01*
X151225022Y-184601854D01*
X150834245Y-184735905D01*
X150419754Y-184739763D01*
X150143482Y-184669458D01*
X149951944Y-184568416D01*
X149740278Y-184411604D01*
X149658238Y-184336755D01*
X149570758Y-184220666D01*
X150312313Y-184220666D01*
X150412381Y-184270106D01*
X150594934Y-184282892D01*
X150811025Y-184262079D01*
X151011709Y-184210723D01*
X151095776Y-184171760D01*
X151338025Y-183952798D01*
X151477615Y-183650933D01*
X151509352Y-183381014D01*
X151490066Y-183141368D01*
X151440662Y-182979600D01*
X151370949Y-182917648D01*
X151314807Y-182945963D01*
X151109143Y-183173045D01*
X150895147Y-183423235D01*
X150690842Y-183673618D01*
X150514250Y-183901278D01*
X150383395Y-184083299D01*
X150316297Y-184196765D01*
X150312313Y-184220666D01*
X149570758Y-184220666D01*
X149405284Y-184001076D01*
X149273118Y-183631396D01*
X149264573Y-183419916D01*
X149722109Y-183419916D01*
X149769849Y-183707993D01*
X149867491Y-183896797D01*
X150009444Y-184077261D01*
X150586442Y-183408352D01*
X150803048Y-183154428D01*
X150982866Y-182938276D01*
X151108901Y-182780719D01*
X151164164Y-182702581D01*
X151165299Y-182698976D01*
X151111676Y-182644535D01*
X150992308Y-182578841D01*
X150669428Y-182502330D01*
X150342035Y-182549282D01*
X150042456Y-182710899D01*
X149868897Y-182884627D01*
X149755152Y-183126075D01*
X149722109Y-183419916D01*
X149264573Y-183419916D01*
X149257747Y-183250984D01*
X149355175Y-182883105D01*
X149561409Y-182551026D01*
X149872452Y-182278014D01*
X150026864Y-182189791D01*
X150389161Y-182053914D01*
X150725799Y-182034037D01*
X151078089Y-182130404D01*
G37*
%TD.AperFunction*%
%TA.AperFunction,EtchedComponent*%
G36*
X159693063Y-173256872D02*
G01*
X160140950Y-173367494D01*
X160513859Y-173578428D01*
X160802685Y-173870033D01*
X160998323Y-174222672D01*
X161091666Y-174616703D01*
X161073610Y-175032488D01*
X160935048Y-175450387D01*
X160809865Y-175665681D01*
X160636035Y-175921835D01*
X160950522Y-176198658D01*
X161165047Y-176421964D01*
X161365176Y-176686127D01*
X161450247Y-176827192D01*
X161516510Y-176958844D01*
X161565268Y-177081136D01*
X161599705Y-177218409D01*
X161623008Y-177395010D01*
X161638361Y-177635281D01*
X161648950Y-177963567D01*
X161657960Y-178404212D01*
X161658183Y-178416360D01*
X161665476Y-178858120D01*
X161667570Y-179183287D01*
X161662682Y-179412524D01*
X161649031Y-179566492D01*
X161624834Y-179665854D01*
X161588310Y-179731271D01*
X161540497Y-179780862D01*
X161439126Y-179854419D01*
X161326348Y-179874305D01*
X161150841Y-179845525D01*
X161071880Y-179826565D01*
X160639063Y-179662118D01*
X160288701Y-179410317D01*
X160086211Y-179161182D01*
X160000836Y-178991206D01*
X159942969Y-178785861D01*
X159904086Y-178507051D01*
X159884318Y-178258748D01*
X159853600Y-177914937D01*
X159809694Y-177687415D01*
X159744225Y-177555257D01*
X159648820Y-177497538D01*
X159576619Y-177489924D01*
X159457842Y-177516359D01*
X159374649Y-177609576D01*
X159318222Y-177790442D01*
X159279745Y-178079826D01*
X159268197Y-178219862D01*
X159191708Y-178737856D01*
X159042649Y-179146047D01*
X158813535Y-179455525D01*
X158496879Y-179677377D01*
X158208348Y-179789715D01*
X157956807Y-179859410D01*
X157797076Y-179883545D01*
X157691296Y-179861686D01*
X157601609Y-179793401D01*
X157590712Y-179782648D01*
X157549804Y-179720485D01*
X157520373Y-179615059D01*
X157500697Y-179446309D01*
X157489056Y-179194172D01*
X157483729Y-178838588D01*
X157482835Y-178524877D01*
X157484502Y-178331452D01*
X158102842Y-178331452D01*
X158103383Y-178626666D01*
X158111777Y-178879195D01*
X158128312Y-179058651D01*
X158153274Y-179134648D01*
X158156377Y-179135389D01*
X158241425Y-179092890D01*
X158366529Y-178991500D01*
X158519092Y-178806139D01*
X158608586Y-178576049D01*
X158646529Y-178264955D01*
X158649862Y-178098986D01*
X158686271Y-177683003D01*
X158802557Y-177358462D01*
X159009307Y-177098276D01*
X159057687Y-177055562D01*
X159333555Y-176903129D01*
X159631725Y-176870028D01*
X159924290Y-176947801D01*
X160183344Y-177127993D01*
X160380978Y-177402149D01*
X160409737Y-177465249D01*
X160459630Y-177654609D01*
X160493597Y-177917356D01*
X160503376Y-178141188D01*
X160538541Y-178551537D01*
X160642212Y-178855705D01*
X160811656Y-179046255D01*
X160842816Y-179064706D01*
X160964904Y-179121569D01*
X161013728Y-179135389D01*
X161034080Y-179071980D01*
X161046769Y-178902222D01*
X161052292Y-178656823D01*
X161051142Y-178366490D01*
X161043815Y-178061929D01*
X161030807Y-177773847D01*
X161012611Y-177532951D01*
X160989724Y-177369947D01*
X160984945Y-177350525D01*
X160845703Y-177050727D01*
X160616633Y-176760750D01*
X160339751Y-176528717D01*
X160199313Y-176450734D01*
X159845782Y-176348009D01*
X159457740Y-176327800D01*
X159092652Y-176389956D01*
X158932384Y-176454048D01*
X158628859Y-176664391D01*
X158371718Y-176945407D01*
X158199640Y-177252377D01*
X158173449Y-177331486D01*
X158145457Y-177493570D01*
X158124166Y-177734517D01*
X158109865Y-178023940D01*
X158102842Y-178331452D01*
X157484502Y-178331452D01*
X157487372Y-177998437D01*
X157505588Y-177585099D01*
X157544392Y-177260833D01*
X157610692Y-177001612D01*
X157711395Y-176783405D01*
X157853411Y-176582186D01*
X158043648Y-176373924D01*
X158124359Y-176293491D01*
X158536793Y-175888619D01*
X158317650Y-175692815D01*
X158142196Y-175568916D01*
X157974848Y-175501262D01*
X157936549Y-175497011D01*
X157745042Y-175483082D01*
X157571602Y-175456413D01*
X157368613Y-175415815D01*
X157488846Y-174736865D01*
X159128644Y-174736865D01*
X159155026Y-174952357D01*
X159244015Y-175096876D01*
X159418750Y-175202202D01*
X159633147Y-175219757D01*
X159829688Y-175151854D01*
X159915970Y-175069844D01*
X160006270Y-174844803D01*
X159985298Y-174625369D01*
X159869598Y-174446403D01*
X159675712Y-174342764D01*
X159564862Y-174329984D01*
X159349404Y-174387814D01*
X159198717Y-174536063D01*
X159128644Y-174736865D01*
X157488846Y-174736865D01*
X157534658Y-174478170D01*
X157596230Y-174137301D01*
X157650675Y-173848574D01*
X157693089Y-173637072D01*
X157718566Y-173527884D01*
X157722295Y-173518692D01*
X157794186Y-173524526D01*
X157956781Y-173562552D01*
X158106573Y-173604566D01*
X158318525Y-173663182D01*
X158445711Y-173677229D01*
X158534049Y-173644228D01*
X158613001Y-173577232D01*
X158872806Y-173407839D01*
X159207232Y-173293095D01*
X159558859Y-173250033D01*
X159693063Y-173256872D01*
G37*
%TD.AperFunction*%
%TA.AperFunction,EtchedComponent*%
G36*
X159891632Y-182088264D02*
G01*
X160303040Y-182271289D01*
X160668722Y-182556915D01*
X160968489Y-182945722D01*
X161007094Y-183014038D01*
X161056379Y-183114283D01*
X161093935Y-183222156D01*
X161121727Y-183358054D01*
X161141721Y-183542373D01*
X161155885Y-183795510D01*
X161166184Y-184137863D01*
X161174585Y-184589828D01*
X161177500Y-184781741D01*
X161199462Y-186274849D01*
X161469257Y-186274849D01*
X161739051Y-186274849D01*
X161739051Y-187098633D01*
X161739051Y-187922416D01*
X161326528Y-187922416D01*
X160914005Y-187922416D01*
X161069096Y-188161837D01*
X161233616Y-188347551D01*
X161380851Y-188402107D01*
X161672844Y-188461523D01*
X161950373Y-188614654D01*
X162153046Y-188827880D01*
X162266952Y-189124164D01*
X162248046Y-189422360D01*
X162099370Y-189704520D01*
X161983558Y-189828299D01*
X161825203Y-189996505D01*
X161753774Y-190153551D01*
X161739051Y-190326043D01*
X161745696Y-190501215D01*
X161792052Y-190579052D01*
X161917754Y-190599056D01*
X162013646Y-190599714D01*
X162288241Y-190599714D01*
X162288241Y-190874308D01*
X162288241Y-191148903D01*
X161464457Y-191148903D01*
X160640673Y-191148903D01*
X160640673Y-190874308D01*
X160640673Y-190599714D01*
X160915268Y-190599714D01*
X161091031Y-190593019D01*
X161169132Y-190546992D01*
X161189203Y-190422719D01*
X161189862Y-190330102D01*
X161158949Y-190103904D01*
X161052470Y-189951687D01*
X161032937Y-189935372D01*
X160778566Y-189667261D01*
X160655383Y-189377080D01*
X160659777Y-189249396D01*
X161224476Y-189249396D01*
X161256162Y-189359650D01*
X161367947Y-189471807D01*
X161464457Y-189501335D01*
X161598945Y-189445973D01*
X161672751Y-189359650D01*
X161712586Y-189213430D01*
X161666761Y-189119380D01*
X161527166Y-189027389D01*
X161381017Y-189033552D01*
X161267169Y-189115133D01*
X161224476Y-189249396D01*
X160659777Y-189249396D01*
X160665857Y-189072690D01*
X160716943Y-188928509D01*
X160747609Y-188827183D01*
X160731844Y-188719338D01*
X160657556Y-188570945D01*
X160512653Y-188347973D01*
X160508439Y-188341765D01*
X160223665Y-187922416D01*
X159309186Y-187922416D01*
X158394706Y-187922416D01*
X158135936Y-188312153D01*
X157998614Y-188528049D01*
X157928433Y-188678042D01*
X157912212Y-188807579D01*
X157936772Y-188962109D01*
X157941450Y-188982815D01*
X157968171Y-189345150D01*
X157871573Y-189651642D01*
X157688293Y-189868779D01*
X157544708Y-190022450D01*
X157488502Y-190198222D01*
X157482835Y-190320687D01*
X157482835Y-190599714D01*
X157757430Y-190599714D01*
X158032024Y-190599714D01*
X158032024Y-190874308D01*
X158032024Y-191148903D01*
X157208241Y-191148903D01*
X156384457Y-191148903D01*
X156384457Y-190874308D01*
X156391731Y-190698495D01*
X156436643Y-190620363D01*
X156553829Y-190600328D01*
X156624727Y-190599714D01*
X156777678Y-190591660D01*
X156846290Y-190541322D01*
X156864355Y-190409432D01*
X156864997Y-190320509D01*
X156844278Y-190119279D01*
X156762196Y-189960529D01*
X156624727Y-189814701D01*
X156471979Y-189650024D01*
X156401913Y-189495500D01*
X156384485Y-189282906D01*
X156384457Y-189269113D01*
X156402085Y-189178552D01*
X156946080Y-189178552D01*
X156968808Y-189334547D01*
X157067113Y-189461157D01*
X157173916Y-189501335D01*
X157287396Y-189453299D01*
X157342801Y-189401660D01*
X157412780Y-189242915D01*
X157361873Y-189116598D01*
X157206486Y-189056373D01*
X157173916Y-189055119D01*
X157006561Y-189088353D01*
X156946080Y-189178552D01*
X156402085Y-189178552D01*
X156447642Y-188944516D01*
X156623442Y-188676710D01*
X156891222Y-188489391D01*
X157125331Y-188418337D01*
X157350614Y-188353671D01*
X157501922Y-188229344D01*
X157561126Y-188145525D01*
X157702264Y-187922416D01*
X157317955Y-187922416D01*
X156933646Y-187922416D01*
X156933646Y-187375470D01*
X157482835Y-187375470D01*
X159319187Y-187357186D01*
X161155538Y-187338903D01*
X161155538Y-187098633D01*
X161155538Y-186858362D01*
X159319187Y-186840079D01*
X157482835Y-186821796D01*
X157482835Y-187098633D01*
X157482835Y-187375470D01*
X156933646Y-187375470D01*
X156933646Y-187098633D01*
X156933646Y-186274849D01*
X157168946Y-186274849D01*
X157404246Y-186274849D01*
X158032024Y-186274849D01*
X159340202Y-186274849D01*
X160648380Y-186274849D01*
X160627364Y-184845123D01*
X160619703Y-184365736D01*
X160611209Y-184003193D01*
X160599600Y-183737045D01*
X160582596Y-183546846D01*
X160557914Y-183412150D01*
X160523273Y-183312509D01*
X160476392Y-183227476D01*
X160440918Y-183174203D01*
X160148443Y-182856190D01*
X159792557Y-182654703D01*
X159479564Y-182583904D01*
X159042000Y-182600645D01*
X158663009Y-182735360D01*
X158355444Y-182981445D01*
X158167406Y-183258063D01*
X158120638Y-183361886D01*
X158085959Y-183478282D01*
X158061603Y-183628678D01*
X158045802Y-183834499D01*
X158036788Y-184117173D01*
X158032794Y-184498126D01*
X158032024Y-184899141D01*
X158032024Y-186274849D01*
X157404246Y-186274849D01*
X157425621Y-184899141D01*
X157426378Y-184850389D01*
X157435159Y-184362207D01*
X157445700Y-183989662D01*
X157460084Y-183711093D01*
X157480397Y-183504840D01*
X157508722Y-183349244D01*
X157547145Y-183222643D01*
X157593640Y-183112215D01*
X157855393Y-182691829D01*
X158192566Y-182370560D01*
X158584966Y-182148988D01*
X159012405Y-182027695D01*
X159454690Y-182007260D01*
X159891632Y-182088264D01*
G37*
%TD.AperFunction*%
%TA.AperFunction,EtchedComponent*%
G36*
X152165219Y-171183423D02*
G01*
X152223546Y-171186507D01*
X152650950Y-171232520D01*
X152969719Y-171320073D01*
X153058520Y-171360676D01*
X153314520Y-171526563D01*
X153578404Y-171751814D01*
X153810333Y-171997646D01*
X153970470Y-172225277D01*
X153992478Y-172269892D01*
X154032872Y-172343824D01*
X154094323Y-172406531D01*
X154196547Y-172466343D01*
X154359263Y-172531587D01*
X154602189Y-172610593D01*
X154945042Y-172711688D01*
X155232536Y-172793676D01*
X155662722Y-172918142D01*
X155974883Y-173015229D01*
X156184205Y-173090800D01*
X156305876Y-173150717D01*
X156355083Y-173200843D01*
X156356462Y-173227530D01*
X156334570Y-173332833D01*
X156295344Y-173544440D01*
X156244036Y-173833227D01*
X156185898Y-174170070D01*
X156176222Y-174227011D01*
X156116791Y-174562417D01*
X156061360Y-174847939D01*
X156015498Y-175056722D01*
X155984773Y-175161913D01*
X155981098Y-175167981D01*
X155899735Y-175179093D01*
X155710364Y-175173625D01*
X155441065Y-175153175D01*
X155119918Y-175119341D01*
X155113973Y-175118636D01*
X154530305Y-175056758D01*
X154067732Y-175025445D01*
X153713454Y-175024887D01*
X153454671Y-175055271D01*
X153278583Y-175116786D01*
X153233344Y-175146300D01*
X153172655Y-175199098D01*
X153127566Y-175264595D01*
X153094369Y-175364261D01*
X153069359Y-175519565D01*
X153048827Y-175751978D01*
X153029068Y-176082970D01*
X153011387Y-176431936D01*
X152965572Y-177345256D01*
X152924217Y-178131673D01*
X152886664Y-178801485D01*
X152852255Y-179364991D01*
X152820331Y-179832489D01*
X152790235Y-180214277D01*
X152761309Y-180520655D01*
X152736454Y-180734867D01*
X152700653Y-181024484D01*
X152687007Y-181212674D01*
X152699490Y-181334097D01*
X152742077Y-181423414D01*
X152818739Y-181515285D01*
X152826958Y-181524327D01*
X153157216Y-181984654D01*
X153381536Y-182507571D01*
X153499081Y-183068409D01*
X153509015Y-183642500D01*
X153410502Y-184205177D01*
X153202706Y-184731772D01*
X152948894Y-185120959D01*
X152867642Y-185226273D01*
X152811634Y-185322002D01*
X152776174Y-185435568D01*
X152756566Y-185594392D01*
X152748113Y-185825893D01*
X152746119Y-186157494D01*
X152746078Y-186305148D01*
X152746078Y-187235930D01*
X152955433Y-187235930D01*
X153275057Y-187302365D01*
X153583264Y-187493871D01*
X153705104Y-187610318D01*
X153801828Y-187739194D01*
X153859767Y-187897209D01*
X153891981Y-188128252D01*
X153901769Y-188271374D01*
X153919421Y-188524257D01*
X153946902Y-188675850D01*
X153999480Y-188762053D01*
X154092423Y-188818768D01*
X154144094Y-188841142D01*
X154537079Y-189073647D01*
X154827405Y-189394581D01*
X155009608Y-189795397D01*
X155078220Y-190267549D01*
X155078625Y-190302342D01*
X155081765Y-190471400D01*
X155083400Y-190616406D01*
X155073790Y-190739197D01*
X155043196Y-190841611D01*
X154981880Y-190925487D01*
X154880102Y-190992661D01*
X154728123Y-191044972D01*
X154516205Y-191084258D01*
X154234609Y-191112355D01*
X153873595Y-191131102D01*
X153423425Y-191142337D01*
X152874359Y-191147897D01*
X152216659Y-191149620D01*
X151440586Y-191149344D01*
X150592322Y-191148903D01*
X146578234Y-191148903D01*
X146367021Y-190971179D01*
X146253069Y-190864604D01*
X146189851Y-190758064D01*
X146162772Y-190607369D01*
X146157240Y-190368332D01*
X146157316Y-190336179D01*
X146172968Y-190200051D01*
X147185538Y-190200051D01*
X147252022Y-190211084D01*
X147442819Y-190221403D01*
X147744945Y-190230797D01*
X148145417Y-190239051D01*
X148631250Y-190245952D01*
X149189461Y-190251289D01*
X149807067Y-190254847D01*
X150471083Y-190256414D01*
X150625315Y-190256470D01*
X151413006Y-190256004D01*
X152073740Y-190254409D01*
X152617853Y-190251394D01*
X153055682Y-190246670D01*
X153397565Y-190239945D01*
X153653838Y-190230927D01*
X153834838Y-190219326D01*
X153950902Y-190204850D01*
X154012368Y-190187208D01*
X154029573Y-190166110D01*
X154028320Y-190160643D01*
X153986209Y-190037034D01*
X153926169Y-189845971D01*
X153907136Y-189783075D01*
X153822724Y-189501335D01*
X150613557Y-189501335D01*
X147404390Y-189501335D01*
X147294964Y-189822483D01*
X147231253Y-190020083D01*
X147191803Y-190162891D01*
X147185538Y-190200051D01*
X146172968Y-190200051D01*
X146213909Y-189843996D01*
X146378570Y-189433023D01*
X146648879Y-189107216D01*
X147022415Y-188870529D01*
X147065403Y-188851894D01*
X147211960Y-188784084D01*
X147251060Y-188746200D01*
X147940673Y-188746200D01*
X148215268Y-188746200D01*
X148489862Y-188746200D01*
X152746078Y-188746200D01*
X153020673Y-188746200D01*
X153295268Y-188746200D01*
X153295268Y-188407860D01*
X153268745Y-188136254D01*
X153193339Y-187967903D01*
X153187391Y-187961644D01*
X153084974Y-187872759D01*
X152997383Y-187868043D01*
X152878863Y-187924832D01*
X152798224Y-187997243D01*
X152757734Y-188127936D01*
X152746105Y-188354839D01*
X152746078Y-188371048D01*
X152746078Y-188746200D01*
X148489862Y-188746200D01*
X148489862Y-188371048D01*
X148479507Y-188137680D01*
X148440919Y-188002632D01*
X148362810Y-187927974D01*
X148357078Y-187924832D01*
X148224577Y-187863976D01*
X148139236Y-187879894D01*
X148048549Y-187961644D01*
X147970407Y-188122971D01*
X147940772Y-188389106D01*
X147940673Y-188407860D01*
X147940673Y-188746200D01*
X147251060Y-188746200D01*
X147288621Y-188709808D01*
X147318031Y-188585878D01*
X147321976Y-188407860D01*
X147322835Y-188369109D01*
X147322835Y-188360924D01*
X147342270Y-188098837D01*
X147391839Y-187855832D01*
X147428295Y-187755251D01*
X147591374Y-187543791D01*
X147838454Y-187366618D01*
X148116247Y-187256373D01*
X148276101Y-187235930D01*
X148489862Y-187235930D01*
X148489862Y-186309767D01*
X148489862Y-185383604D01*
X148249592Y-185068833D01*
X148119296Y-184889468D01*
X148032039Y-184752752D01*
X148009322Y-184700191D01*
X147952512Y-184669962D01*
X147849334Y-184676904D01*
X147605757Y-184673508D01*
X147317693Y-184598694D01*
X147044238Y-184471160D01*
X146917682Y-184382147D01*
X146750686Y-184199193D01*
X146610762Y-183977448D01*
X146596517Y-183947000D01*
X146547480Y-183844134D01*
X146490145Y-183764633D01*
X146402414Y-183696829D01*
X146262186Y-183629054D01*
X146047363Y-183549639D01*
X145796656Y-183466968D01*
X147402824Y-183466968D01*
X147419656Y-183563157D01*
X147478769Y-183686314D01*
X147605403Y-183760408D01*
X147736614Y-183795534D01*
X147813321Y-183766418D01*
X147925398Y-183696632D01*
X148053936Y-183537892D01*
X148064742Y-183353136D01*
X147959029Y-183184917D01*
X147909710Y-183147225D01*
X147706994Y-183073463D01*
X147538700Y-183115951D01*
X147429189Y-183254012D01*
X147402824Y-183466968D01*
X145796656Y-183466968D01*
X145735846Y-183446916D01*
X145515953Y-183376468D01*
X145141831Y-183257718D01*
X144874415Y-183177175D01*
X144689703Y-183131009D01*
X144563697Y-183115388D01*
X144472397Y-183126483D01*
X144391803Y-183160463D01*
X144340887Y-183188930D01*
X143964026Y-183337955D01*
X143591710Y-183358670D01*
X143243819Y-183253306D01*
X142948284Y-183032527D01*
X142716967Y-182708904D01*
X142598961Y-182352404D01*
X142597787Y-182224579D01*
X143478511Y-182224579D01*
X143527105Y-182322408D01*
X143633415Y-182432993D01*
X143738230Y-182497126D01*
X143753105Y-182499173D01*
X143843900Y-182455562D01*
X143919824Y-182391297D01*
X144006326Y-182281007D01*
X144027700Y-182224579D01*
X143979106Y-182126750D01*
X143872796Y-182016164D01*
X143767981Y-181952031D01*
X143753105Y-181949984D01*
X143655276Y-181998578D01*
X143544691Y-182104888D01*
X143480558Y-182209703D01*
X143478511Y-182224579D01*
X142597787Y-182224579D01*
X142595636Y-181990370D01*
X142708367Y-181650146D01*
X142867774Y-181428004D01*
X142943188Y-181328173D01*
X142972576Y-181212594D01*
X142962273Y-181035090D01*
X142941463Y-180891008D01*
X142889975Y-180643795D01*
X142811262Y-180476223D01*
X142674880Y-180330672D01*
X142621488Y-180285420D01*
X142447797Y-180120497D01*
X142321118Y-179937200D01*
X142228108Y-179704103D01*
X142155423Y-179389777D01*
X142104078Y-179066741D01*
X142057173Y-178770482D01*
X142033277Y-178675337D01*
X142714769Y-178675337D01*
X142757071Y-178956850D01*
X142807348Y-179265981D01*
X142854425Y-179471296D01*
X142910331Y-179605430D01*
X142987096Y-179701017D01*
X143051756Y-179756271D01*
X143274683Y-179857669D01*
X143500433Y-179827175D01*
X143706587Y-179667855D01*
X143707648Y-179666600D01*
X143781064Y-179549194D01*
X143807146Y-179400606D01*
X143793360Y-179172511D01*
X143789381Y-179137500D01*
X143755047Y-178851104D01*
X143716618Y-178676878D01*
X143647981Y-178591471D01*
X143523023Y-178571533D01*
X143315631Y-178593712D01*
X143199213Y-178609761D01*
X142714769Y-178675337D01*
X142033277Y-178675337D01*
X142006452Y-178568526D01*
X141935027Y-178418504D01*
X141826010Y-178278046D01*
X141762041Y-178208633D01*
X141592557Y-178015799D01*
X141463820Y-177827836D01*
X141364892Y-177616060D01*
X141284830Y-177351784D01*
X141212697Y-177006324D01*
X141142831Y-176585072D01*
X141091386Y-176254163D01*
X141632021Y-176254163D01*
X141656844Y-176478677D01*
X141711831Y-176814758D01*
X141724595Y-176886869D01*
X141827821Y-177320797D01*
X141969014Y-177642470D01*
X142161642Y-177874729D01*
X142398973Y-178030613D01*
X142796627Y-178157841D01*
X143193577Y-178151004D01*
X143573984Y-178010511D01*
X143592730Y-177999725D01*
X143854325Y-177801308D01*
X144032426Y-177552326D01*
X144131507Y-177236252D01*
X144156039Y-176836559D01*
X144110495Y-176336719D01*
X144085918Y-176177315D01*
X144029597Y-175902149D01*
X143968967Y-175760067D01*
X143896539Y-175746890D01*
X143804823Y-175858443D01*
X143737646Y-175983054D01*
X143667322Y-176168275D01*
X143651903Y-176364716D01*
X143677625Y-176590859D01*
X143700103Y-177001340D01*
X143622193Y-177319270D01*
X143442841Y-177546876D01*
X143160993Y-177686388D01*
X143159329Y-177686867D01*
X142884163Y-177701693D01*
X142607094Y-177613538D01*
X142387165Y-177442450D01*
X142368083Y-177418200D01*
X142285370Y-177248761D01*
X142218553Y-177011529D01*
X142197052Y-176881275D01*
X142191573Y-176856600D01*
X142735268Y-176856600D01*
X142756766Y-177035171D01*
X142851578Y-177170346D01*
X142963646Y-177213227D01*
X143077241Y-177165196D01*
X143132132Y-177114033D01*
X143189221Y-176969648D01*
X143192024Y-176856600D01*
X143144363Y-176740314D01*
X143019536Y-176700037D01*
X142963646Y-176698362D01*
X142808904Y-176722316D01*
X142743509Y-176813840D01*
X142735268Y-176856600D01*
X142191573Y-176856600D01*
X142132236Y-176589367D01*
X142021037Y-176331628D01*
X141882657Y-176142819D01*
X141742718Y-176058804D01*
X141674540Y-176063349D01*
X141637780Y-176122094D01*
X141632021Y-176254163D01*
X141091386Y-176254163D01*
X141000355Y-175668633D01*
X141148659Y-175548498D01*
X141369762Y-175452115D01*
X141642189Y-175457286D01*
X141934260Y-175556197D01*
X142214297Y-175741036D01*
X142314686Y-175836064D01*
X142558159Y-176091281D01*
X142498446Y-175605362D01*
X142444485Y-175293216D01*
X142375387Y-175101698D01*
X142330902Y-175050795D01*
X142033337Y-174800877D01*
X141856860Y-174516937D01*
X141804690Y-174216043D01*
X142394950Y-174216043D01*
X142401377Y-174354977D01*
X142496851Y-174442468D01*
X142646974Y-174464167D01*
X142785890Y-174420074D01*
X142839428Y-174354977D01*
X142839922Y-174196001D01*
X142747544Y-174066163D01*
X142620403Y-174021065D01*
X142477453Y-174079267D01*
X142394950Y-174216043D01*
X141804690Y-174216043D01*
X141804642Y-174215765D01*
X141879852Y-173914148D01*
X142066121Y-173648813D01*
X142181292Y-173498775D01*
X142211611Y-173343128D01*
X142196538Y-173205446D01*
X142161691Y-173036624D01*
X142102105Y-172970038D01*
X141972693Y-172972142D01*
X141898332Y-172983574D01*
X141730128Y-173002416D01*
X141650295Y-172963500D01*
X141612016Y-172833041D01*
X141601353Y-172769254D01*
X141586441Y-172592747D01*
X141602163Y-172480504D01*
X141609632Y-172470076D01*
X141691675Y-172446109D01*
X141873440Y-172413982D01*
X142121108Y-172377822D01*
X142400861Y-172341756D01*
X142678884Y-172309910D01*
X142921358Y-172286410D01*
X143094466Y-172275383D01*
X143164035Y-172280405D01*
X143186871Y-172357734D01*
X143217003Y-172517131D01*
X143222929Y-172554402D01*
X143240084Y-172715197D01*
X143202673Y-172793958D01*
X143077149Y-172832798D01*
X142989503Y-172847429D01*
X142816748Y-172881608D01*
X142746941Y-172937660D01*
X142747382Y-173058659D01*
X142762009Y-173147065D01*
X142818893Y-173333285D01*
X142901482Y-173460351D01*
X142916682Y-173471876D01*
X143038834Y-173564304D01*
X143194715Y-173701572D01*
X143218420Y-173724028D01*
X143377387Y-173963494D01*
X143421901Y-174245162D01*
X143352360Y-174536003D01*
X143205921Y-174763429D01*
X143087543Y-174912446D01*
X143033816Y-175043300D01*
X143028961Y-175214588D01*
X143043541Y-175366493D01*
X143075599Y-175580942D01*
X143115866Y-175759172D01*
X143155928Y-175876630D01*
X143187369Y-175908765D01*
X143201775Y-175831024D01*
X143201829Y-175828359D01*
X143264525Y-175652630D01*
X143423146Y-175462114D01*
X143642216Y-175281825D01*
X143886255Y-175136773D01*
X144119787Y-175051969D01*
X144303996Y-175051335D01*
X144367968Y-175077942D01*
X144417007Y-175125476D01*
X144457462Y-175215538D01*
X144495683Y-175369729D01*
X144538019Y-175609652D01*
X144590819Y-175956908D01*
X144611402Y-176097235D01*
X144670501Y-176530201D01*
X144701717Y-176858618D01*
X144703135Y-177112754D01*
X144672838Y-177322880D01*
X144608911Y-177519265D01*
X144509438Y-177732179D01*
X144507703Y-177735580D01*
X144301219Y-178139984D01*
X144380535Y-178761713D01*
X144422264Y-179204720D01*
X144416454Y-179544485D01*
X144359344Y-179807900D01*
X144247172Y-180021854D01*
X144194829Y-180089291D01*
X144098754Y-180217641D01*
X144056969Y-180336969D01*
X144059746Y-180499568D01*
X144084974Y-180679794D01*
X144136901Y-180926354D01*
X144217601Y-181094140D01*
X144358148Y-181241653D01*
X144403942Y-181280296D01*
X144580600Y-181455076D01*
X144718616Y-181642140D01*
X144750478Y-181704381D01*
X144793575Y-181788919D01*
X144857501Y-181859185D01*
X144963621Y-181925669D01*
X145133300Y-181998866D01*
X145387902Y-182089268D01*
X145748792Y-182207367D01*
X145823406Y-182231324D01*
X146807970Y-182546988D01*
X146874870Y-182502725D01*
X148537915Y-182502725D01*
X148681245Y-182655409D01*
X148849105Y-182924100D01*
X148936853Y-183261297D01*
X148934436Y-183617427D01*
X148904838Y-183758157D01*
X148832867Y-183963516D01*
X148753434Y-184116496D01*
X148721576Y-184153842D01*
X148641774Y-184261883D01*
X148648845Y-184402135D01*
X148747090Y-184602059D01*
X148806314Y-184694999D01*
X149138838Y-185078537D01*
X149553058Y-185365133D01*
X150027137Y-185548021D01*
X150539237Y-185620431D01*
X151067521Y-185575597D01*
X151377067Y-185491716D01*
X151748045Y-185308374D01*
X152109752Y-185032417D01*
X152414672Y-184703095D01*
X152521740Y-184546223D01*
X152749571Y-184045517D01*
X152846425Y-183529853D01*
X152814894Y-183016049D01*
X152657572Y-182520927D01*
X152377051Y-182061306D01*
X152091351Y-181753638D01*
X151718463Y-181468097D01*
X151327443Y-181290520D01*
X150879492Y-181206483D01*
X150588579Y-181194903D01*
X150046484Y-181260196D01*
X149551295Y-181452003D01*
X149113702Y-181764403D01*
X148744395Y-182191474D01*
X148717597Y-182231207D01*
X148537915Y-182502725D01*
X146874870Y-182502725D01*
X147053376Y-182384620D01*
X147317607Y-182261690D01*
X147617040Y-182197197D01*
X147623444Y-182196670D01*
X147825229Y-182169900D01*
X147957049Y-182107112D01*
X148073047Y-181974357D01*
X148141632Y-181871753D01*
X148463695Y-181466129D01*
X148870078Y-181094932D01*
X149150557Y-180898511D01*
X149433685Y-180723481D01*
X149450206Y-180636513D01*
X149779929Y-180636513D01*
X150110920Y-180536900D01*
X150310560Y-180470001D01*
X150451250Y-180410284D01*
X150486706Y-180387013D01*
X150511021Y-180307145D01*
X150554091Y-180110405D01*
X150612911Y-179814166D01*
X150684480Y-179435799D01*
X150765793Y-178992677D01*
X150853848Y-178502172D01*
X150945642Y-177981655D01*
X151038171Y-177448498D01*
X151128433Y-176920075D01*
X151213424Y-176413756D01*
X151290142Y-175946914D01*
X151355583Y-175536921D01*
X151406744Y-175201148D01*
X151440622Y-174956969D01*
X151454214Y-174821754D01*
X151452454Y-174800428D01*
X151361398Y-174762250D01*
X151189554Y-174721512D01*
X151129336Y-174710891D01*
X150851243Y-174665776D01*
X150351452Y-177466934D01*
X150242692Y-178076102D01*
X150140361Y-178648494D01*
X150047209Y-179168798D01*
X149965982Y-179621700D01*
X149899427Y-179991887D01*
X149850294Y-180264045D01*
X149821328Y-180422861D01*
X149815795Y-180452303D01*
X149779929Y-180636513D01*
X149450206Y-180636513D01*
X149613868Y-179774976D01*
X149687353Y-179368116D01*
X149770511Y-178875167D01*
X149855227Y-178346183D01*
X149933385Y-177831214D01*
X149968008Y-177590795D01*
X150037862Y-177117515D01*
X150116884Y-176619452D01*
X150197569Y-176141652D01*
X150272409Y-175729162D01*
X150309744Y-175539722D01*
X150379448Y-175195983D01*
X150422059Y-174959269D01*
X150438675Y-174802229D01*
X150430390Y-174697516D01*
X150398302Y-174617781D01*
X150349654Y-174544316D01*
X150120620Y-174109146D01*
X149996761Y-173615669D01*
X149991766Y-173432994D01*
X151254389Y-173432994D01*
X151340078Y-173707651D01*
X151515017Y-173941386D01*
X151778118Y-174106307D01*
X151890832Y-174142611D01*
X152090130Y-174179453D01*
X152254851Y-174161159D01*
X152427838Y-174098033D01*
X152714114Y-173916288D01*
X152888217Y-173655990D01*
X152951681Y-173314757D01*
X152952024Y-173284132D01*
X152937817Y-173055554D01*
X152876895Y-172894666D01*
X152741804Y-172733219D01*
X152722665Y-172713922D01*
X152455362Y-172505237D01*
X152184906Y-172424430D01*
X151883429Y-172464322D01*
X151825954Y-172482986D01*
X151543734Y-172642410D01*
X151355127Y-172872481D01*
X151259042Y-173145306D01*
X151254389Y-173432994D01*
X149991766Y-173432994D01*
X149982632Y-173098989D01*
X150082787Y-172594212D01*
X150092786Y-172564324D01*
X150304626Y-172143472D01*
X150624355Y-171765541D01*
X151023117Y-171461110D01*
X151241837Y-171346588D01*
X151476937Y-171248828D01*
X151672076Y-171195100D01*
X151882941Y-171176326D01*
X152165219Y-171183423D01*
G37*
%TD.AperFunction*%
%TD*%
D17*
%TO.P,mlf 32,1*%
%TO.N,N/C*%
X109497700Y-147499420D03*
%TO.P,mlf 32,2*%
X108997700Y-147499420D03*
X106997700Y-147499420D03*
%TO.P,mlf 32,3*%
X108497700Y-147499420D03*
%TO.P,mlf 32,4*%
X107997700Y-147499420D03*
%TO.P,mlf 32,5*%
X107497700Y-147499420D03*
%TO.P,mlf 32,6*%
X106997700Y-147499420D03*
%TO.P,mlf 32,7*%
X106497700Y-147499420D03*
%TO.P,mlf 32,8*%
X105997700Y-147499420D03*
D18*
%TO.P,mlf 32,9*%
X105072700Y-148424420D03*
%TO.P,mlf 32,10*%
X105072700Y-148924420D03*
%TO.P,mlf 32,11*%
X105072700Y-149424420D03*
%TO.P,mlf 32,12*%
X105072700Y-149924420D03*
%TO.P,mlf 32,13*%
X105072700Y-150424420D03*
%TO.P,mlf 32,14*%
X105072700Y-150924420D03*
%TO.P,mlf 32,15*%
X105072700Y-151424420D03*
%TO.P,mlf 32,16*%
X105072700Y-151924420D03*
D17*
%TO.P,mlf 32,17*%
X105997700Y-152849420D03*
%TO.P,mlf 32,18*%
X106497700Y-152849420D03*
%TO.P,mlf 32,19*%
X106997700Y-152849420D03*
%TO.P,mlf 32,20*%
X107497700Y-152849420D03*
%TO.P,mlf 32,21*%
X107997700Y-152849420D03*
%TO.P,mlf 32,22*%
X108497700Y-152849420D03*
%TO.P,mlf 32,23*%
X108997700Y-152849420D03*
%TO.P,mlf 32,24*%
X109497700Y-152849420D03*
D18*
%TO.P,mlf 32,25*%
X110422700Y-151924420D03*
%TO.P,mlf 32,26*%
X110422700Y-151424420D03*
%TO.P,mlf 32,27*%
X110422700Y-150924420D03*
%TO.P,mlf 32,28*%
X110422700Y-150424420D03*
D19*
%TO.P,mlf 32,29*%
X109397700Y-148624420D03*
D18*
X110422700Y-149924420D03*
%TO.P,mlf 32,30*%
X110422700Y-149424420D03*
%TO.P,mlf 32,31*%
X110422700Y-148924420D03*
%TO.P,mlf 32,32*%
X110422700Y-148424420D03*
%TD*%
D20*
%TO.P,C28,1*%
%TO.N,GND*%
X58798900Y-115801300D03*
%TO.P,C28,2*%
%TO.N,ANODE*%
X61998800Y-115801300D03*
%TD*%
D21*
%TO.P,D1,1*%
%TO.N,R28_1*%
X71356100Y-129301100D03*
%TO.P,D1,2*%
%TO.N,D1_2*%
X67241300Y-129301100D03*
%TD*%
D20*
%TO.P,R34,1*%
%TO.N,NAKAL*%
X66698800Y-94001300D03*
%TO.P,R34,2*%
%TO.N,U2_2*%
X69898900Y-94001300D03*
%TD*%
D22*
%TO.P,C34,1*%
%TO.N,C34_1*%
X86598600Y-72701100D03*
%TO.P,C34,2*%
%TO.N,GND*%
X86598600Y-70701100D03*
%TD*%
D20*
%TO.P,R6,1*%
%TO.N,C6_1*%
X123798700Y-128401200D03*
%TO.P,R6,2*%
%TO.N,GND*%
X126998800Y-128401200D03*
%TD*%
D23*
%TO.P,REF\u002A\u002A,*%
%TO.N,*%
X176099000Y-218001000D03*
%TD*%
D24*
%TO.P,R9,1*%
%TO.N,LEAD-IN*%
X131799000Y-90201100D03*
%TO.P,R9,2*%
%TO.N,PR6_3*%
X131799000Y-87001300D03*
%TD*%
D25*
%TO.P,REF\u002A\u002A,A1*%
%TO.N,N/C*%
X128097700Y-148049420D03*
%TO.P,REF\u002A\u002A,A2*%
X127297700Y-148049420D03*
%TO.P,REF\u002A\u002A,A3*%
X126497700Y-148049420D03*
%TO.P,REF\u002A\u002A,A7*%
X123297700Y-148049420D03*
%TO.P,REF\u002A\u002A,A8*%
X122497700Y-148049420D03*
%TO.P,REF\u002A\u002A,A9*%
X121697700Y-148049420D03*
%TO.P,REF\u002A\u002A,B1*%
X128097700Y-147249420D03*
%TO.P,REF\u002A\u002A,B2*%
X127297700Y-147249420D03*
%TO.P,REF\u002A\u002A,B3*%
X126497700Y-147249420D03*
%TO.P,REF\u002A\u002A,B7*%
X123297700Y-147249420D03*
%TO.P,REF\u002A\u002A,B8*%
X122497700Y-147249420D03*
%TO.P,REF\u002A\u002A,B9*%
X121697700Y-147249420D03*
%TO.P,REF\u002A\u002A,C1*%
X128097700Y-146449420D03*
%TO.P,REF\u002A\u002A,C2*%
X127297700Y-146449420D03*
%TO.P,REF\u002A\u002A,C3*%
X126497700Y-146449420D03*
%TO.P,REF\u002A\u002A,C7*%
X123297700Y-146449420D03*
%TO.P,REF\u002A\u002A,C8*%
X122497700Y-146449420D03*
%TO.P,REF\u002A\u002A,C9*%
X121697700Y-146449420D03*
%TO.P,REF\u002A\u002A,D1*%
X128097700Y-145649420D03*
%TO.P,REF\u002A\u002A,D2*%
X127297700Y-145649420D03*
%TO.P,REF\u002A\u002A,D3*%
X126497700Y-145649420D03*
%TO.P,REF\u002A\u002A,D7*%
X123297700Y-145649420D03*
%TO.P,REF\u002A\u002A,D8*%
X122497700Y-145649420D03*
%TO.P,REF\u002A\u002A,D9*%
X121697700Y-145649420D03*
%TO.P,REF\u002A\u002A,E1*%
X128097700Y-144849420D03*
%TO.P,REF\u002A\u002A,E2*%
X127297700Y-144849420D03*
%TO.P,REF\u002A\u002A,E3*%
X126497700Y-144849420D03*
%TO.P,REF\u002A\u002A,E7*%
X123297700Y-144849420D03*
%TO.P,REF\u002A\u002A,E8*%
X122497700Y-144849420D03*
%TO.P,REF\u002A\u002A,E9*%
X121697700Y-144849420D03*
%TO.P,REF\u002A\u002A,F1*%
X128097700Y-144049420D03*
%TO.P,REF\u002A\u002A,F2*%
X127297700Y-144049420D03*
%TO.P,REF\u002A\u002A,F3*%
X126497700Y-144049420D03*
%TO.P,REF\u002A\u002A,F7*%
X123297700Y-144049420D03*
%TO.P,REF\u002A\u002A,F8*%
X122497700Y-144049420D03*
%TO.P,REF\u002A\u002A,F9*%
X121697700Y-144049420D03*
%TO.P,REF\u002A\u002A,G1*%
X128097700Y-143249420D03*
%TO.P,REF\u002A\u002A,G2*%
X127297700Y-143249420D03*
%TO.P,REF\u002A\u002A,G3*%
X126497700Y-143249420D03*
%TO.P,REF\u002A\u002A,G7*%
X123297700Y-143249420D03*
%TO.P,REF\u002A\u002A,G8*%
X122497700Y-143249420D03*
%TO.P,REF\u002A\u002A,G9*%
X121697700Y-143249420D03*
%TO.P,REF\u002A\u002A,H1*%
X128097700Y-142449420D03*
%TO.P,REF\u002A\u002A,H2*%
X127297700Y-142449420D03*
%TO.P,REF\u002A\u002A,H3*%
X126497700Y-142449420D03*
%TO.P,REF\u002A\u002A,H7*%
X123297700Y-142449420D03*
%TO.P,REF\u002A\u002A,H8*%
X122497700Y-142449420D03*
%TO.P,REF\u002A\u002A,H9*%
X121697700Y-142449420D03*
%TO.P,REF\u002A\u002A,J1*%
X128097700Y-141649420D03*
%TO.P,REF\u002A\u002A,J2*%
X127297700Y-141649420D03*
%TO.P,REF\u002A\u002A,J3*%
X126497700Y-141649420D03*
%TO.P,REF\u002A\u002A,J7*%
X123297700Y-141649420D03*
%TO.P,REF\u002A\u002A,J8*%
X122497700Y-141649420D03*
%TO.P,REF\u002A\u002A,J9*%
X121697700Y-141649420D03*
%TO.P,REF\u002A\u002A,K1*%
X128097700Y-140849420D03*
%TO.P,REF\u002A\u002A,K2*%
X127297700Y-140849420D03*
%TO.P,REF\u002A\u002A,K3*%
X126497700Y-140849420D03*
%TO.P,REF\u002A\u002A,K7*%
X123297700Y-140849420D03*
%TO.P,REF\u002A\u002A,K8*%
X122497700Y-140849420D03*
%TO.P,REF\u002A\u002A,K9*%
X121697700Y-140849420D03*
%TO.P,REF\u002A\u002A,L1*%
X128097700Y-140049420D03*
%TO.P,REF\u002A\u002A,L2*%
X127297700Y-140049420D03*
%TO.P,REF\u002A\u002A,L3*%
X126497700Y-140049420D03*
%TO.P,REF\u002A\u002A,L7*%
X123297700Y-140049420D03*
%TO.P,REF\u002A\u002A,L8*%
X122497700Y-140049420D03*
%TO.P,REF\u002A\u002A,L9*%
X121697700Y-140049420D03*
%TO.P,REF\u002A\u002A,M1*%
X128097700Y-139249420D03*
%TO.P,REF\u002A\u002A,M2*%
X127297700Y-139249420D03*
%TO.P,REF\u002A\u002A,M3*%
X126497700Y-139249420D03*
%TO.P,REF\u002A\u002A,M7*%
X123297700Y-139249420D03*
%TO.P,REF\u002A\u002A,M8*%
X122497700Y-139249420D03*
%TO.P,REF\u002A\u002A,M9*%
X121697700Y-139249420D03*
%TO.P,REF\u002A\u002A,N1*%
X128097700Y-138449420D03*
%TO.P,REF\u002A\u002A,N2*%
X127297700Y-138449420D03*
%TO.P,REF\u002A\u002A,N3*%
X126497700Y-138449420D03*
%TO.P,REF\u002A\u002A,N7*%
X123297700Y-138449420D03*
%TO.P,REF\u002A\u002A,N8*%
X122497700Y-138449420D03*
%TO.P,REF\u002A\u002A,N9*%
X121697700Y-138449420D03*
%TD*%
D26*
%TO.P,Q1,1*%
%TO.N,U1_3*%
X79758900Y-128601100D03*
%TO.P,Q1,3*%
%TO.N,GND*%
X84838900Y-128601100D03*
D27*
%TO.P,Q1,4*%
%TO.N,R28_1*%
X82299200Y-118601100D03*
%TD*%
D17*
%TO.P,mlf 28,1*%
%TO.N,N/C*%
X117597700Y-147824420D03*
%TO.P,mlf 28,2*%
X117097700Y-147824420D03*
X115097700Y-147824420D03*
%TO.P,mlf 28,3*%
X116597700Y-147824420D03*
%TO.P,mlf 28,4*%
X116097700Y-147824420D03*
%TO.P,mlf 28,5*%
X115597700Y-147824420D03*
%TO.P,mlf 28,6*%
X115097700Y-147824420D03*
%TO.P,mlf 28,7*%
X114597700Y-147824420D03*
D18*
%TO.P,mlf 28,8*%
X113672700Y-148749420D03*
%TO.P,mlf 28,9*%
X113672700Y-149249420D03*
%TO.P,mlf 28,10*%
X113672700Y-149749420D03*
%TO.P,mlf 28,11*%
X113672700Y-150249420D03*
%TO.P,mlf 28,12*%
X113672700Y-150749420D03*
%TO.P,mlf 28,13*%
X113672700Y-151249420D03*
%TO.P,mlf 28,14*%
X113672700Y-151749420D03*
D17*
%TO.P,mlf 28,15*%
X114597700Y-152674420D03*
%TO.P,mlf 28,16*%
X115097700Y-152674420D03*
%TO.P,mlf 28,17*%
X115597700Y-152674420D03*
%TO.P,mlf 28,18*%
X116097700Y-152674420D03*
%TO.P,mlf 28,19*%
X116597700Y-152674420D03*
%TO.P,mlf 28,20*%
X117097700Y-152674420D03*
%TO.P,mlf 28,21*%
X117597700Y-152674420D03*
D18*
%TO.P,mlf 28,22*%
X118522700Y-151749420D03*
%TO.P,mlf 28,23*%
X118522700Y-151249420D03*
%TO.P,mlf 28,24*%
X118522700Y-150749420D03*
%TO.P,mlf 28,25*%
X118522700Y-150249420D03*
%TO.P,mlf 28,26*%
X118522700Y-149749420D03*
%TO.P,mlf 28,27*%
X118522700Y-149249420D03*
%TO.P,mlf 28,28*%
X118522700Y-148749420D03*
D19*
%TO.P,mlf 28,29*%
X117497700Y-148849420D03*
%TD*%
D23*
%TO.P,REF\u002A\u002A,*%
%TO.N,*%
X176099000Y-218001000D03*
%TD*%
D28*
%TO.P,C8,1*%
%TO.N,C8_1*%
X129198700Y-123501000D03*
%TO.P,C8,2*%
%TO.N,C8_2*%
X139198700Y-123501000D03*
%TD*%
D24*
%TO.P,R33,1*%
%TO.N,12V*%
X86998700Y-78801100D03*
%TO.P,R33,2*%
%TO.N,C34_1*%
X86998700Y-75601300D03*
%TD*%
%TO.P,R27,1*%
%TO.N,12V*%
X85098800Y-98001200D03*
%TO.P,R27,2*%
%TO.N,U1_7*%
X85098800Y-101201100D03*
%TD*%
D17*
%TO.P,mlf 28,1*%
%TO.N,N/C*%
X109497700Y-155599420D03*
%TO.P,mlf 28,2*%
X108997700Y-155599420D03*
X106997700Y-155599420D03*
%TO.P,mlf 28,3*%
X108497700Y-155599420D03*
%TO.P,mlf 28,4*%
X107997700Y-155599420D03*
%TO.P,mlf 28,5*%
X107497700Y-155599420D03*
%TO.P,mlf 28,6*%
X106997700Y-155599420D03*
%TO.P,mlf 28,7*%
X106497700Y-155599420D03*
D18*
%TO.P,mlf 28,8*%
X105572700Y-156524420D03*
%TO.P,mlf 28,9*%
X105572700Y-157024420D03*
%TO.P,mlf 28,10*%
X105572700Y-157524420D03*
%TO.P,mlf 28,11*%
X105572700Y-158024420D03*
%TO.P,mlf 28,12*%
X105572700Y-158524420D03*
%TO.P,mlf 28,13*%
X105572700Y-159024420D03*
%TO.P,mlf 28,14*%
X105572700Y-159524420D03*
D17*
%TO.P,mlf 28,15*%
X106497700Y-160449420D03*
%TO.P,mlf 28,16*%
X106997700Y-160449420D03*
%TO.P,mlf 28,17*%
X107497700Y-160449420D03*
%TO.P,mlf 28,18*%
X107997700Y-160449420D03*
%TO.P,mlf 28,19*%
X108497700Y-160449420D03*
%TO.P,mlf 28,20*%
X108997700Y-160449420D03*
%TO.P,mlf 28,21*%
X109497700Y-160449420D03*
D18*
%TO.P,mlf 28,22*%
X110422700Y-159524420D03*
%TO.P,mlf 28,23*%
X110422700Y-159024420D03*
%TO.P,mlf 28,24*%
X110422700Y-158524420D03*
%TO.P,mlf 28,25*%
X110422700Y-158024420D03*
%TO.P,mlf 28,26*%
X110422700Y-157524420D03*
%TO.P,mlf 28,27*%
X110422700Y-157024420D03*
%TO.P,mlf 28,28*%
X110422700Y-156524420D03*
D19*
%TO.P,mlf 28,29*%
X109397700Y-156624420D03*
%TD*%
D29*
%TO.P,U1,1*%
%TO.N,GND*%
X80193800Y-110723800D03*
%TO.P,U1,2*%
%TO.N,U1_2*%
X81463800Y-110723800D03*
%TO.P,U1,3*%
%TO.N,U1_3*%
X82733800Y-110723800D03*
%TO.P,U1,4*%
%TO.N,12V*%
X84003800Y-110723800D03*
%TO.P,U1,5*%
%TO.N,U1_5*%
X84003800Y-104678600D03*
%TO.P,U1,6*%
%TO.N,U1_2*%
X82733800Y-104678600D03*
%TO.P,U1,7*%
%TO.N,U1_7*%
X81463800Y-104678600D03*
%TO.P,U1,8*%
%TO.N,12V*%
X80193800Y-104678600D03*
%TD*%
D30*
%TO.P,REF\u002A\u002A,*%
%TO.N,*%
X34599000Y-127001000D03*
%TD*%
D31*
%TO.P,0805,1*%
%TO.N,N/C*%
X60237700Y-155699420D03*
%TO.P,0805,2*%
X60237700Y-157599420D03*
%TD*%
D17*
%TO.P,mlf 32,1*%
%TO.N,N/C*%
X85397700Y-155599420D03*
%TO.P,mlf 32,2*%
X84897700Y-155599420D03*
X82897700Y-155599420D03*
%TO.P,mlf 32,3*%
X84397700Y-155599420D03*
%TO.P,mlf 32,4*%
X83897700Y-155599420D03*
%TO.P,mlf 32,5*%
X83397700Y-155599420D03*
%TO.P,mlf 32,6*%
X82897700Y-155599420D03*
%TO.P,mlf 32,7*%
X82397700Y-155599420D03*
%TO.P,mlf 32,8*%
X81897700Y-155599420D03*
D18*
%TO.P,mlf 32,9*%
X80972700Y-156524420D03*
%TO.P,mlf 32,10*%
X80972700Y-157024420D03*
%TO.P,mlf 32,11*%
X80972700Y-157524420D03*
%TO.P,mlf 32,12*%
X80972700Y-158024420D03*
%TO.P,mlf 32,13*%
X80972700Y-158524420D03*
%TO.P,mlf 32,14*%
X80972700Y-159024420D03*
%TO.P,mlf 32,15*%
X80972700Y-159524420D03*
%TO.P,mlf 32,16*%
X80972700Y-160024420D03*
D17*
%TO.P,mlf 32,17*%
X81897700Y-160949420D03*
%TO.P,mlf 32,18*%
X82397700Y-160949420D03*
%TO.P,mlf 32,19*%
X82897700Y-160949420D03*
%TO.P,mlf 32,20*%
X83397700Y-160949420D03*
%TO.P,mlf 32,21*%
X83897700Y-160949420D03*
%TO.P,mlf 32,22*%
X84397700Y-160949420D03*
%TO.P,mlf 32,23*%
X84897700Y-160949420D03*
%TO.P,mlf 32,24*%
X85397700Y-160949420D03*
D18*
%TO.P,mlf 32,25*%
X86322700Y-160024420D03*
%TO.P,mlf 32,26*%
X86322700Y-159524420D03*
%TO.P,mlf 32,27*%
X86322700Y-159024420D03*
%TO.P,mlf 32,28*%
X86322700Y-158524420D03*
D19*
%TO.P,mlf 32,29*%
X85297700Y-156724420D03*
D18*
X86322700Y-158024420D03*
%TO.P,mlf 32,30*%
X86322700Y-157524420D03*
%TO.P,mlf 32,31*%
X86322700Y-157024420D03*
%TO.P,mlf 32,32*%
X86322700Y-156524420D03*
%TD*%
D32*
%TO.P,1206,1*%
%TO.N,N/C*%
X54997700Y-155799420D03*
%TO.P,1206,2*%
X54997700Y-158699420D03*
%TD*%
D28*
%TO.P,C7,1*%
%TO.N,C7_1*%
X124898800Y-104301200D03*
%TO.P,C7,2*%
%TO.N,CH-SELECT*%
X124898800Y-94301200D03*
%TD*%
D20*
%TO.P,R30,1*%
%TO.N,R30_1*%
X73498800Y-107901100D03*
%TO.P,R30,2*%
%TO.N,GND*%
X70298700Y-107901100D03*
%TD*%
D33*
%TO.P,0603,1*%
%TO.N,N/C*%
X64997700Y-155599420D03*
%TO.P,0603,2*%
X64997700Y-157099420D03*
%TD*%
D34*
%TO.P,C36,1*%
%TO.N,C36_1*%
X93598900Y-67401900D03*
%TO.P,C36,2*%
%TO.N,C36_2*%
X93598900Y-72400600D03*
%TD*%
D24*
%TO.P,R37,1*%
%TO.N,C36_1*%
X93698700Y-64701100D03*
%TO.P,R37,2*%
%TO.N,GND*%
X93698700Y-61501200D03*
%TD*%
D20*
%TO.P,R18,1*%
%TO.N,C17_1*%
X110998900Y-60201200D03*
%TO.P,R18,2*%
%TO.N,GND*%
X114198800Y-60201200D03*
%TD*%
D35*
%TO.P,SOT23,1*%
%TO.N,N/C*%
X89197700Y-149000180D03*
%TO.P,SOT23,2*%
X91097700Y-149000180D03*
%TO.P,SOT23,3*%
X90147700Y-147001200D03*
%TD*%
D36*
%TO.P,LED2,1*%
%TO.N,LED2_1*%
X115698600Y-83602500D03*
%TO.P,LED2,2*%
%TO.N,GND*%
X115698600Y-81199700D03*
%TD*%
D37*
%TO.P,C26,1*%
%TO.N,NAKAL*%
X64838700Y-103401300D03*
%TO.P,C26,2*%
%TO.N,GND*%
X59758700Y-103401300D03*
%TD*%
D28*
%TO.P,C22,1*%
%TO.N,C22_1*%
X145098900Y-70600500D03*
%TO.P,C22,2*%
%TO.N,PR9_2*%
X145098900Y-65601800D03*
%TD*%
D20*
%TO.P,C24,1*%
%TO.N,GND*%
X61698800Y-129301100D03*
%TO.P,C24,2*%
%TO.N,D1_2*%
X64898900Y-129301100D03*
%TD*%
D24*
%TO.P,R29,1*%
%TO.N,ANODE*%
X61598700Y-118401200D03*
%TO.P,R29,2*%
%TO.N,R29_2*%
X61598700Y-121601100D03*
%TD*%
D38*
%TO.P,0603\u002A,1*%
%TO.N,N/C*%
X62797700Y-155949420D03*
%TO.P,0603\u002A,2*%
X62797700Y-158149420D03*
%TD*%
D39*
%TO.P,U3,1*%
%TO.N,C36_2*%
X96521400Y-78906300D03*
%TO.P,U3,2*%
X96521400Y-77636300D03*
%TO.P,U3,3*%
%TO.N,C35_1*%
X96521400Y-76366300D03*
%TO.P,U3,4*%
%TO.N,GND*%
X96521400Y-75096300D03*
%TO.P,U3,5*%
%TO.N,N/C*%
X90476200Y-75096300D03*
%TO.P,U3,6*%
X90476200Y-76366300D03*
%TO.P,U3,7*%
X90476200Y-77636300D03*
%TO.P,U3,8*%
%TO.N,12V*%
X90476200Y-78906300D03*
%TD*%
D28*
%TO.P,C15,1*%
%TO.N,C15_1*%
X137398900Y-66001300D03*
%TO.P,C15,2*%
%TO.N,C13_2*%
X137398900Y-76001300D03*
%TD*%
D40*
%TO.P,PR6,1*%
%TO.N,GND*%
X151799000Y-108599900D03*
%TO.P,PR6,2*%
%TO.N,PR6_2*%
X151799000Y-103601200D03*
%TO.P,PR6,3*%
%TO.N,PR6_3*%
X151799000Y-98599900D03*
%TD*%
D34*
%TO.P,C3,1*%
%TO.N,C3_1*%
X143298900Y-45061300D03*
%TO.P,C3,2*%
%TO.N,CLEAN-IN*%
X143298900Y-50141300D03*
%TD*%
D24*
%TO.P,R26,1*%
%TO.N,U1_7*%
X82098800Y-101201100D03*
%TO.P,R26,2*%
%TO.N,U1_2*%
X82098800Y-98001200D03*
%TD*%
D41*
%TO.P,TO263,1*%
%TO.N,N/C*%
X80897700Y-139349420D03*
%TO.P,TO263,2*%
X79197700Y-139349420D03*
%TO.P,TO263,3*%
X77497700Y-139349420D03*
D42*
X77497700Y-148499420D03*
D41*
%TO.P,TO263,4*%
X75797700Y-139349420D03*
%TO.P,TO263,5*%
X74097700Y-139349420D03*
%TD*%
D40*
%TO.P,PR8,1*%
%TO.N,PR8_1*%
X151799000Y-87399700D03*
%TO.P,PR8,2*%
%TO.N,C20_2*%
X151799000Y-82401000D03*
%TO.P,PR8,3*%
X151799000Y-77399700D03*
%TD*%
D43*
%TO.P,REF\u002A\u002A,1*%
%TO.N,N/C*%
X114522700Y-160286920D03*
%TO.P,REF\u002A\u002A,2*%
X115172700Y-160286920D03*
%TO.P,REF\u002A\u002A,3*%
X115822700Y-160286920D03*
%TO.P,REF\u002A\u002A,4*%
X116472700Y-160286920D03*
D44*
%TO.P,REF\u002A\u002A,5*%
X117435200Y-159324420D03*
%TO.P,REF\u002A\u002A,6*%
X117435200Y-158674420D03*
%TO.P,REF\u002A\u002A,7*%
X117435200Y-158024420D03*
%TO.P,REF\u002A\u002A,8*%
X117435200Y-157374420D03*
D43*
%TO.P,REF\u002A\u002A,9*%
X116472700Y-156411920D03*
%TO.P,REF\u002A\u002A,10*%
X115822700Y-156411920D03*
%TO.P,REF\u002A\u002A,11*%
X115172700Y-156411920D03*
%TO.P,REF\u002A\u002A,12*%
X114522700Y-156411920D03*
D44*
%TO.P,REF\u002A\u002A,13*%
X113560200Y-157374420D03*
%TO.P,REF\u002A\u002A,14*%
X113560200Y-158024420D03*
%TO.P,REF\u002A\u002A,15*%
X113560200Y-158674420D03*
%TO.P,REF\u002A\u002A,16*%
X113560200Y-159324420D03*
D45*
%TO.P,REF\u002A\u002A,17*%
X114622700Y-159224420D03*
X115497700Y-159224420D03*
X116372700Y-159224420D03*
X114622700Y-158349420D03*
X115497700Y-158349420D03*
D46*
X115497700Y-158349420D03*
D45*
X116372700Y-158349420D03*
X114622700Y-157474420D03*
X115497700Y-157474420D03*
X116372700Y-157474420D03*
%TD*%
D34*
%TO.P,C5,1*%
%TO.N,C4_2*%
X138698900Y-42201700D03*
%TO.P,C5,2*%
%TO.N,PR2_1*%
X138698900Y-47200400D03*
%TD*%
D47*
%TO.P,0805,1*%
%TO.N,N/C*%
X75797700Y-155700400D03*
%TO.P,0805,2*%
X75797700Y-157798440D03*
%TD*%
D24*
%TO.P,C23,1*%
%TO.N,GND*%
X69298700Y-126301100D03*
%TO.P,C23,2*%
%TO.N,R28_2*%
X69298700Y-123101300D03*
%TD*%
D40*
%TO.P,PR10,1*%
%TO.N,GND*%
X151799000Y-129800000D03*
%TO.P,PR10,2*%
%TO.N,LEAD-OUT*%
X151799000Y-124801300D03*
%TO.P,PR10,3*%
%TO.N,PR9_2*%
X151799000Y-119800000D03*
%TD*%
D34*
%TO.P,PR11,1*%
%TO.N,R29_2*%
X71198900Y-119351200D03*
%TO.P,PR11,2*%
%TO.N,Q2_1*%
X71198900Y-116811200D03*
%TO.P,PR11,3*%
%TO.N,R30_1*%
X71198900Y-114251100D03*
%TD*%
%TO.P,PR12,1*%
%TO.N,U2_2*%
X85049000Y-92601200D03*
%TO.P,PR12,2*%
X82509000Y-92601200D03*
%TO.P,PR12,3*%
%TO.N,R35_1*%
X79948900Y-92601200D03*
%TD*%
D23*
%TO.P,REF\u002A\u002A,*%
%TO.N,*%
X175599000Y-28001000D03*
%TD*%
D17*
%TO.P,mlf 32,1*%
%TO.N,N/C*%
X101397700Y-155599420D03*
%TO.P,mlf 32,2*%
X100897700Y-155599420D03*
X98897700Y-155599420D03*
%TO.P,mlf 32,3*%
X100397700Y-155599420D03*
%TO.P,mlf 32,4*%
X99897700Y-155599420D03*
%TO.P,mlf 32,5*%
X99397700Y-155599420D03*
%TO.P,mlf 32,6*%
X98897700Y-155599420D03*
%TO.P,mlf 32,7*%
X98397700Y-155599420D03*
%TO.P,mlf 32,8*%
X97897700Y-155599420D03*
D18*
%TO.P,mlf 32,9*%
X96972700Y-156524420D03*
%TO.P,mlf 32,10*%
X96972700Y-157024420D03*
%TO.P,mlf 32,11*%
X96972700Y-157524420D03*
%TO.P,mlf 32,12*%
X96972700Y-158024420D03*
%TO.P,mlf 32,13*%
X96972700Y-158524420D03*
%TO.P,mlf 32,14*%
X96972700Y-159024420D03*
%TO.P,mlf 32,15*%
X96972700Y-159524420D03*
%TO.P,mlf 32,16*%
X96972700Y-160024420D03*
D17*
%TO.P,mlf 32,17*%
X97897700Y-160949420D03*
%TO.P,mlf 32,18*%
X98397700Y-160949420D03*
%TO.P,mlf 32,19*%
X98897700Y-160949420D03*
%TO.P,mlf 32,20*%
X99397700Y-160949420D03*
%TO.P,mlf 32,21*%
X99897700Y-160949420D03*
%TO.P,mlf 32,22*%
X100397700Y-160949420D03*
%TO.P,mlf 32,23*%
X100897700Y-160949420D03*
%TO.P,mlf 32,24*%
X101397700Y-160949420D03*
D18*
%TO.P,mlf 32,25*%
X102322700Y-160024420D03*
%TO.P,mlf 32,26*%
X102322700Y-159524420D03*
%TO.P,mlf 32,27*%
X102322700Y-159024420D03*
%TO.P,mlf 32,28*%
X102322700Y-158524420D03*
D19*
%TO.P,mlf 32,29*%
X101297700Y-156724420D03*
D18*
X102322700Y-158024420D03*
%TO.P,mlf 32,30*%
X102322700Y-157524420D03*
%TO.P,mlf 32,31*%
X102322700Y-157024420D03*
%TO.P,mlf 32,32*%
X102322700Y-156524420D03*
%TD*%
D28*
%TO.P,C17,1*%
%TO.N,C17_1*%
X103598900Y-60201200D03*
%TO.P,C17,2*%
%TO.N,C14_1*%
X103598900Y-70201200D03*
%TD*%
D48*
%TO.P,SOT223,1*%
%TO.N,N/C*%
X117497700Y-137790420D03*
%TO.P,SOT223,2*%
X115211700Y-137790420D03*
%TO.P,SOT223,3*%
X112925700Y-137790420D03*
D49*
%TO.P,SOT223,4*%
X115211700Y-144394420D03*
%TD*%
D50*
%TO.P,0603,1*%
%TO.N,N/C*%
X77797700Y-155500120D03*
%TO.P,0603,2*%
X77797700Y-156998720D03*
%TD*%
D20*
%TO.P,R35,1*%
%TO.N,R35_1*%
X76098800Y-92501100D03*
%TO.P,R35,2*%
%TO.N,GND*%
X72898900Y-92501100D03*
%TD*%
D51*
%TO.P,0805\u002A,1*%
%TO.N,N/C*%
X57697700Y-156099420D03*
%TO.P,0805\u002A,2*%
X57697700Y-158799420D03*
%TD*%
D28*
%TO.P,C13,1*%
%TO.N,C14_2*%
X126698900Y-71001800D03*
%TO.P,C13,2*%
%TO.N,C13_2*%
X126698900Y-76000500D03*
%TD*%
D20*
%TO.P,C16,1*%
%TO.N,U1_2*%
X77998700Y-104701300D03*
%TO.P,C16,2*%
%TO.N,GND*%
X74798800Y-104701300D03*
%TD*%
D28*
%TO.P,C20,1*%
%TO.N,C20_1*%
X134499000Y-54001400D03*
%TO.P,C20,2*%
%TO.N,C20_2*%
X144498900Y-54001400D03*
%TD*%
D17*
%TO.P,mlf 28,1*%
%TO.N,N/C*%
X93497700Y-155599420D03*
%TO.P,mlf 28,2*%
X92997700Y-155599420D03*
X90997700Y-155599420D03*
%TO.P,mlf 28,3*%
X92497700Y-155599420D03*
%TO.P,mlf 28,4*%
X91997700Y-155599420D03*
%TO.P,mlf 28,5*%
X91497700Y-155599420D03*
%TO.P,mlf 28,6*%
X90997700Y-155599420D03*
%TO.P,mlf 28,7*%
X90497700Y-155599420D03*
D18*
%TO.P,mlf 28,8*%
X89572700Y-156524420D03*
%TO.P,mlf 28,9*%
X89572700Y-157024420D03*
%TO.P,mlf 28,10*%
X89572700Y-157524420D03*
%TO.P,mlf 28,11*%
X89572700Y-158024420D03*
%TO.P,mlf 28,12*%
X89572700Y-158524420D03*
%TO.P,mlf 28,13*%
X89572700Y-159024420D03*
%TO.P,mlf 28,14*%
X89572700Y-159524420D03*
D17*
%TO.P,mlf 28,15*%
X90497700Y-160449420D03*
%TO.P,mlf 28,16*%
X90997700Y-160449420D03*
%TO.P,mlf 28,17*%
X91497700Y-160449420D03*
%TO.P,mlf 28,18*%
X91997700Y-160449420D03*
%TO.P,mlf 28,19*%
X92497700Y-160449420D03*
%TO.P,mlf 28,20*%
X92997700Y-160449420D03*
%TO.P,mlf 28,21*%
X93497700Y-160449420D03*
D18*
%TO.P,mlf 28,22*%
X94422700Y-159524420D03*
%TO.P,mlf 28,23*%
X94422700Y-159024420D03*
%TO.P,mlf 28,24*%
X94422700Y-158524420D03*
%TO.P,mlf 28,25*%
X94422700Y-158024420D03*
%TO.P,mlf 28,26*%
X94422700Y-157524420D03*
%TO.P,mlf 28,27*%
X94422700Y-157024420D03*
%TO.P,mlf 28,28*%
X94422700Y-156524420D03*
D19*
%TO.P,mlf 28,29*%
X93397700Y-156624420D03*
%TD*%
D23*
%TO.P,REF\u002A\u002A,*%
%TO.N,*%
X35599000Y-28001000D03*
%TD*%
D52*
%TO.P,1206\u002A,1*%
%TO.N,N/C*%
X51997700Y-156349420D03*
%TO.P,1206\u002A,2*%
X51997700Y-160349420D03*
%TD*%
D53*
%TO.P,R36,1*%
%TO.N,ANODE*%
X65598700Y-115850100D03*
%TO.P,R36,2*%
%TO.N,D1_2*%
X65598700Y-122352500D03*
%TD*%
D28*
%TO.P,C21,1*%
%TO.N,C20_1*%
X134499000Y-60001300D03*
%TO.P,C21,2*%
%TO.N,PR7_2*%
X144498900Y-60001300D03*
%TD*%
D24*
%TO.P,R39,1*%
%TO.N,LED7_2*%
X98998900Y-125401200D03*
%TO.P,R39,2*%
%TO.N,JACK2_4*%
X98998900Y-122201100D03*
%TD*%
%TO.P,R24,1*%
%TO.N,C22_1*%
X144898800Y-74501200D03*
%TO.P,R24,2*%
%TO.N,GND*%
X144898800Y-77701300D03*
%TD*%
%TO.P,R31,1*%
%TO.N,C35_1*%
X86598900Y-67601300D03*
%TO.P,R31,2*%
%TO.N,C34_1*%
X86598900Y-64401100D03*
%TD*%
D36*
%TO.P,LED1,1*%
%TO.N,LED1_1*%
X115598800Y-120602600D03*
%TO.P,LED1,2*%
%TO.N,GND*%
X115598800Y-118199800D03*
%TD*%
D54*
%TO.P,QFP-48,1*%
%TO.N,N/C*%
X94497700Y-150749420D03*
%TO.P,QFP-48,2*%
X94497700Y-150249420D03*
%TO.P,QFP-48,3*%
X94497700Y-149749420D03*
%TO.P,QFP-48,4*%
X94497700Y-149249420D03*
%TO.P,QFP-48,5*%
X94497700Y-148749420D03*
%TO.P,QFP-48,6*%
X94497700Y-148249420D03*
%TO.P,QFP-48,7*%
X94497700Y-147749420D03*
%TO.P,QFP-48,8*%
X94497700Y-147249420D03*
%TO.P,QFP-48,9*%
X94497700Y-146749420D03*
%TO.P,QFP-48,10*%
X94497700Y-146249420D03*
%TO.P,QFP-48,11*%
X94497700Y-145749420D03*
%TO.P,QFP-48,12*%
X94497700Y-145249420D03*
D55*
%TO.P,QFP-48,13*%
X92897700Y-143649420D03*
%TO.P,QFP-48,14*%
X92397700Y-143649420D03*
%TO.P,QFP-48,15*%
X91897700Y-143649420D03*
%TO.P,QFP-48,16*%
X91397700Y-143649420D03*
%TO.P,QFP-48,17*%
X90897700Y-143649420D03*
%TO.P,QFP-48,18*%
X90397700Y-143649420D03*
%TO.P,QFP-48,19*%
X89897700Y-143649420D03*
%TO.P,QFP-48,20*%
X89397700Y-143649420D03*
%TO.P,QFP-48,21*%
X88897700Y-143649420D03*
%TO.P,QFP-48,22*%
X88397700Y-143649420D03*
%TO.P,QFP-48,23*%
X87897700Y-143649420D03*
%TO.P,QFP-48,24*%
X87397700Y-143649420D03*
D54*
%TO.P,QFP-48,25*%
X85797700Y-145249420D03*
%TO.P,QFP-48,26*%
X85797700Y-145749420D03*
%TO.P,QFP-48,27*%
X85797700Y-146249420D03*
%TO.P,QFP-48,28*%
X85797700Y-146749420D03*
%TO.P,QFP-48,29*%
X85797700Y-147249420D03*
%TO.P,QFP-48,30*%
X85797700Y-147749420D03*
%TO.P,QFP-48,31*%
X85797700Y-148249420D03*
%TO.P,QFP-48,32*%
X85797700Y-148749420D03*
%TO.P,QFP-48,33*%
X85797700Y-149249420D03*
%TO.P,QFP-48,34*%
X85797700Y-149749420D03*
%TO.P,QFP-48,35*%
X85797700Y-150249420D03*
%TO.P,QFP-48,36*%
X85797700Y-150749420D03*
D55*
%TO.P,QFP-48,37*%
X87397700Y-152349420D03*
%TO.P,QFP-48,38*%
X87897700Y-152349420D03*
%TO.P,QFP-48,39*%
X88397700Y-152349420D03*
%TO.P,QFP-48,40*%
X88897700Y-152349420D03*
%TO.P,QFP-48,41*%
X89397700Y-152349420D03*
%TO.P,QFP-48,42*%
X89897700Y-152349420D03*
%TO.P,QFP-48,43*%
X90397700Y-152349420D03*
%TO.P,QFP-48,44*%
X90897700Y-152349420D03*
%TO.P,QFP-48,45*%
X91397700Y-152349420D03*
%TO.P,QFP-48,46*%
X91897700Y-152349420D03*
%TO.P,QFP-48,47*%
X92397700Y-152349420D03*
%TO.P,QFP-48,48*%
X92897700Y-152349420D03*
%TD*%
D37*
%TO.P,C27,1*%
%TO.N,12V*%
X91658800Y-109601100D03*
%TO.P,C27,2*%
%TO.N,GND*%
X96738800Y-109601100D03*
%TD*%
D20*
%TO.P,R5,1*%
%TO.N,CLEAN-IN*%
X138798900Y-50301100D03*
%TO.P,R5,2*%
%TO.N,C4_2*%
X135598800Y-50301100D03*
%TD*%
%TO.P,R32,1*%
%TO.N,C34_1*%
X81698700Y-68001300D03*
%TO.P,R32,2*%
%TO.N,GND*%
X78498900Y-68001300D03*
%TD*%
D34*
%TO.P,C19,1*%
%TO.N,C19_1*%
X128698900Y-51541100D03*
%TO.P,C19,2*%
%TO.N,PR9_3*%
X128698900Y-46461100D03*
%TD*%
D56*
%TO.P,C1,1*%
%TO.N,C1_1*%
X105798700Y-108202400D03*
%TO.P,C1,2*%
%TO.N,GND*%
X105798700Y-105200100D03*
%TD*%
D57*
%TO.P,SOT235,1*%
%TO.N,N/C*%
X114111700Y-140142420D03*
%TO.P,SOT235,2*%
X114111700Y-141092420D03*
%TO.P,SOT235,3*%
X114111700Y-142042420D03*
%TO.P,SOT235,4*%
X116311700Y-142042420D03*
%TO.P,SOT235,5*%
X116311700Y-140142420D03*
%TD*%
D40*
%TO.P,PR7,1*%
%TO.N,GND*%
X151799000Y-66199900D03*
%TO.P,PR7,2*%
%TO.N,PR7_2*%
X151799000Y-61201200D03*
%TO.P,PR7,3*%
%TO.N,PR8_1*%
X151799000Y-56199900D03*
%TD*%
D58*
%TO.P,V2,1*%
%TO.N,C13_2*%
X123472900Y-77067000D03*
%TO.P,V2,2*%
%TO.N,C11_1*%
X118953000Y-73797000D03*
%TO.P,V2,3*%
%TO.N,C12_1*%
X113383000Y-73806900D03*
%TO.P,V2,4*%
%TO.N,N/C*%
X108893000Y-77076900D03*
%TO.P,V2,5*%
X107173000Y-82367000D03*
%TO.P,V2,6*%
%TO.N,C14_1*%
X108882900Y-87657000D03*
%TO.P,V2,7*%
%TO.N,R16_1*%
X113383000Y-90927000D03*
%TO.P,V2,8*%
%TO.N,R17_1*%
X118953000Y-90927000D03*
%TO.P,V2,9*%
%TO.N,V2_9*%
X123452800Y-87657000D03*
%TD*%
D40*
%TO.P,PR9,1*%
%TO.N,C20_2*%
X151799000Y-44999800D03*
%TO.P,PR9,2*%
%TO.N,PR9_2*%
X151799000Y-40001100D03*
%TO.P,PR9,3*%
%TO.N,PR9_3*%
X151799000Y-34999900D03*
%TD*%
D59*
%TO.P,R13,1*%
%TO.N,C14_2*%
X119550100Y-66601300D03*
%TO.P,R13,2*%
%TO.N,ANODE*%
X113047700Y-66601300D03*
%TD*%
D34*
%TO.P,C4,1*%
%TO.N,PR1_1*%
X142499000Y-37401900D03*
%TO.P,C4,2*%
%TO.N,C4_2*%
X142499000Y-42400700D03*
%TD*%
D60*
%TO.P,C2,1*%
%TO.N,C2_1*%
X131558900Y-112001200D03*
D61*
%TO.P,C2,2*%
%TO.N,GND*%
X136638900Y-112001200D03*
%TD*%
D24*
%TO.P,R38,1*%
%TO.N,C36_1*%
X90498800Y-64701100D03*
%TO.P,R38,2*%
%TO.N,BUFFER-OUT*%
X90498800Y-61501200D03*
%TD*%
D62*
%TO.P,QFP-32,1*%
%TO.N,N/C*%
X64997700Y-145849420D03*
%TO.P,QFP-32,2*%
X64997700Y-145349420D03*
%TO.P,QFP-32,3*%
X64997700Y-144849420D03*
%TO.P,QFP-32,4*%
X64997700Y-144349420D03*
%TO.P,QFP-32,5*%
X64997700Y-143849420D03*
%TO.P,QFP-32,6*%
X64997700Y-143349420D03*
%TO.P,QFP-32,7*%
X64997700Y-142849420D03*
%TO.P,QFP-32,8*%
X64997700Y-142349420D03*
D63*
%TO.P,QFP-32,9*%
X63497700Y-140849420D03*
%TO.P,QFP-32,10*%
X62997700Y-140849420D03*
%TO.P,QFP-32,11*%
X62497700Y-140849420D03*
%TO.P,QFP-32,12*%
X61997700Y-140849420D03*
%TO.P,QFP-32,13*%
X61497700Y-140849420D03*
%TO.P,QFP-32,14*%
X60997700Y-140849420D03*
%TO.P,QFP-32,15*%
X60497700Y-140849420D03*
%TO.P,QFP-32,16*%
X59997700Y-140849420D03*
D62*
%TO.P,QFP-32,17*%
X58497700Y-142349420D03*
%TO.P,QFP-32,18*%
X58497700Y-142849420D03*
%TO.P,QFP-32,19*%
X58497700Y-143349420D03*
%TO.P,QFP-32,20*%
X58497700Y-143849420D03*
%TO.P,QFP-32,21*%
X58497700Y-144349420D03*
%TO.P,QFP-32,22*%
X58497700Y-144849420D03*
%TO.P,QFP-32,23*%
X58497700Y-145349420D03*
%TO.P,QFP-32,24*%
X58497700Y-145849420D03*
D63*
%TO.P,QFP-32,25*%
X59997700Y-147349420D03*
%TO.P,QFP-32,26*%
X60497700Y-147349420D03*
%TO.P,QFP-32,27*%
X60997700Y-147349420D03*
%TO.P,QFP-32,28*%
X61497700Y-147349420D03*
%TO.P,QFP-32,29*%
X61997700Y-147349420D03*
%TO.P,QFP-32,30*%
X62497700Y-147349420D03*
%TO.P,QFP-32,31*%
X62997700Y-147349420D03*
%TO.P,QFP-32,32*%
X63497700Y-147349420D03*
%TD*%
D53*
%TO.P,R28,1*%
%TO.N,R28_2*%
X73798800Y-122850100D03*
%TO.P,R28,2*%
%TO.N,R28_1*%
X73798800Y-129352500D03*
%TD*%
D64*
%TO.P,1206,1*%
%TO.N,N/C*%
X73247700Y-155929560D03*
%TO.P,1206,2*%
X73247700Y-158769280D03*
%TD*%
D65*
%TO.P,5032,1*%
%TO.N,N/C*%
X70497700Y-160349420D03*
%TO.P,5032,2*%
X68097700Y-156349420D03*
%TO.P,5032,3*%
X68097700Y-160349420D03*
X70497700Y-156349420D03*
%TD*%
D34*
%TO.P,C35,1*%
%TO.N,C35_1*%
X83298200Y-64801200D03*
%TO.P,C35,2*%
%TO.N,BUFFER-IN*%
X78299400Y-64801200D03*
%TD*%
D23*
%TO.P,REF\u002A\u002A,*%
%TO.N,*%
X108599000Y-218001000D03*
%TD*%
D34*
%TO.P,C9,1*%
%TO.N,LEAD-IN*%
X128398900Y-91500600D03*
%TO.P,C9,2*%
%TO.N,PR6_3*%
X128398900Y-86501900D03*
%TD*%
D58*
%TO.P,V3,1*%
%TO.N,R20_1*%
X123572900Y-40067100D03*
%TO.P,V3,2*%
%TO.N,R19_2*%
X119053000Y-36797100D03*
%TO.P,V3,3*%
%TO.N,C18_1*%
X113483000Y-36807000D03*
%TO.P,V3,4*%
%TO.N,N/C*%
X108993000Y-40077000D03*
%TO.P,V3,5*%
X107273000Y-45367100D03*
%TO.P,V3,6*%
%TO.N,ANODE*%
X108982900Y-50657100D03*
%TO.P,V3,7*%
%TO.N,R20_1*%
X113483000Y-53927100D03*
%TO.P,V3,8*%
%TO.N,C19_1*%
X119053000Y-53927100D03*
%TO.P,V3,9*%
%TO.N,V3_9*%
X123552800Y-50657100D03*
%TD*%
D66*
%TO.P,Q2,1*%
%TO.N,Q2_1*%
X69948900Y-100550900D03*
%TO.P,Q2,2*%
%TO.N,GND*%
X71848900Y-100550900D03*
%TO.P,Q2,3*%
%TO.N,U1_5*%
X70898900Y-98051500D03*
%TD*%
D24*
%TO.P,R19,1*%
%TO.N,C17_1*%
X107798700Y-59501200D03*
%TO.P,R19,2*%
%TO.N,R19_2*%
X107798700Y-56301300D03*
%TD*%
D36*
%TO.P,LED3,1*%
%TO.N,LED3_1*%
X115598800Y-46602500D03*
%TO.P,LED3,2*%
%TO.N,GND*%
X115598800Y-44199700D03*
%TD*%
D20*
%TO.P,C37,1*%
%TO.N,L3_1*%
X95498800Y-123101300D03*
%TO.P,C37,2*%
%TO.N,GND*%
X92298900Y-123101300D03*
%TD*%
D67*
%TO.P,SOT89-5,1*%
%TO.N,N/C*%
X86422700Y-137849420D03*
D68*
%TO.P,SOT89-5,2*%
X86422700Y-139349420D03*
D69*
X87497700Y-139349420D03*
D70*
X88272700Y-139349420D03*
D71*
X89047700Y-139349420D03*
D68*
X90122700Y-139349420D03*
D67*
%TO.P,SOT89-5,3*%
X86422700Y-140849420D03*
%TO.P,SOT89-5,4*%
X90122700Y-140849420D03*
%TO.P,SOT89-5,5*%
X90122700Y-137849420D03*
%TD*%
D20*
%TO.P,R23,1*%
%TO.N,C19_1*%
X122298800Y-54901300D03*
%TO.P,R23,2*%
%TO.N,C20_1*%
X125498700Y-54901300D03*
%TD*%
D58*
%TO.P,V1,1*%
%TO.N,C7_1*%
X123598800Y-114101300D03*
%TO.P,V1,2*%
%TO.N,JACK9_2*%
X119078900Y-110831300D03*
%TO.P,V1,3*%
%TO.N,C1_1*%
X113508900Y-110841200D03*
%TO.P,V1,4*%
%TO.N,N/C*%
X109018900Y-114111200D03*
%TO.P,V1,5*%
X107298900Y-119401300D03*
%TO.P,V1,6*%
%TO.N,C8_1*%
X109008800Y-124691300D03*
%TO.P,V1,7*%
%TO.N,PR4_2*%
X113508900Y-127961300D03*
%TO.P,V1,8*%
%TO.N,C6_1*%
X119078900Y-127961300D03*
%TO.P,V1,9*%
%TO.N,V1_9*%
X123578700Y-124691300D03*
%TD*%
D24*
%TO.P,R25,1*%
%TO.N,U1_5*%
X77298700Y-100401300D03*
%TO.P,R25,2*%
%TO.N,12V*%
X77298700Y-97201100D03*
%TD*%
D30*
%TO.P,REF\u002A\u002A,*%
%TO.N,*%
X35599000Y-218501000D03*
%TD*%
D72*
%TO.P,SOIC,1*%
%TO.N,N/C*%
X104957700Y-143695920D03*
%TO.P,SOIC,2*%
X106227700Y-143695920D03*
%TO.P,SOIC,3*%
X107497700Y-143695920D03*
%TO.P,SOIC,4*%
X108767700Y-143695920D03*
%TO.P,SOIC,5*%
X108767700Y-137345920D03*
%TO.P,SOIC,6*%
X107497700Y-137345920D03*
%TO.P,SOIC,7*%
X106227700Y-137345920D03*
%TO.P,SOIC,8*%
X104957700Y-137345920D03*
%TD*%
D56*
%TO.P,C12,1*%
%TO.N,C12_1*%
X108198800Y-70902200D03*
%TO.P,C12,2*%
%TO.N,GND*%
X108198800Y-67900000D03*
%TD*%
D20*
%TO.P,R22,1*%
%TO.N,C19_1*%
X117798700Y-60201200D03*
%TO.P,R22,2*%
%TO.N,GND*%
X120998900Y-60201200D03*
%TD*%
D73*
%TO.P,SSOP,1*%
%TO.N,N/C*%
X100291700Y-141192820D03*
%TO.P,SSOP,2*%
X100291700Y-140557820D03*
%TO.P,SSOP,3*%
X100291700Y-139897420D03*
%TO.P,SSOP,4*%
X100291700Y-139262420D03*
%TO.P,SSOP,5*%
X100291700Y-138602020D03*
%TO.P,SSOP,6*%
X100291700Y-137954320D03*
%TO.P,SSOP,7*%
X100291700Y-137306620D03*
%TO.P,SSOP,8*%
X94703700Y-137306620D03*
%TO.P,SSOP,9*%
X94703700Y-137954320D03*
%TO.P,SSOP,10*%
X94703700Y-138602020D03*
%TO.P,SSOP,11*%
X94703700Y-139262420D03*
%TO.P,SSOP,12*%
X94703700Y-139910120D03*
%TO.P,SSOP,13*%
X94703700Y-140557820D03*
%TO.P,SSOP,14*%
X94703700Y-141205520D03*
%TD*%
D23*
%TO.P,REF\u002A\u002A,*%
%TO.N,*%
X175099000Y-126501000D03*
%TD*%
D74*
%TO.P,7050,1*%
%TO.N,N/C*%
X98997700Y-145349420D03*
%TO.P,7050,2*%
X101497700Y-151649420D03*
%TO.P,7050,3*%
X101497700Y-145349420D03*
X98997700Y-151649420D03*
%TD*%
D34*
%TO.P,C14,1*%
%TO.N,C14_1*%
X100899100Y-82000500D03*
%TO.P,C14,2*%
%TO.N,C14_2*%
X100899100Y-77001800D03*
%TD*%
D20*
%TO.P,R21,1*%
%TO.N,C18_1*%
X108798700Y-36301000D03*
%TO.P,R21,2*%
%TO.N,GND*%
X105598900Y-36301000D03*
%TD*%
D23*
%TO.P,REF\u002A\u002A,*%
%TO.N,*%
X104599000Y-27501000D03*
%TD*%
D34*
%TO.P,C10,1*%
%TO.N,PR6_2*%
X142998900Y-103500600D03*
%TO.P,C10,2*%
%TO.N,PR6_3*%
X142998900Y-98501900D03*
%TD*%
D53*
%TO.P,R14,1*%
%TO.N,C13_2*%
X123198700Y-73152400D03*
%TO.P,R14,2*%
%TO.N,C14_2*%
X123198700Y-66650000D03*
%TD*%
D20*
%TO.P,R10,1*%
%TO.N,PR6_3*%
X151198700Y-93601200D03*
%TO.P,R10,2*%
%TO.N,GND*%
X147998800Y-93601200D03*
%TD*%
D75*
%TO.P,QFP-100,1*%
%TO.N,N/C*%
X67347700Y-151019420D03*
%TO.P,QFP-100,2*%
X67347700Y-150519420D03*
%TO.P,QFP-100,3*%
X67347700Y-150019420D03*
%TO.P,QFP-100,4*%
X67347700Y-149519420D03*
%TO.P,QFP-100,5*%
X67347700Y-149019420D03*
%TO.P,QFP-100,6*%
X67347700Y-148519420D03*
%TO.P,QFP-100,7*%
X67347700Y-148019420D03*
%TO.P,QFP-100,8*%
X67347700Y-147519420D03*
%TO.P,QFP-100,9*%
X67347700Y-147019420D03*
%TO.P,QFP-100,10*%
X67347700Y-146519420D03*
%TO.P,QFP-100,11*%
X67347700Y-146019420D03*
%TO.P,QFP-100,12*%
X67347700Y-145519420D03*
%TO.P,QFP-100,13*%
X67347700Y-145019420D03*
%TO.P,QFP-100,14*%
X67347700Y-144519420D03*
%TO.P,QFP-100,15*%
X67347700Y-144019420D03*
%TO.P,QFP-100,16*%
X67347700Y-143519420D03*
%TO.P,QFP-100,17*%
X67347700Y-143019420D03*
%TO.P,QFP-100,18*%
X67347700Y-142519420D03*
%TO.P,QFP-100,19*%
X67347700Y-142019420D03*
%TO.P,QFP-100,20*%
X67347700Y-141519420D03*
%TO.P,QFP-100,21*%
X67347700Y-141019420D03*
%TO.P,QFP-100,22*%
X67347700Y-140519420D03*
%TO.P,QFP-100,23*%
X67347700Y-140019420D03*
%TO.P,QFP-100,24*%
X67347700Y-139519420D03*
%TO.P,QFP-100,25*%
X67347700Y-139019420D03*
D76*
%TO.P,QFP-100,26*%
X65647700Y-137319420D03*
%TO.P,QFP-100,27*%
X65147700Y-137319420D03*
%TO.P,QFP-100,28*%
X64647700Y-137319420D03*
%TO.P,QFP-100,29*%
X64147700Y-137319420D03*
%TO.P,QFP-100,30*%
X63647700Y-137319420D03*
%TO.P,QFP-100,31*%
X63147700Y-137319420D03*
%TO.P,QFP-100,32*%
X62647700Y-137319420D03*
%TO.P,QFP-100,33*%
X62147700Y-137319420D03*
%TO.P,QFP-100,34*%
X61647700Y-137319420D03*
%TO.P,QFP-100,35*%
X61147700Y-137319420D03*
%TO.P,QFP-100,36*%
X60647700Y-137319420D03*
%TO.P,QFP-100,37*%
X60147700Y-137319420D03*
%TO.P,QFP-100,38*%
X59647700Y-137319420D03*
%TO.P,QFP-100,39*%
X59147700Y-137319420D03*
%TO.P,QFP-100,40*%
X58647700Y-137319420D03*
%TO.P,QFP-100,41*%
X58147700Y-137319420D03*
%TO.P,QFP-100,42*%
X57647700Y-137319420D03*
%TO.P,QFP-100,43*%
X57147700Y-137319420D03*
%TO.P,QFP-100,44*%
X56647700Y-137319420D03*
%TO.P,QFP-100,45*%
X56147700Y-137319420D03*
%TO.P,QFP-100,46*%
X55647700Y-137319420D03*
%TO.P,QFP-100,47*%
X55147700Y-137319420D03*
%TO.P,QFP-100,48*%
X54647700Y-137319420D03*
%TO.P,QFP-100,49*%
X54147700Y-137319420D03*
%TO.P,QFP-100,50*%
X53647700Y-137319420D03*
D75*
%TO.P,QFP-100,51*%
X51947700Y-139019420D03*
%TO.P,QFP-100,52*%
X51947700Y-139519420D03*
%TO.P,QFP-100,53*%
X51947700Y-140019420D03*
%TO.P,QFP-100,54*%
X51947700Y-140519420D03*
%TO.P,QFP-100,55*%
X51947700Y-141019420D03*
%TO.P,QFP-100,56*%
X51947700Y-141519420D03*
%TO.P,QFP-100,57*%
X51947700Y-142019420D03*
%TO.P,QFP-100,58*%
X51947700Y-142519420D03*
%TO.P,QFP-100,59*%
X51947700Y-143019420D03*
%TO.P,QFP-100,60*%
X51947700Y-143519420D03*
%TO.P,QFP-100,61*%
X51947700Y-144019420D03*
%TO.P,QFP-100,62*%
X51947700Y-144519420D03*
%TO.P,QFP-100,63*%
X51947700Y-145019420D03*
%TO.P,QFP-100,64*%
X51947700Y-145519420D03*
%TO.P,QFP-100,65*%
X51947700Y-146019420D03*
%TO.P,QFP-100,66*%
X51947700Y-146519420D03*
%TO.P,QFP-100,67*%
X51947700Y-147019420D03*
%TO.P,QFP-100,68*%
X51947700Y-147519420D03*
%TO.P,QFP-100,69*%
X51947700Y-148019420D03*
%TO.P,QFP-100,70*%
X51947700Y-148519420D03*
%TO.P,QFP-100,71*%
X51947700Y-149019420D03*
%TO.P,QFP-100,72*%
X51947700Y-149519420D03*
%TO.P,QFP-100,73*%
X51947700Y-150019420D03*
%TO.P,QFP-100,74*%
X51947700Y-150519420D03*
%TO.P,QFP-100,75*%
X51947700Y-151019420D03*
D76*
%TO.P,QFP-100,76*%
X53647700Y-152719420D03*
%TO.P,QFP-100,77*%
X54147700Y-152719420D03*
%TO.P,QFP-100,78*%
X54647700Y-152719420D03*
%TO.P,QFP-100,79*%
X55147700Y-152719420D03*
%TO.P,QFP-100,80*%
X55647700Y-152719420D03*
%TO.P,QFP-100,81*%
X56147700Y-152719420D03*
%TO.P,QFP-100,82*%
X56647700Y-152719420D03*
%TO.P,QFP-100,83*%
X57147700Y-152719420D03*
%TO.P,QFP-100,84*%
X57647700Y-152719420D03*
%TO.P,QFP-100,85*%
X58147700Y-152719420D03*
%TO.P,QFP-100,86*%
X58647700Y-152719420D03*
%TO.P,QFP-100,87*%
X59147700Y-152719420D03*
%TO.P,QFP-100,88*%
X59647700Y-152719420D03*
%TO.P,QFP-100,89*%
X60147700Y-152719420D03*
%TO.P,QFP-100,90*%
X60647700Y-152719420D03*
%TO.P,QFP-100,91*%
X61147700Y-152719420D03*
%TO.P,QFP-100,92*%
X61647700Y-152719420D03*
%TO.P,QFP-100,93*%
X62147700Y-152719420D03*
%TO.P,QFP-100,94*%
X62647700Y-152719420D03*
%TO.P,QFP-100,95*%
X63147700Y-152719420D03*
%TO.P,QFP-100,96*%
X63647700Y-152719420D03*
%TO.P,QFP-100,97*%
X64147700Y-152719420D03*
%TO.P,QFP-100,98*%
X64647700Y-152719420D03*
%TO.P,QFP-100,99*%
X65147700Y-152719420D03*
%TO.P,QFP-100,100*%
X65647700Y-152719420D03*
%TD*%
D58*
%TO.P,RELAY3,1*%
%TO.N,N/C*%
X97148800Y-35301400D03*
%TO.P,RELAY3,2*%
X97148800Y-45301300D03*
%TO.P,RELAY3,3*%
%TO.N,RELAY1_3*%
X86948100Y-45301300D03*
%TO.P,RELAY3,4*%
%TO.N,12V*%
X86948100Y-35301400D03*
%TO.P,RELAY3,5*%
%TO.N,GND*%
X84448800Y-40300100D03*
%TD*%
D77*
%TO.P,JACK1,1*%
%TO.N,GND*%
X60098600Y-37400600D03*
%TO.P,JACK1,2*%
%TO.N,SW1_2*%
X72097500Y-37400600D03*
%TO.P,JACK1,3*%
%TO.N,GND*%
X66098100Y-37400600D03*
%TO.P,JACK1,4*%
X60098600Y-51401100D03*
%TO.P,JACK1,5*%
%TO.N,JACK1_5*%
X72100100Y-51398500D03*
%TO.P,JACK1,6*%
%TO.N,GND*%
X66100600Y-51398500D03*
%TD*%
D78*
%TO.P,SW1,1*%
%TO.N,BUFFER-OUT*%
X78398800Y-59401400D03*
%TO.P,SW1,2*%
%TO.N,SW1_2*%
X74598900Y-59401400D03*
%TO.P,SW1,3*%
%TO.N,BUFFER-IN*%
X70798800Y-59401400D03*
%TO.P,SW1,4*%
%TO.N,GND*%
X57898900Y-56901500D03*
%TO.P,SW1,5*%
X57898900Y-61901500D03*
%TD*%
D77*
%TO.P,JACK2,1*%
%TO.N,GND*%
X60098800Y-67400600D03*
%TO.P,JACK2,2*%
%TO.N,12V*%
X72097800Y-67400600D03*
%TO.P,JACK2,3*%
%TO.N,RELAY1_3*%
X66098300Y-67400600D03*
%TO.P,JACK2,4*%
%TO.N,JACK2_4*%
X60098800Y-81401100D03*
%TO.P,JACK2,5*%
%TO.N,JACK2_5*%
X72100300Y-81398500D03*
%TO.P,JACK2,6*%
%TO.N,JACK2_6*%
X66100900Y-81398500D03*
%TD*%
D60*
%TO.P,C25,1*%
%TO.N,ANODE*%
X65438900Y-111601100D03*
D61*
%TO.P,C25,2*%
%TO.N,GND*%
X60358900Y-111601100D03*
%TD*%
D58*
%TO.P,RELAY2,1*%
%TO.N,LEAD-OUT*%
X97148800Y-48701100D03*
%TO.P,RELAY2,2*%
%TO.N,CLEAN-OUT*%
X97148800Y-58701100D03*
%TO.P,RELAY2,3*%
%TO.N,RELAY1_3*%
X86948100Y-58701100D03*
%TO.P,RELAY2,4*%
%TO.N,12V*%
X86948100Y-48701100D03*
%TO.P,RELAY2,5*%
%TO.N,BUFFER-IN*%
X84448800Y-53699900D03*
%TD*%
%TO.P,RELAY1,1*%
%TO.N,LEAD-IN*%
X120648900Y-95701000D03*
%TO.P,RELAY1,2*%
%TO.N,CLEAN-IN*%
X120648900Y-105701000D03*
%TO.P,RELAY1,3*%
%TO.N,RELAY1_3*%
X110448200Y-105701000D03*
%TO.P,RELAY1,4*%
%TO.N,12V*%
X110448200Y-95701000D03*
%TO.P,RELAY1,5*%
%TO.N,CH-SELECT*%
X107948900Y-100699700D03*
%TD*%
D60*
%TO.P,C33,1*%
%TO.N,D1_2*%
X65538700Y-125301100D03*
D61*
%TO.P,C33,2*%
%TO.N,GND*%
X60458700Y-125301100D03*
%TD*%
D79*
%TO.N,*%
X140497699Y-149849420D03*
D80*
X133331034Y-149849420D03*
D81*
X131597698Y-149849420D03*
D82*
X134964367Y-149849420D03*
D83*
X142664365Y-149849420D03*
D84*
X131397702Y-147849420D03*
D85*
X137931033Y-149849420D03*
D86*
X141631032Y-149849420D03*
D87*
X136497700Y-149849420D03*
D88*
X139264366Y-149849420D03*
D84*
X143597698Y-149849420D03*
D83*
%TO.N,GND*%
X144098900Y-113501100D03*
X142564367Y-137849420D03*
D79*
X140497699Y-141849420D03*
D83*
X142664365Y-141849420D03*
D79*
X134497701Y-139849420D03*
D83*
X146698900Y-90601200D03*
D86*
X141531034Y-137849420D03*
X141631032Y-141849420D03*
D81*
X131597698Y-141849420D03*
D80*
X141664366Y-139849420D03*
D84*
X143597698Y-141849420D03*
D86*
X133264370Y-143849420D03*
D80*
X141564368Y-143849420D03*
D88*
X135731034Y-139849420D03*
D84*
X143497700Y-145849420D03*
D83*
X142564367Y-145849420D03*
D84*
X131297704Y-143849420D03*
D87*
X138497700Y-139849420D03*
D88*
X139164368Y-137849420D03*
D79*
X140397701Y-137849420D03*
D85*
X137064367Y-139849420D03*
D83*
X132231037Y-143849420D03*
X132331035Y-139849420D03*
X145499000Y-113501100D03*
X149898800Y-71401100D03*
D81*
X131497700Y-137849420D03*
D83*
X146798900Y-113501100D03*
X147998800Y-90601200D03*
D82*
X134864369Y-137849420D03*
D83*
X151698900Y-58701100D03*
D84*
X131397702Y-139849420D03*
D88*
X139264366Y-141849420D03*
D86*
X133364368Y-139849420D03*
D83*
X149298800Y-90601200D03*
D80*
X133231036Y-145849420D03*
D82*
X140031033Y-139849420D03*
D81*
X143297704Y-143849420D03*
D87*
X136397702Y-137849420D03*
D85*
X137831035Y-137849420D03*
D86*
X141531034Y-145849420D03*
D82*
X134964367Y-141849420D03*
D83*
X144898800Y-77701300D03*
D84*
X143497700Y-137849420D03*
D83*
X151899000Y-52001100D03*
D80*
X133231036Y-137849420D03*
D87*
X136497700Y-141849420D03*
D80*
X133331034Y-141849420D03*
D85*
X137931033Y-141849420D03*
D83*
%TO.N,ANODE*%
X80998700Y-83401300D03*
X89198900Y-83401300D03*
X113098700Y-67401100D03*
%TO.N,R28_1*%
X80898900Y-115801300D03*
X78598900Y-115801300D03*
X79748800Y-116901100D03*
X80898900Y-118001200D03*
X78598900Y-118001200D03*
%TO.N,U2_2*%
X88098800Y-106201100D03*
D87*
%TO.N,C6_1*%
X138397702Y-143849420D03*
D79*
X140397701Y-145849420D03*
D82*
X139931035Y-143849420D03*
D88*
X135631036Y-143849420D03*
D87*
X136397702Y-145849420D03*
D85*
X136964369Y-143849420D03*
D88*
X139164368Y-145849420D03*
D85*
X137831035Y-145849420D03*
D79*
X134397703Y-143849420D03*
D82*
X134864369Y-145849420D03*
D81*
%TO.N,C8_1*%
X143397702Y-139849420D03*
D83*
%TO.N,12V*%
X81498800Y-95901100D03*
X86199100Y-111301400D03*
%TO.N,PR9_2*%
X147598800Y-46901200D03*
%TO.N,LEAD-OUT*%
X145797700Y-123000700D03*
X107398700Y-62401100D03*
%TO.N,JACK2_4*%
X73498900Y-89201100D03*
X100398700Y-114301200D03*
%TO.N,C11_1*%
X137498700Y-80201200D03*
%TO.N,R16_1*%
X128898800Y-73601200D03*
X137398900Y-72501100D03*
D81*
%TO.N,PR4_2*%
X143397702Y-147849420D03*
X131497700Y-145849420D03*
D83*
X132331035Y-147849420D03*
D80*
X141664366Y-147849420D03*
D79*
X134497701Y-147849420D03*
D82*
X140031033Y-147849420D03*
D86*
X133364368Y-147849420D03*
D88*
X135731034Y-147849420D03*
D87*
X138497700Y-147849420D03*
D85*
X137064367Y-147849420D03*
D83*
%TO.N,JACK2_6*%
X73498900Y-87701300D03*
%TO.N,PR1_2*%
X140698900Y-44701100D03*
X153098900Y-52001100D03*
%TO.N,CLEAN-OUT*%
X107398700Y-64201200D03*
%TD*%
%TO.N,*%
D89*
X145497700Y-158049420D02*
X145497700Y-137549420D01*
D90*
X156497700Y-158149420D02*
X156497700Y-137549420D01*
D91*
X159797700Y-158149420D02*
X159797700Y-137549420D01*
D92*
X153597700Y-158149420D02*
X153597700Y-137549420D01*
D93*
X147297700Y-158049420D02*
X147297700Y-137549420D01*
D94*
X151097700Y-158149420D02*
X151097700Y-137549420D01*
D91*
X78176902Y-195126200D02*
X78176902Y-177326200D01*
D95*
X55018502Y-182726200D02*
X55018502Y-195676200D01*
D96*
X148997700Y-158149420D02*
X148997700Y-137549420D01*
D89*
X52115582Y-195776200D02*
X52115582Y-183726200D01*
D97*
X149997700Y-158149420D02*
X149997700Y-137549420D01*
D98*
X145097700Y-137549420D02*
X145097700Y-158049420D01*
D99*
X58321422Y-195576200D02*
X58321422Y-181726200D01*
D100*
X66127262Y-195376200D02*
X66127262Y-179726200D01*
D92*
X68328722Y-195326200D02*
X68328722Y-179226200D01*
D98*
X50814122Y-195826200D02*
X50814122Y-184226200D01*
D101*
X70630182Y-195276200D02*
X70630182Y-178726200D01*
D93*
X56619962Y-195626200D02*
X56619962Y-182226200D01*
D96*
X60122882Y-195526200D02*
X60122882Y-181226200D01*
D102*
X145997700Y-137549420D02*
X145997700Y-158049420D01*
D95*
X146597700Y-137549420D02*
X146597700Y-158049420D01*
D100*
X152297700Y-158149420D02*
X152297700Y-137549420D01*
D94*
X64025802Y-195426200D02*
X64025802Y-180226200D01*
D99*
X148097700Y-158149420D02*
X148097700Y-137549420D01*
D101*
X154997700Y-158149420D02*
X154997700Y-137549420D01*
D103*
X75533102Y-195176200D02*
X75533102Y-177726200D01*
D97*
X62024342Y-195476200D02*
X62024342Y-180726200D01*
D103*
X158097700Y-158149420D02*
X158097700Y-137549420D01*
D90*
X73031642Y-195226200D02*
X73031642Y-178226200D01*
D102*
X53517042Y-183226200D02*
X53517042Y-195726200D01*
%TO.N,GND*%
D104*
X58998800Y-88201100D02*
X58998800Y-86201200D01*
D96*
X85312700Y-32751900D02*
X155348100Y-32751900D01*
D105*
X98000000Y-92000000D02*
X97998900Y-92001200D01*
D102*
X71848100Y-100549600D02*
X71848100Y-99302500D01*
X70349500Y-99200900D02*
X69099800Y-99200900D01*
D96*
X56049300Y-32751900D02*
X85312700Y-32751900D01*
X155337900Y-121420800D02*
X155337900Y-132050700D01*
X155348100Y-32751900D02*
X155348100Y-43310700D01*
X155337900Y-132050700D02*
X56049300Y-132060800D01*
D102*
X70451100Y-99302500D02*
X70349500Y-99200900D01*
X71848100Y-99302500D02*
X70451100Y-99302500D01*
D96*
X56049300Y-132060800D02*
X56049300Y-32751900D01*
%TO.N,ANODE*%
D101*
X65598800Y-115850000D02*
X62047500Y-115850000D01*
X62047500Y-115850000D02*
X61998800Y-115801300D01*
D93*
X61598900Y-118401200D02*
X61998800Y-118001300D01*
D103*
X80999700Y-83402100D02*
X89198800Y-83401200D01*
D93*
X61998800Y-118001300D02*
X61998800Y-115801300D01*
D101*
X65438800Y-115690000D02*
X65438800Y-111601200D01*
X65598800Y-115850000D02*
X65438800Y-115690000D01*
%TO.N,R28_1*%
X82300200Y-118601400D02*
X77598700Y-123302900D01*
X76846800Y-129353200D02*
X77598700Y-128601400D01*
X71356200Y-129301200D02*
X71407400Y-129352400D01*
X77598700Y-128601400D02*
X77598700Y-127702200D01*
X71407400Y-129352400D02*
X73798800Y-129352400D01*
X73798800Y-129353200D02*
X76846800Y-129353200D01*
X77598700Y-123302900D02*
X77598800Y-127801200D01*
%TO.N,D1_2*%
X67241400Y-129301200D02*
X64898800Y-129301200D01*
X64898800Y-126401200D02*
X65538800Y-125301900D01*
X64898700Y-129302400D02*
X64898800Y-126401200D01*
X65598800Y-125241200D02*
X65598800Y-122352400D01*
X65538800Y-125301200D02*
X65598800Y-125241200D01*
%TO.N,NAKAL*%
D106*
X62798900Y-95501100D02*
X62798900Y-91901200D01*
D93*
X66699500Y-94001500D02*
X66399800Y-93701800D01*
X66399800Y-93701800D02*
X62798100Y-93701800D01*
%TO.N,U2_2*%
X85098800Y-94701200D02*
X85198800Y-94801100D01*
X85198800Y-94801100D02*
X88098800Y-94801100D01*
X85049000Y-92601100D02*
X85098800Y-92650900D01*
X88098800Y-94801100D02*
X88098800Y-106201100D01*
X78099100Y-94400300D02*
X77598700Y-94900600D01*
X82993600Y-92601900D02*
X82498300Y-92601900D01*
X82498300Y-92601900D02*
X82498300Y-94400300D01*
X82498300Y-94400300D02*
X78099100Y-94400300D01*
X71299500Y-94900600D02*
X70397800Y-94001500D01*
X70397800Y-94001500D02*
X69899900Y-94001500D01*
X77598700Y-94900600D02*
X71299500Y-94900600D01*
X85048900Y-92601100D02*
X82508900Y-92601100D01*
X85098800Y-92650900D02*
X85098800Y-94701200D01*
%TO.N,C34_1*%
X80999700Y-66201200D02*
X80999700Y-62701100D01*
X86598700Y-75601200D02*
X86598700Y-72701000D01*
X86597900Y-62701100D02*
X86597900Y-64400300D01*
X86999000Y-75601200D02*
X86598700Y-75601200D01*
D100*
X81698800Y-69801200D02*
X81698700Y-68001100D01*
X84598600Y-72701000D02*
X81698800Y-69801200D01*
D93*
X81698200Y-68002000D02*
X81698200Y-66902200D01*
D100*
X86598600Y-72701000D02*
X84598600Y-72701000D01*
D93*
X81698200Y-66902200D02*
X80999700Y-66201200D01*
X80999700Y-62701100D02*
X86597900Y-62701100D01*
%TO.N,C6_1*%
D103*
X123799000Y-128401200D02*
X119518900Y-128401200D01*
X119518900Y-128401200D02*
X119078900Y-127961300D01*
%TO.N,LEAD-IN*%
X120649100Y-95700700D02*
X122099500Y-94250400D01*
X122099500Y-94250400D02*
X122099500Y-93402000D01*
X128398700Y-91301500D02*
X128398700Y-91499600D01*
X129698400Y-90201100D02*
X128398900Y-91500600D01*
D106*
X105599600Y-79200900D02*
X107098200Y-82302200D01*
D103*
X124197500Y-91301500D02*
X128398700Y-91301500D01*
X131798800Y-90201100D02*
X129698400Y-90201100D01*
X122099500Y-93402000D02*
X124197500Y-91301500D01*
%TO.N,PR6_3*%
X143077300Y-98598900D02*
X151799700Y-98598900D01*
X131299400Y-86500900D02*
X128398700Y-86500900D01*
X136198600Y-91661300D02*
X143077300Y-98598900D01*
X131799700Y-87001200D02*
X136204100Y-87001200D01*
X136204100Y-87001200D02*
X136198600Y-91661300D01*
X151198800Y-93601200D02*
X151798900Y-94201300D01*
X131799700Y-87001200D02*
X131299400Y-86500900D01*
X151798900Y-94201300D02*
X151798900Y-98599900D01*
%TO.N,U1_3*%
D102*
X79757700Y-128601400D02*
X79757700Y-125401000D01*
X88063500Y-112500300D02*
X82734600Y-112500300D01*
X88398800Y-125401000D02*
X88398800Y-112835600D01*
X82734600Y-112500300D02*
X82734600Y-110724800D01*
X88398800Y-112835600D02*
X88063500Y-112500300D01*
X79757700Y-125401000D02*
X88398800Y-125401000D01*
%TO.N,C8_1*%
D103*
X129198800Y-123501000D02*
X129099700Y-123501000D01*
X121197800Y-121001700D02*
X118398700Y-123800800D01*
X129099700Y-123501000D02*
X126597800Y-121001700D01*
X118398700Y-123800800D02*
X109899900Y-123800800D01*
X109899900Y-123800800D02*
X109008300Y-124692300D01*
X126597800Y-121001700D02*
X121197800Y-121001700D01*
%TO.N,12V*%
D102*
X79698800Y-97201100D02*
X79698800Y-95901100D01*
X84898800Y-95901100D02*
X85098800Y-96101100D01*
D100*
X85399000Y-81301500D02*
X72097000Y-67999500D01*
X91698200Y-100100000D02*
X91698200Y-81301500D01*
X89699200Y-46701600D02*
X89699200Y-38052900D01*
D102*
X84004600Y-111301400D02*
X86199100Y-111301400D01*
D100*
X89699200Y-38052900D02*
X86948400Y-35302100D01*
X91657600Y-109602200D02*
X91698200Y-109561500D01*
D102*
X80194600Y-99607300D02*
X80194600Y-104679600D01*
X86897600Y-99602200D02*
X80194600Y-99607300D01*
D93*
X90476200Y-78906300D02*
X90476200Y-80901000D01*
D100*
X87697700Y-48700600D02*
X89699200Y-46701600D01*
D102*
X86897600Y-109200800D02*
X86897600Y-99602200D01*
D100*
X91698200Y-81301500D02*
X85399000Y-81301500D01*
D93*
X86998700Y-78801100D02*
X86998700Y-81301500D01*
D102*
X84004600Y-110724800D02*
X84004600Y-109200800D01*
D100*
X110448500Y-96401800D02*
X110448500Y-95700700D01*
X105498000Y-96401800D02*
X110448500Y-96401800D01*
D102*
X84004600Y-110724800D02*
X84004600Y-111301400D01*
X79698800Y-95901100D02*
X81498800Y-95901100D01*
D100*
X91698200Y-100201600D02*
X101698200Y-100201600D01*
X101698200Y-100201600D02*
X105498000Y-96401800D01*
D102*
X81498800Y-95901100D02*
X84898800Y-95901100D01*
D100*
X91698200Y-109561500D02*
X91698200Y-100201600D01*
D102*
X77298800Y-97201100D02*
X77298900Y-97201100D01*
D100*
X72097000Y-67999500D02*
X72097000Y-67400100D01*
X86948400Y-48700600D02*
X87697700Y-48700600D01*
D102*
X84004600Y-109200800D02*
X86897600Y-109200800D01*
X85098800Y-98001200D02*
X85098800Y-99603400D01*
X85098800Y-96101100D02*
X85098800Y-98001200D01*
X77298900Y-97201100D02*
X79698800Y-97201100D01*
%TO.N,U1_7*%
X81463800Y-101836200D02*
X82098800Y-101201100D01*
X82098800Y-101201100D02*
X85098800Y-101201100D01*
X81463800Y-104278600D02*
X81463800Y-101836200D01*
%TO.N,U1_2*%
X79297900Y-102650200D02*
X79297900Y-98499800D01*
X81464600Y-110724800D02*
X81464600Y-108200100D01*
X78000000Y-106500800D02*
X82734600Y-106500800D01*
X82099600Y-98502400D02*
X82099600Y-98002000D01*
X77997500Y-102652700D02*
X79297900Y-102650200D01*
X82734600Y-102800000D02*
X82734600Y-104679600D01*
X82734600Y-106500800D02*
X82734600Y-104679600D01*
X85498100Y-108200100D02*
X85498100Y-102800000D01*
X85498100Y-102800000D02*
X82734600Y-102800000D01*
X78000000Y-104700000D02*
X77997500Y-102652700D01*
X79297900Y-98499800D02*
X82099600Y-98502400D01*
X78000000Y-104700000D02*
X78000000Y-106500800D01*
X81464600Y-108200100D02*
X85498100Y-108200100D01*
%TO.N,U1_5*%
X84003800Y-104678600D02*
X84003800Y-107301200D01*
X70898200Y-98052800D02*
X73148600Y-98052800D01*
X76399800Y-101301400D02*
X77299000Y-100402300D01*
X73148600Y-98052800D02*
X75498100Y-100402300D01*
X75498100Y-100402300D02*
X77299000Y-100402300D01*
X78548600Y-107300900D02*
X76399800Y-107300900D01*
X84003800Y-107301200D02*
X78548600Y-107301200D01*
X76399800Y-107300900D02*
X76399800Y-101301400D01*
%TO.N,CH-SELECT*%
D106*
X108509000Y-76701200D02*
X108819000Y-77011200D01*
X105598800Y-76701200D02*
X108509000Y-76701200D01*
%TO.N,R30_1*%
D101*
X73498600Y-111951400D02*
X71198900Y-114251100D01*
X73498600Y-107901100D02*
X73498600Y-111951400D01*
%TO.N,C36_1*%
D100*
X93698800Y-64701100D02*
X90498700Y-64701100D01*
X93698800Y-67302000D02*
X93698800Y-64701100D01*
X93599000Y-67401800D02*
X93698800Y-67302000D01*
%TO.N,C36_2*%
D93*
X96521700Y-77636300D02*
X93199400Y-77636300D01*
X96521700Y-77636300D02*
X96521700Y-78906300D01*
X93199400Y-72800100D02*
X93598100Y-72401300D01*
X93199400Y-77636300D02*
X93199400Y-72800100D01*
%TO.N,C17_1*%
D103*
X110998900Y-60201200D02*
X110998900Y-59501200D01*
X107798800Y-59501200D02*
X104298900Y-59501200D01*
X104298900Y-59501200D02*
X103598800Y-60201200D01*
X110998900Y-59501200D02*
X107798800Y-59501200D01*
%TO.N,C22_1*%
X144898700Y-70800600D02*
X145098900Y-70600500D01*
X144898700Y-74501100D02*
X144898700Y-70800600D01*
%TO.N,PR9_2*%
D100*
X147598500Y-46902300D02*
X147598500Y-40100100D01*
D97*
X147298800Y-84900700D02*
X155299800Y-84900700D01*
X155297300Y-119800300D02*
X151799700Y-119800300D01*
X155299800Y-84900700D02*
X155297300Y-119800300D01*
X147298800Y-69101900D02*
X147298800Y-84900700D01*
D100*
X147598500Y-40100100D02*
X147700100Y-40001100D01*
D97*
X145099200Y-65601700D02*
X145099200Y-66902200D01*
X145099200Y-66902200D02*
X147298800Y-69101900D01*
D100*
X147700100Y-40001100D02*
X151799700Y-40001100D01*
%TO.N,R29_2*%
D93*
X61599200Y-121601100D02*
X62099600Y-121601100D01*
X64350000Y-119350700D02*
X71197900Y-119350700D01*
X62099600Y-121601100D02*
X64350000Y-119350700D01*
%TO.N,C35_1*%
X95099300Y-69902000D02*
X95099300Y-73501100D01*
X94398200Y-74202200D02*
X94398200Y-76366300D01*
X86597900Y-67600700D02*
X89397000Y-67600700D01*
X94398200Y-76366300D02*
X96521700Y-76366300D01*
X89397000Y-67600700D02*
X91698200Y-69902000D01*
D100*
X83298200Y-64801100D02*
X86098300Y-67601200D01*
X86098300Y-67601200D02*
X86598900Y-67601200D01*
D93*
X91698200Y-69902000D02*
X95099300Y-69902000D01*
X95099300Y-73501100D02*
X94398200Y-74202200D01*
%TO.N,C13_2*%
D103*
X123472800Y-77067000D02*
X123472800Y-73426400D01*
X123908000Y-77501600D02*
X123473600Y-77067300D01*
X126698900Y-76000500D02*
X126698900Y-77501200D01*
X137398900Y-77501600D02*
X123908000Y-77501600D01*
X137398900Y-76001300D02*
X137398900Y-77501600D01*
X123472800Y-73426400D02*
X123198800Y-73152400D01*
%TO.N,PR6_2*%
D93*
X143598700Y-110501100D02*
X141698900Y-108601200D01*
X141698900Y-104800500D02*
X142998800Y-103500500D01*
X144499000Y-110501100D02*
X143598700Y-110501100D01*
X141698900Y-108601200D02*
X141698900Y-104800500D01*
D103*
X151798900Y-103500600D02*
X142998900Y-103500600D01*
X151798900Y-103601100D02*
X151798900Y-103500600D01*
%TO.N,CLEAN-IN*%
X139600100Y-50300800D02*
X138800000Y-50300800D01*
X116100000Y-88601400D02*
X122198500Y-82500400D01*
X143138900Y-50301200D02*
X138798800Y-50301200D01*
X122198500Y-82500400D02*
X139600100Y-82500400D01*
X139600100Y-82500400D02*
X139600100Y-50300800D01*
X143298800Y-50141300D02*
X143138900Y-50301200D01*
X120649100Y-105700700D02*
X116100000Y-101151600D01*
X116100000Y-101151600D02*
X116100000Y-88601400D01*
%TO.N,PR8_1*%
D100*
X148599300Y-56201200D02*
X147098200Y-57702300D01*
X151799700Y-56201200D02*
X148599300Y-56201200D01*
X147298800Y-87400000D02*
X151799700Y-87400000D01*
X145498000Y-85599200D02*
X147298800Y-87400000D01*
X145498000Y-83099800D02*
X145498000Y-85599200D01*
X147098200Y-57702300D02*
X142498200Y-57702300D01*
X142498200Y-80100100D02*
X145498000Y-83099800D01*
X142498200Y-57702300D02*
X142498200Y-80100100D01*
%TO.N,C20_2*%
D97*
X151799700Y-77499100D02*
X155299800Y-77501600D01*
X151799700Y-44900700D02*
X151799700Y-44999800D01*
X151799700Y-77400000D02*
X151799700Y-77499100D01*
X155299800Y-44900700D02*
X151799700Y-44900700D01*
X155299800Y-77501600D02*
X155299800Y-44900700D01*
D100*
X144998600Y-54001300D02*
X151799700Y-47200200D01*
X144499000Y-54001300D02*
X144998600Y-54001300D01*
X151799700Y-47200200D02*
X151799700Y-44999800D01*
D103*
X153598000Y-82500400D02*
X153598000Y-77499100D01*
%TO.N,C4_2*%
X135598800Y-45301100D02*
X138698400Y-42200700D01*
X135599600Y-50300800D02*
X135598800Y-45301100D01*
X135599600Y-50300800D02*
X135599600Y-50300800D01*
%TO.N,R28_2*%
D100*
X69298700Y-123101200D02*
X69549900Y-122850000D01*
X69549900Y-122850000D02*
X73798800Y-122850000D01*
%TO.N,LEAD-OUT*%
D101*
X151799700Y-124801500D02*
X146399700Y-124801500D01*
X99998900Y-60572500D02*
X99998900Y-57100400D01*
X99998900Y-57100400D02*
X97149100Y-54250500D01*
X146399700Y-124801500D02*
X145797700Y-124202100D01*
X97149100Y-54250500D02*
X97149100Y-48700600D01*
X145797700Y-124202100D02*
X145797700Y-123000700D01*
X107398000Y-62401300D02*
X101827700Y-62401300D01*
X101827700Y-62401300D02*
X99998900Y-60572500D01*
%TO.N,Q2_1*%
D102*
X71898900Y-110501300D02*
X69498600Y-112901600D01*
X69948200Y-105802300D02*
X71898900Y-105802300D01*
X69498600Y-112901600D02*
X69498600Y-116810700D01*
X71898900Y-105802300D02*
X71898900Y-110501300D01*
X69948200Y-100549600D02*
X69948200Y-105802300D01*
X69498600Y-116810700D02*
X71197900Y-116810700D01*
%TO.N,R35_1*%
D93*
X79849000Y-92501200D02*
X76098800Y-92501200D01*
X79948900Y-92601100D02*
X79849000Y-92501200D01*
%TO.N,C14_1*%
D100*
X108911800Y-87201900D02*
X105299900Y-87201900D01*
X108883900Y-87656600D02*
X108911800Y-87201900D01*
X100898100Y-82800100D02*
X100898100Y-82000000D01*
X105299900Y-87201900D02*
X100898100Y-82800100D01*
%TO.N,C14_2*%
X105797800Y-85002300D02*
X102998700Y-82200600D01*
D103*
X126699400Y-66650800D02*
X123199300Y-66650800D01*
D100*
X102998700Y-82200600D02*
X102998700Y-80501400D01*
X119399500Y-70201700D02*
X116199100Y-70201700D01*
X111698200Y-80501400D02*
X111698200Y-85002300D01*
D103*
X126699400Y-71001800D02*
X126699400Y-66650800D01*
D100*
X119399500Y-66752400D02*
X119399500Y-70201700D01*
X116199100Y-70201700D02*
X116199100Y-76000500D01*
X119549300Y-66600000D02*
X119399500Y-66752400D01*
X116199100Y-76000500D02*
X111698200Y-80501400D01*
X102998700Y-80501400D02*
X100898100Y-78400800D01*
D103*
X119550000Y-66601200D02*
X123150000Y-66601200D01*
D100*
X100898100Y-78400800D02*
X100898100Y-77001300D01*
X111698200Y-85002300D02*
X105797800Y-85002300D01*
D103*
X123150000Y-66601200D02*
X123198800Y-66650000D01*
%TO.N,C20_1*%
X134499000Y-54001300D02*
X134499000Y-54001300D01*
X134499800Y-54001600D02*
X134499800Y-55200400D01*
X134499000Y-60001300D02*
X134499000Y-54001300D01*
X134499800Y-55200400D02*
X125797700Y-55200400D01*
X125797700Y-55200400D02*
X125498000Y-54900700D01*
%TO.N,PR7_2*%
X144499000Y-60001300D02*
X147197500Y-60001300D01*
X148398600Y-61202400D02*
X151799700Y-61202400D01*
X147197500Y-60001300D02*
X148398600Y-61202400D01*
%TO.N,LED7_2*%
D93*
X105399000Y-128001900D02*
X101599100Y-128001900D01*
X101599100Y-128001900D02*
X98998200Y-125401000D01*
X105399000Y-128347400D02*
X105399000Y-128001900D01*
%TO.N,JACK2_4*%
X98998700Y-122201100D02*
X100398700Y-120801000D01*
X60098100Y-80801100D02*
X60098100Y-81400500D01*
X73499100Y-89200900D02*
X68497900Y-89200900D01*
X68497900Y-89200900D02*
X60098100Y-80801100D01*
X100398700Y-120801000D02*
X100398700Y-114301200D01*
%TO.N,LED1_1*%
D106*
X108709000Y-113801200D02*
X109019000Y-114111200D01*
X105798800Y-113801200D02*
X108709000Y-113801200D01*
%TO.N,C19_1*%
D103*
X117799300Y-60201700D02*
X117799300Y-55401100D01*
X121324900Y-53927100D02*
X119053000Y-53927100D01*
X119054000Y-54146300D02*
X119054000Y-53927900D01*
X117799300Y-55401100D02*
X119054000Y-54146300D01*
X122298900Y-54901200D02*
X121324900Y-53927100D01*
%TO.N,PR9_3*%
X128698400Y-46460300D02*
X128698400Y-45408700D01*
X139094600Y-34999800D02*
X151799700Y-34999800D01*
X128698400Y-45408700D02*
X139094600Y-34999800D01*
%TO.N,C1_1*%
X112698900Y-110001200D02*
X113538800Y-110841100D01*
X113538800Y-110841100D02*
X113509000Y-110841100D01*
X105798800Y-108202400D02*
X107597600Y-110001200D01*
X107597600Y-110001200D02*
X112698900Y-110001200D01*
%TO.N,C11_1*%
X118952400Y-77054600D02*
X118952400Y-73795800D01*
X137499500Y-80201700D02*
X122099500Y-80201700D01*
X122099500Y-80201700D02*
X118952400Y-77054600D01*
%TO.N,C12_1*%
X110578000Y-71001800D02*
X108398700Y-71001800D01*
X108398700Y-71001800D02*
X108398700Y-71100800D01*
X113382200Y-73805900D02*
X110578000Y-71001800D01*
%TO.N,R16_1*%
X129998900Y-72501100D02*
X128898800Y-73601200D01*
X137499000Y-72501100D02*
X129998900Y-72501100D01*
%TO.N,BUFFER-OUT*%
D100*
X90499300Y-61502200D02*
X90298700Y-61301500D01*
X80298700Y-61301500D02*
X78398800Y-59401600D01*
X90298700Y-61301500D02*
X80298700Y-61301500D01*
%TO.N,BUFFER-IN*%
X78299500Y-64801200D02*
X76499500Y-63001200D01*
X76499500Y-63001200D02*
X70798800Y-63001200D01*
X70798800Y-63001200D02*
X70798800Y-63001100D01*
X70798800Y-63001100D02*
X70798800Y-59401100D01*
%TO.N,R20_1*%
D93*
X97497000Y-45302100D02*
X97149100Y-45302100D01*
X101500100Y-49300000D02*
X97497000Y-45302100D01*
D106*
X105797800Y-42302300D02*
X107298900Y-45401100D01*
D93*
X101500100Y-49800400D02*
X101500100Y-49300000D01*
%TO.N,R19_2*%
D97*
X119048700Y-47661400D02*
X119054000Y-36798100D01*
X116506400Y-50201700D02*
X119048700Y-47661400D01*
X113400000Y-50201700D02*
X116506400Y-50201700D01*
X107799300Y-56300300D02*
X107799300Y-55802400D01*
X107799300Y-55802400D02*
X113400000Y-50201700D01*
%TO.N,C18_1*%
D103*
X113483100Y-36807000D02*
X112977100Y-36301100D01*
X112977100Y-36301100D02*
X108798800Y-36301100D01*
%TO.N,LED3_1*%
D106*
X105798800Y-39801100D02*
X108709000Y-39801100D01*
X108709000Y-39801100D02*
X109019000Y-40111100D01*
%TO.N,L3_1*%
D107*
X95498800Y-123101200D02*
X95498800Y-127501200D01*
X95498800Y-127501200D02*
X95498800Y-127501200D01*
%TO.N,JACK9_2*%
D103*
X127999900Y-117702200D02*
X121700700Y-117702200D01*
X119099700Y-115101300D02*
X119079400Y-110831500D01*
X132599800Y-122302200D02*
X127999900Y-117702200D01*
X132598800Y-129001200D02*
X132599800Y-125700700D01*
X132599800Y-125700700D02*
X132599800Y-122302200D01*
X121700700Y-117702200D02*
X119099700Y-115101300D01*
%TO.N,PR4_2*%
D106*
X105797800Y-116300100D02*
X107298900Y-119401500D01*
%TO.N,SW1_2*%
D108*
X76298200Y-37400100D02*
X72097000Y-37400100D01*
X74598900Y-59401600D02*
X74598900Y-55101400D01*
X76298200Y-53402100D02*
X76298200Y-37400100D01*
X74598900Y-55101400D02*
X76298200Y-53402100D01*
%TO.N,JACK2_6*%
D97*
X69999000Y-87702300D02*
X66100100Y-83803400D01*
X73499100Y-87702300D02*
X69999000Y-87702300D01*
X66100100Y-83803400D02*
X66100100Y-81398000D01*
%TO.N,CLEAN-OUT*%
D101*
X97804400Y-61006900D02*
X97148800Y-60351300D01*
X97148800Y-60351300D02*
X97148800Y-58701300D01*
X100999700Y-64202200D02*
X97804400Y-61006900D01*
X107398000Y-64202200D02*
X100999700Y-64202200D01*
%TD*%
D109*
X30647700Y-23501200D02*
X180647700Y-23501200D01*
X180647700Y-223501200D01*
X30647700Y-223501200D01*
X30647700Y-23501200D01*
D110*
X55698800Y-32401100D02*
X155698900Y-32401100D01*
X55698800Y-132401200D02*
X55698800Y-32401100D01*
X155698900Y-32401100D02*
X155698900Y-132401200D01*
M02*
