<svg width="97" height="17" viewBox="0 0 97 17" fill="none" xmlns="http://www.w3.org/2000/svg">
<path d="M11.4772 3.70175V13.2632C11.4307 14.6199 10.9008 15.5789 9.88755 16.1404C8.88598 16.7135 7.70973 17 6.35878 17C5.12429 17 4.12855 16.9532 3.37155 16.8596C2.6262 16.7778 1.96237 16.5146 1.38006 16.0702C0.797759 15.6257 0.506606 14.9181 0.506606 13.9474H2.7776C2.78924 14.7895 3.69764 15.2105 5.50279 15.2105L6.35878 15.193C7.0226 15.193 7.66896 15.0526 8.29785 14.7719C8.93839 14.5029 9.25866 13.9415 9.25866 13.0877V12.1754C8.26874 13.1111 6.75474 13.5789 4.71667 13.5789C3.81992 13.5789 3.01634 13.3509 2.30593 12.8947C1.60716 12.4269 1.05397 11.8187 0.646359 11.0702C0.238745 10.3216 0.0232922 9.53216 0 8.70175V8.57895C0.0116461 7.61988 0.215453 6.75439 0.611421 5.98246C1.01903 5.21053 1.57805 4.60234 2.28846 4.15789C2.99887 3.71345 3.80828 3.49123 4.71667 3.49123C6.7431 3.43275 8.25709 3.8538 9.25866 4.75439V4.66667L9.59057 3.70175H11.4772ZM5.88711 12.0351C6.92361 12.0351 7.74466 11.7251 8.35026 11.1053C8.95586 10.4854 9.25866 9.5731 9.25866 8.36842V8.31579C9.25866 7.77778 9.12473 7.25731 8.85687 6.75439C8.60065 6.23977 8.22798 5.82456 7.73884 5.50877C7.26135 5.18129 6.71398 5.01754 6.09674 5.01754C5.33974 5.01754 4.68174 5.18129 4.12272 5.50877C3.56371 5.82456 3.13863 6.25731 2.84747 6.80702C2.55632 7.34503 2.40492 7.92982 2.39328 8.5614C2.41657 9.59064 2.73101 10.4269 3.33661 11.0702C3.95385 11.7135 4.80402 12.0351 5.88711 12.0351Z" fill="url(#paint0_linear_5511_423)"/>
<path d="M24.9521 8.61403H15.0296C15.0646 9.21053 15.2334 9.77193 15.5362 10.2982C15.839 10.8129 16.2874 11.2339 16.8814 11.5614C17.4753 11.8889 18.1974 12.0526 19.0475 12.0526C19.7812 12.0526 20.4276 11.924 20.9866 11.6667C21.5573 11.3977 21.994 11.0702 22.2968 10.6842C22.6112 10.2865 22.7685 9.90643 22.7685 9.54386H24.9521C24.9521 10.152 24.7192 10.7719 24.2533 11.4035C23.7875 12.0351 23.1062 12.5614 22.2095 12.9825C21.3127 13.4035 20.2471 13.614 19.0126 13.614C17.9062 13.614 16.8814 13.3977 15.938 12.9649C14.9947 12.5205 14.2435 11.9064 13.6845 11.1228C13.1255 10.3275 12.846 9.4269 12.846 8.42105C12.846 7.39181 13.1138 6.48538 13.6496 5.70175C14.1969 4.90643 14.9365 4.29825 15.8681 3.87719C16.8115 3.44444 17.8596 3.22807 19.0126 3.22807C20.1889 3.22807 21.2195 3.4386 22.1046 3.85965C23.0014 4.2807 23.6943 4.87719 24.1835 5.64912C24.6842 6.40936 24.9405 7.30409 24.9521 8.33333V8.61403ZM19.0475 4.80702C18.046 4.80702 17.2366 5.02924 16.6193 5.47368C16.0021 5.91813 15.5595 6.50292 15.2917 7.22807H22.6287C22.4307 6.50292 22.0406 5.91813 21.4583 5.47368C20.8876 5.02924 20.084 4.80702 19.0475 4.80702Z" fill="url(#paint1_linear_5511_423)"/>
<path d="M32.7247 7.75439C33.5748 7.75439 34.3085 7.81287 34.9258 7.92982C35.543 8.04678 36.0554 8.30409 36.4631 8.70175C36.8823 9.08772 37.0919 9.66082 37.0919 10.4211C37.0919 11.3801 36.7892 12.0994 36.1836 12.5789C35.578 13.0585 34.885 13.3567 34.1047 13.4737C33.3361 13.6023 32.4801 13.6667 31.5368 13.6667C30.0926 13.6667 28.765 13.4269 27.5538 12.9474C26.3426 12.4561 25.737 11.5205 25.737 10.1404L27.9206 10.1754C27.9206 10.8187 28.2875 11.2924 29.0212 11.5965C29.7665 11.8889 30.6051 12.0351 31.5368 12.0351C32.8295 12.0351 33.732 11.9181 34.2445 11.6842C34.7569 11.4503 35.0131 11.0819 35.0131 10.5789C35.0131 10.0643 34.7394 9.73099 34.1921 9.57895C33.6447 9.41521 32.9634 9.33333 32.1482 9.33333H31.3795C29.8422 9.32164 28.5146 9.09357 27.3966 8.64912C26.2902 8.20468 25.737 7.41521 25.737 6.2807C25.737 5.06433 26.3135 4.26901 27.4664 3.89474C28.6194 3.50877 29.9529 3.31579 31.4669 3.31579C32.911 3.31579 34.2095 3.55556 35.3625 4.03509C36.5155 4.51462 37.0919 5.44444 37.0919 6.82456L34.9083 6.78947C34.9083 6.02924 34.5065 5.52632 33.7029 5.2807C32.911 5.02339 32.1598 4.89474 31.4494 4.89474C30.4362 4.89474 29.5919 4.98246 28.9164 5.1579C28.2526 5.33333 27.9206 5.70175 27.9206 6.26316C27.9206 6.76608 28.2001 7.1462 28.7592 7.40351C29.3298 7.64912 30.2149 7.77193 31.4145 7.77193L32.7247 7.75439Z" fill="url(#paint2_linear_5511_423)"/>
<path d="M42.408 3.70175H44.2248V5.54386H42.408V13.2632H40.2244V5.54386H38.3203V3.70175H40.2244V1.63158L42.408 0V3.70175Z" fill="url(#paint3_linear_5511_423)"/>
<path d="M47.8928 0.280702H45.7092V2.14035H47.8928V0.280702ZM47.8928 13.2632H45.7092V2.64912H47.8928V13.2632Z" fill="url(#paint4_linear_5511_423)"/>
<path d="M49.375 10.807H51.9779V13.2632H49.375V10.807Z" fill="#1E1E1E"/>
<path d="M57.4547 3.70175H59.2715V5.54386H57.4547V13.2632H55.2711V5.54386H53.3669V3.70175H55.2711V1.63158L57.4547 0V3.70175Z" fill="#1E1E1E"/>
<path d="M71.9005 8.61403H61.978C62.0129 9.21053 62.1818 9.77193 62.4846 10.2982C62.7874 10.8129 63.2358 11.2339 63.8297 11.5614C64.4237 11.8889 65.1457 12.0526 65.9959 12.0526C66.7296 12.0526 67.376 11.924 67.935 11.6667C68.5057 11.3977 68.9424 11.0702 69.2452 10.6842C69.5596 10.2865 69.7168 9.90643 69.7168 9.54386H71.9005C71.9005 10.152 71.6676 10.7719 71.2017 11.4035C70.7359 12.0351 70.0546 12.5614 69.1578 12.9825C68.2611 13.4035 67.1955 13.614 65.961 13.614C64.8546 13.614 63.8297 13.3977 62.8864 12.9649C61.9431 12.5205 61.1919 11.9064 60.6329 11.1228C60.0739 10.3275 59.7944 9.4269 59.7944 8.42105C59.7944 7.39181 60.0622 6.48538 60.5979 5.70175C61.1453 4.90643 61.8848 4.29825 62.8165 3.87719C63.7599 3.44444 64.808 3.22807 65.961 3.22807C67.1372 3.22807 68.1679 3.4386 69.053 3.85965C69.9498 4.2807 70.6427 4.87719 71.1318 5.64912C71.6326 6.40936 71.8888 7.30409 71.9005 8.33333V8.61403ZM65.9959 4.80702C64.9943 4.80702 64.1849 5.02924 63.5677 5.47368C62.9505 5.91813 62.5079 6.50292 62.24 7.22807H69.5771C69.3791 6.50292 68.989 5.91813 68.4067 5.47368C67.836 5.02924 67.0324 4.80702 65.9959 4.80702Z" fill="#1E1E1E"/>
<path d="M72.9474 8.49123C72.9474 7.50877 73.2153 6.62573 73.751 5.84211C74.2984 5.04678 75.0437 4.4269 75.987 3.98246C76.942 3.53801 78.0018 3.31579 79.1664 3.31579C80.8435 3.31579 82.142 3.66667 83.0621 4.36842C83.9821 5.07018 84.6634 6.05263 85.1059 7.31579H82.9048C82.8 6.89474 82.5788 6.49708 82.241 6.12281C81.9033 5.74854 81.4724 5.45029 80.9483 5.22807C80.4242 5.00585 79.8477 4.89474 79.2188 4.89474C78.357 4.89474 77.6233 5.05263 77.0177 5.36842C76.4121 5.68421 75.9521 6.11696 75.6377 6.66667C75.3349 7.20468 75.1835 7.81287 75.1835 8.49123C75.1835 9.07602 75.329 9.64912 75.6202 10.2105C75.9113 10.7719 76.3597 11.2339 76.9653 11.5965C77.5709 11.9474 78.3221 12.1111 79.2188 12.0877C79.8594 12.0877 80.4417 11.9766 80.9658 11.7544C81.4898 11.5205 81.9149 11.2222 82.241 10.8596C82.5788 10.4854 82.7942 10.0936 82.8874 9.68421H85.0885C85.007 10.3392 84.675 10.9766 84.0927 11.5965C83.5221 12.2047 82.7942 12.7018 81.9091 13.0877C81.0356 13.4737 80.1214 13.6667 79.1664 13.6667C78.0601 13.6667 77.0294 13.4444 76.0744 13C75.1194 12.5439 74.3566 11.9181 73.7859 11.1228C73.2269 10.3275 72.9474 9.45029 72.9474 8.49123Z" fill="#1E1E1E"/>
<path d="M92.7725 3.38597C93.4479 3.38597 94.1059 3.5731 94.7465 3.94737C95.387 4.32164 95.9227 4.95322 96.3536 5.84211C96.7845 6.73099 97 7.88889 97 9.31579V13.2632H94.8164V9.36842C94.8164 8.16374 94.6184 7.15789 94.2224 6.35088C93.8264 5.53216 93.0054 5.12281 91.7592 5.12281C90.4782 5.12281 89.628 5.53801 89.2087 6.36842C88.8011 7.18713 88.5973 8.22807 88.5973 9.49123V13.2632H86.4137V0.280702H88.5973V4.94737C89.5174 3.90643 90.9091 3.38597 92.7725 3.38597Z" fill="#1E1E1E"/>
<defs>
<linearGradient id="paint0_linear_5511_423" x1="0" y1="8.5" x2="97" y2="8.5" gradientUnits="userSpaceOnUse">
<stop stop-color="#8544FF"/>
<stop offset="1" stop-color="#FA68FF"/>
</linearGradient>
<linearGradient id="paint1_linear_5511_423" x1="0" y1="8.5" x2="97" y2="8.5" gradientUnits="userSpaceOnUse">
<stop stop-color="#8544FF"/>
<stop offset="1" stop-color="#FA68FF"/>
</linearGradient>
<linearGradient id="paint2_linear_5511_423" x1="0" y1="8.5" x2="97" y2="8.5" gradientUnits="userSpaceOnUse">
<stop stop-color="#8544FF"/>
<stop offset="1" stop-color="#FA68FF"/>
</linearGradient>
<linearGradient id="paint3_linear_5511_423" x1="0" y1="8.5" x2="97" y2="8.5" gradientUnits="userSpaceOnUse">
<stop stop-color="#8544FF"/>
<stop offset="1" stop-color="#FA68FF"/>
</linearGradient>
<linearGradient id="paint4_linear_5511_423" x1="0" y1="8.5" x2="97" y2="8.5" gradientUnits="userSpaceOnUse">
<stop stop-color="#8544FF"/>
<stop offset="1" stop-color="#FA68FF"/>
</linearGradient>
</defs>
</svg>
