<svg width="852" height="149" viewBox="0 0 852 149" fill="none" xmlns="http://www.w3.org/2000/svg">
<path d="M100.81 32.4448V116.248C100.401 128.139 95.7469 136.545 86.8473 141.465C78.0501 146.488 67.7184 149 55.8524 149C45.0092 149 36.2631 148.59 29.614 147.77C23.0672 147.052 17.2365 144.746 12.1218 140.85C7.00712 136.955 4.44978 130.753 4.44978 122.245H24.397C24.4993 129.625 32.4782 133.316 48.3338 133.316L55.8524 133.162C61.6831 133.162 67.3604 131.932 72.8842 129.472C78.5104 127.114 81.3235 122.193 81.3235 114.71V106.714C72.6285 114.915 59.3303 119.015 41.4289 119.015C33.5523 119.015 26.4941 117.017 20.2541 113.019C14.1165 108.918 9.25758 103.588 5.6773 97.0268C2.09702 90.4661 0.204587 83.5466 0 76.2683V75.192C0.102294 66.786 1.89243 59.2002 5.37042 52.4345C8.9507 45.6687 13.8608 40.3382 20.1007 36.4427C26.3406 32.5473 33.45 30.5996 41.4289 30.5996C59.228 30.087 72.5262 33.7774 81.3235 41.6708V40.902L84.2388 32.4448H100.81ZM51.7095 105.484C60.8136 105.484 68.0253 102.767 73.3446 97.3344C78.6638 91.9013 81.3235 83.9054 81.3235 73.3467V72.8855C81.3235 68.1699 80.1471 63.6082 77.7943 59.2002C75.5439 54.6897 72.2705 51.0506 67.9742 48.2828C63.7801 45.4125 58.9723 43.9773 53.5507 43.9773C46.9016 43.9773 41.1221 45.4125 36.212 48.2828C31.3019 51.0506 27.5681 54.8435 25.0108 59.6615C22.4535 64.377 21.1236 69.5026 21.0214 75.0382C21.2259 84.0592 23.9879 91.3887 29.3071 97.0268C34.7287 102.665 42.1961 105.484 51.7095 105.484Z" fill="black"/>
<path d="M219.167 75.4995H132.013C132.32 80.7276 133.803 85.6481 136.463 90.2611C139.122 94.7716 143.061 98.462 148.277 101.332C153.494 104.203 159.837 105.638 167.304 105.638C173.749 105.638 179.426 104.51 184.336 102.255C189.348 99.8971 193.184 97.0268 195.844 93.644C198.606 90.1586 199.987 86.827 199.987 83.6491H219.167C219.167 88.9797 217.121 94.4128 213.029 99.9484C208.938 105.484 202.953 110.097 195.077 113.787C187.2 117.478 177.84 119.323 166.997 119.323C157.279 119.323 148.277 117.427 139.992 113.634C131.706 109.738 125.108 104.356 120.198 97.4881C115.288 90.5174 112.833 82.624 112.833 73.8081C112.833 64.7871 115.185 56.8425 119.891 49.9742C124.699 43.0034 131.194 37.6729 139.378 33.9825C147.664 30.1895 156.87 28.2931 166.997 28.2931C177.329 28.2931 186.382 30.1383 194.156 33.8287C202.033 37.5191 208.119 42.7472 212.416 49.5129C216.814 56.1761 219.065 64.0182 219.167 73.0392V75.4995ZM167.304 42.1321C158.507 42.1321 151.397 44.0798 145.976 47.9752C140.554 51.8707 136.667 56.9962 134.314 63.3519H198.759C197.02 56.9962 193.594 51.8707 188.479 47.9752C183.467 44.0798 176.408 42.1321 167.304 42.1321Z" fill="black"/>
<path d="M287.437 67.9649C294.905 67.9649 301.349 68.4775 306.771 69.5026C312.192 70.5277 316.693 72.7829 320.273 76.2683C323.956 79.6512 325.797 84.6742 325.797 91.3375C325.797 99.7434 323.138 106.048 317.818 110.251C312.499 114.454 306.413 117.068 299.559 118.093C292.808 119.221 285.289 119.784 277.003 119.784C264.319 119.784 252.657 117.683 242.019 113.48C231.38 109.174 226.061 100.974 226.061 88.8772L245.241 89.1847C245.241 94.8228 248.463 98.9745 254.908 101.64C261.455 104.203 268.82 105.484 277.003 105.484C288.358 105.484 296.286 104.459 300.787 102.409C305.287 100.358 307.538 97.1293 307.538 92.7214C307.538 88.2109 305.134 85.2893 300.326 83.9567C295.518 82.5215 289.534 81.8039 282.374 81.8039H275.622C262.12 81.7014 250.458 79.7024 240.638 75.807C230.92 71.9116 226.061 64.9921 226.061 55.0485C226.061 44.3873 231.125 37.4166 241.252 34.1362C251.379 30.7534 263.091 29.0619 276.389 29.0619C289.074 29.0619 300.48 31.1634 310.607 35.3664C320.734 39.5693 325.797 47.719 325.797 59.8153L306.617 59.5077C306.617 52.8445 303.088 48.4365 296.03 46.2838C289.074 44.0286 282.476 42.9009 276.236 42.9009C267.337 42.9009 259.92 43.6698 253.987 45.2074C248.156 46.7451 245.241 49.9742 245.241 54.8947C245.241 59.3027 247.696 62.6343 252.606 64.8896C257.619 67.0423 265.393 68.1187 275.929 68.1187L287.437 67.9649Z" fill="black"/>
<path d="M372.491 32.4448H388.449V48.5903H372.491V116.248H353.311V48.5903H336.586V32.4448H353.311V14.3003L372.491 0V32.4448Z" fill="black"/>
<path d="M420.667 2.46027H401.487V18.7596H420.667V2.46027ZM420.667 116.248H401.487V23.2188H420.667V116.248Z" fill="black"/>
<path d="M433.685 94.7203H456.548V116.248H433.685V94.7203Z" fill="black"/>
<path d="M504.654 32.4448H520.612V48.5903H504.654V116.248H485.474V48.5903H468.749V32.4448H485.474V14.3003L504.654 0V32.4448Z" fill="black"/>
<path d="M631.538 75.4995H544.384C544.691 80.7276 546.174 85.6481 548.834 90.2611C551.494 94.7716 555.432 98.462 560.649 101.332C565.866 104.203 572.208 105.638 579.675 105.638C586.12 105.638 591.797 104.51 596.707 102.255C601.72 99.8971 605.556 97.0268 608.215 93.644C610.977 90.1586 612.358 86.827 612.358 83.6491H631.538C631.538 88.9797 629.492 94.4128 625.401 99.9484C621.309 105.484 615.325 110.097 607.448 113.787C599.572 117.478 590.212 119.323 579.369 119.323C569.651 119.323 560.649 117.427 552.363 113.634C544.077 109.738 537.479 104.356 532.569 97.4881C527.659 90.5174 525.204 82.624 525.204 73.8081C525.204 64.7871 527.557 56.8425 532.262 49.9742C537.07 43.0034 543.566 37.6729 551.749 33.9825C560.035 30.1895 569.242 28.2931 579.369 28.2931C589.7 28.2931 598.753 30.1383 606.528 33.8287C614.404 37.5191 620.491 42.7472 624.787 49.5129C629.186 56.1761 631.436 64.0182 631.538 73.0392V75.4995ZM579.675 42.1321C570.878 42.1321 563.769 44.0798 558.347 47.9752C552.926 51.8707 549.039 56.9962 546.686 63.3519H611.131C609.392 56.9962 605.965 51.8707 600.85 47.9752C595.838 44.0798 588.78 42.1321 579.675 42.1321Z" fill="black"/>
<path d="M640.734 74.4231C640.734 65.8122 643.087 58.0726 647.792 51.2043C652.6 44.2336 659.147 38.8005 667.433 34.9051C675.821 31.0096 685.129 29.0619 695.359 29.0619C710.089 29.0619 721.495 32.1373 729.576 38.2879C737.657 44.4386 743.641 53.0495 747.529 64.1208H728.195C727.274 60.4303 725.331 56.945 722.364 53.6646C719.398 50.3843 715.613 47.7702 711.01 45.8225C706.407 43.8748 701.343 42.9009 695.819 42.9009C688.249 42.9009 681.805 44.2848 676.486 47.0526C671.166 49.8204 667.126 53.6133 664.364 58.4314C661.704 63.1469 660.374 68.4775 660.374 74.4231C660.374 79.5487 661.653 84.5717 664.21 89.4923C666.768 94.4128 670.706 98.462 676.025 101.64C681.345 104.715 687.943 106.15 695.819 105.945C701.445 105.945 706.56 104.971 711.163 103.024C715.766 100.974 719.5 98.3595 722.364 95.1816C725.331 91.9013 727.223 88.4672 728.042 84.8793H747.375C746.659 90.6199 743.744 96.2067 738.629 101.64C733.617 106.97 727.223 111.327 719.449 114.71C711.777 118.093 703.747 119.784 695.359 119.784C685.641 119.784 676.588 117.837 668.2 113.941C659.812 109.943 653.112 104.459 648.099 97.4881C643.189 90.5174 640.734 82.829 640.734 74.4231Z" fill="black"/>
<path d="M814.867 29.677C820.8 29.677 826.58 31.3172 832.206 34.5975C837.832 37.8779 842.538 43.4135 846.323 51.2043C850.108 58.9952 852 69.1438 852 81.6502V116.248H832.82V82.1115C832.82 71.5528 831.081 62.7368 827.603 55.6636C824.125 48.4878 816.913 44.8999 805.968 44.8999C794.716 44.8999 787.248 48.539 783.566 55.8173C779.985 62.9931 778.195 72.1166 778.195 83.1878V116.248H759.015V2.46027H778.195V43.3622C786.276 34.2387 798.5 29.677 814.867 29.677Z" fill="black"/>
</svg>
